<svg xmlns="http://www.w3.org/2000/svg" width="1801" height="800" fill="none" viewBox="0 0 1801 800"><g clip-path="url(#a)"><g clip-path="url(#b)"><path fill="#3F3F69" d="M2.402 0h1798.6v800H2.402z"/><path fill="#2C2C49" fill-rule="evenodd" d="M1885.99-546.314h-257.43l-309.2 242.095c-12.56 9.82-14.33 27.457-4.04 39.406.74.858 1.54 1.653 2.37 2.447l186.66 170.052c5.65 5.148 12.96 7.786 20.34 7.786 5.88 0 11.79-1.685 16.9-5.085l129.42-86.345 214.98-158.007zM947.882-430.481c2.873-2.86 6.747-4.322 10.621-4.322h.033c3.641 0 7.315 1.271 10.153 3.877l219.221 199.702c5.25 4.799 6.05 12.521 1.84 18.178L951.389 108.339l-5.277 7.086-40.311 54.121L781.326 336.61c-.2.349-.401.635-.635.921-1.302 1.589-3.273 2.416-5.243 2.416a6.86 6.86 0 0 1-4.141-1.367l-23.646-18.082-27.487-21.324-27.219-21.61-15.497-12.426-27.821-20.911-16.866-13.824-141.173-113.516-72.842-58.57a15 15 0 0 1-1.937-1.874c-5.11-5.975-4.175-14.81 2.138-19.672L536.852-54.34l212.479-169.765c19.872-14.333 37.973-30.731 53.938-48.941l51.065-62.542 93.448-94.797zm240.358 276.324c2.87-2.924 6.78-4.418 10.72-4.418l-.04-.095c3.61 0 7.22 1.239 10.06 3.782l160.51 143.166c5.27 4.703 6.18 12.33 2.17 18.019l-167.02 236.915-24.95 35.402-159.71 225.665c-4.71 6.197-12.13 9.502-19.61 9.502a25.1 25.1 0 0 1-13.691-4.036L804.626 368.009c-2.906-2.828-3.106-7.277-.434-10.296l97.355-130.867 32.029-43.919 34.4-45.54 10.888-14.428 208.166-275.718c.37-.477.77-.953 1.21-1.398M759.577 397.818c3.506-2.733 7.781-4.099 12.09-4.099l.066.032c3.975 0 7.983 1.175 11.356 3.559l10.754 7.277 7.949 6.07 7.915 6.102 7.882 6.133 19.438 15.699 27.319 21.864 30.56 23.93 8.616 7.119 30.827 25.392 15.463 12.648 22.143 17.637 8.884 7.024.133.953 1.002 6.261-1.903 2.892-33.298 49.798-38.041 54.978-31.461 46.875-32.229 48.781-24.714 38.612-19.471 31.334-24.849 41.79-16.264 28.252-10.487 18.241-98.324 170.908-95.051 167.45c-2.672 4.67-7.715 7.34-12.959 7.34-2.271 0-4.575-.51-6.713-1.56l-106.74-52.28a60.6 60.6 0 0 0-19.571-4.79l-84.498-2.67c-10.119-.13-19.938-3.09-28.254-8.52l-82.894-59.24c-4.175-2.7-8.918-4.03-13.794-4.03s-9.752 1.36-13.96 4.13c-4.208 2.76-9.151 4.16-13.961 4.16-4.809 0-9.618-1.33-13.793-4.04l-39.811-38.04c-5.477-5.24-5.711-13.63-.567-19.16L288.096 900.6l126.512-135.666 33.565-36.006 16.465-17.638 74.044-79.004 41.714-44.395 49.062-51.928 93.481-99.66 35.201-37.023zM1438.13 2.07c-.57 0-1.1 0-1.67.096-4.41.476-8.18 2.637-10.62 6.165q-35.115 50.207-70.23 100.401l-1.25 1.789c-35.99 51.438-71.97 102.87-107.93 154.301l1.1.763-1.1-.731q-.075.117-.15.223-.075.105-.15.222c-4.58 6.546-9.16 13.101-13.75 19.655-4.58 6.555-9.17 13.109-13.74 19.656-15.83 22.468-31.63 44.936-47.43 67.404a37470 37470 0 0 0-33.38 47.693c-11.11 15.889-22.21 31.779-33.35 47.645-7.89 11.248-15.8 22.492-23.71 33.737l-.06.091-.06.091-.13.176c-15.02 21.362-30.05 42.728-45 64.135-10.68 15.275-21.31 30.576-31.94 45.876l-.03.042a19688 19688 0 0 1-27.348 39.315q-4.745 6.806-9.494 13.61c-10.134 14.522-20.264 29.039-30.316 43.592-20.072 29.015-39.811 58.252-58.848 87.902a2534 2534 0 0 0-40.278 64.957c-13.559 22.659-26.818 45.476-40.044 68.294-36.237 61.588-72.474 123.18-108.711 184.73-21.907 38.63-43.823 77.24-65.738 115.85-21.886 38.57-43.772 77.13-65.65 115.7h242.604c12.557-21.69 25.122-43.37 37.688-65.05l.044-.08.044-.07.045-.08.319-.55.32-.55.045-.08.044-.08.044-.07.045-.08c12.55-21.66 25.101-43.32 37.643-64.97 41.56-71.77 83.152-143.53 124.742-215.298l.27-.456c127.41-219.882 254.82-439.795 382.2-659.676 10.9-18.837 21.82-37.657 32.74-56.484l5.58-9.621c2.01-3.473 4.02-6.946 6.04-10.42 16.47-28.428 32.94-56.865 49.42-85.301l.46-.797c16.28-28.104 32.57-56.207 48.84-84.303 3.34-5.784 2.31-12.299-2.7-16.875a74674 74674 0 0 1-50.44-45.946l-.16-.138q-12.345-11.262-24.72-22.528c-2.77-2.542-6.31-3.877-10.12-3.877zm384.18 959.228 63.69-75.476v459.628h-317.22l-.13-.16-40.61-50.05c-4.35-5.34-4.08-12.84.63-17.86l94.75-101.38zM237.668-43.311c-2.805 0-5.644.763-8.116 2.32L-54.766 137.895v313.631l89.507-63.591 124.742-90.698 242.07-190.358c6.278-4.926 7.147-13.73 1.97-19.704a11.3 11.3 0 0 0-1.803-1.716l-17.1-13.887L247.187-39.942c-2.739-2.225-6.146-3.337-9.552-3.337zM-54.766 1299.05v-268.09l30.793 39.34c7.214 8.36 15.096 16.18 23.513 23.45l33.732 28.32c5.444 4.58 6.546 12.27 2.605 18.08a178 178 0 0 0-5.978 9.44zm482.67-1187.977c-3.34 0-6.647 1.08-9.385 3.209L169.97 309.757 44.894 400.71l-99.66 70.741v515.97l52.302 66.799a196 196 0 0 0 20.206 20.12l32.095 26.95c2.806 2.35 6.279 3.49 9.719 3.49 4.041 0 8.082-1.59 10.988-4.67l46.724-49.83 126.078-134.013 24.781-26.345 21.341-22.691 77.484-82.34 79.588-84.597 297.61-317.825 2.037-2.257c4.075-5.084 3.407-12.298-1.569-16.62l-7.281-6.674-15.029-12.839-15.464-12.362-31.127-24.502-44.753-35.879-29.624-24.057-9.786-7.945-75.613-61.366-40.779-33.082-37.606-30.508c-2.739-2.225-6.146-3.337-9.552-3.337zM1700.84 422.986 1886 666.829h-.03v183.24l-81.7 96.832-198.48 214.259-88.27 94.45c-.57.6-1.2 1.17-1.91 1.68-2.7 2-5.91 2.99-9.08 2.99-4.34 0-8.65-1.85-11.56-5.34l-177.44-214.8c-25.52-31.81-26.82-75.602-3.24-108.748l148.79-241.555 165.19-221.661 58.51-63.686zm-134.86-304.254c-2.98 0-5.95.858-8.55 2.605a13.7 13.7 0 0 0-4.31 4.608l-134.13 231.481-507.217 875.424-65.226 112.57h587.043l48.19-51.58c4.74-5.06 4.97-12.62.57-17.96l-183.43-222.04c-31.59-39.25-33.43-93.273-4.57-134.395l148.92-241.81 166.46-223.377 62.85-68.453 43.79-47.669 4.54-4.925c4.47-4.894 4.84-12.077.9-17.352L1577.9 124.515c-2.87-3.813-7.38-5.847-11.96-5.847zM-54.766-546.314h896.773l87.503 79.702c5.844 5.307 6.078 14.078.567 19.672l-96.687 98.071-25.884 31.684c-21.875 27.235-50.397 48.972-83.061 63.368L511.432-83.638 383.584 15.164c-2.705 2.065-5.911 3.114-9.284 3.114s-6.747-1.112-9.485-3.305L267.459-63.3c-8.817-7.087-19.705-10.678-30.659-10.678-9.085 0-18.202 2.48-26.184 7.5L-54.766 100.491zm1600.676 0h-539.85l230.68 210.125c5.68 5.148 12.99 7.786 20.34 7.786 6.61 0 13.22-2.098 18.7-6.388zm192.4 457.306L1886-197.566v546.255L1662.96 52.156l-31.72-28.888a27.6 27.6 0 0 1-3.74-4.163c-9.32-12.648-6.08-30.126 7.21-38.993zM1503.86 1311c-3.14 0-6.31.95-8.98 2.92-.74.54-1.41 1.11-2.01 1.78l-27.79 29.75h73.95l-23.55-28.99c-2.9-3.56-7.25-5.43-11.65-5.43zM85.477 1117.97c2.872-2.7 6.646-4.07 10.387-4.07v-.03c3.774 0 7.548 1.4 10.42 4.13l38.809 37.09c8.115 5.85 17.801 8.77 27.486 8.77 9.051 0 18.102-2.54 25.917-7.69a3.54 3.54 0 0 1 2.004-.6c.601 0 1.202.16 1.737.44l82.66 59.08c11.79 7.79 25.683 12.04 40.011 12.3l83.796 2.64c4.041.35 8.015 1.3 11.756 2.86l105.304 51.57.267.13c7.148 3.69 9.819 12.17 5.945 18.97l-23.746 41.86H-54.127L50.61 1160.43a157 157 0 0 1 23.712-30.54l10.52-11.28z" clip-rule="evenodd"/><path stroke="#E9D9BD" stroke-width="1.33601" d="m808.347 482.634-4.516-4.273-.517-.49-.455.547-43.488 52.193-28-18.667-.493-.328-.385.449-8.617 10.053-23.892-15.769 69.632-85.674a8.63 8.63 0 0 1 6.563-3.007c2.044 0 4.085.715 5.739 2.197l.002.001 39.595 35.272.047.042.054.033 3.142 1.881 3.981 3.595z"/><path fill="#E9D9BD" d="m810.419 509.754 30.477-37.373L951 558l-98 141.5L640.5 567l45-49 69.286 45.194 46.933-60.728 8.727 7.288z"/></g><path fill="#171726" d="M848.836 586h2.503l-2.847 9.426 3.315 9.574h-2.506l-3.459-9.5z"/><path fill="#171726" d="M845.844 586h-2.983v19h2.983zm-16.407 6.717h-2.886v-2.568c0-1.342-.792-1.822-1.584-1.822s-1.584.48-1.584 1.822v1.536c0 2.782 6.057 3.719 6.057 7.15v2.327c0 2.662-1.839 3.838-4.473 3.838s-4.472-1.223-4.472-3.838v-2.615h2.886v2.302c0 1.342.792 1.822 1.584 1.822.791 0 1.583-.48 1.583-1.822v-1.512c0-2.038-6.056-3.719-6.056-7.197v-2.302c0-2.709 2.065-3.838 4.473-3.838 2.774 0 4.472 1.079 4.472 3.838zM734 588.408h2.426V605h2.604v-16.592h2.426V586H734zm25.368 13.392-1.78-15.8h-2.707l2.495 19h3.984l2.468-19h-2.707zm17.876 3.2h7.456v-2.406h-4.678v-5.976h4.489v-2.406h-4.489v-5.804h4.678V586h-7.456zm29.383-11.98v-3.051c0-2.853-1.443-3.969-3.178-3.969h-3.83v19h2.298v-7.814h.878l1.983 7.814h2.297l-2.118-8.359c1.261-.596 1.668-1.712 1.668-3.621zm-2.3-.124c0 1.388-.406 1.884-1.261 1.884h-1.149v-6.374h1.149c.857 0 1.261.496 1.261 1.884zM868.38 586c-2.662 0-4.646 1.129-4.646 3.838v11.324c0 2.71 2.066 3.838 4.502 3.838s4.446-1.079 4.446-3.838v-11.324c0-2.687-1.614-3.838-4.305-3.838zm1.414 14.849c0 1.342-.792 1.822-1.585 1.822s-1.584-.48-1.584-1.822v-10.7c0-1.342.792-1.822 1.584-1.822.793 0 1.585.48 1.585 1.822zM892.48 586l-1.925 8.608L888.68 586h-2.573l3.174 12.402V605h2.549v-6.621L895.055 586zm570.62-52-6.93-9h13.85z"/><path fill="#171726" d="M1443.1 507c0-11.046 8.95-20 20-20 11.04 0 20 8.954 20 20s-8.96 20-20 20c-11.05 0-20-8.954-20-20"/><path fill="#EDEDED" d="M1467.98 506.494a2 2 0 0 1 1.16-.219c.41.044.79.207 1.1.468a.4.4 0 0 0 .12.072q.075.023.15.017c.05-.004.1-.018.14-.04.05-.023.08-.054.12-.092a.5.5 0 0 0 .07-.128.4.4 0 0 0 .01-.146.4.4 0 0 0-.04-.141.3.3 0 0 0-.09-.114 2.805 2.805 0 0 0-3.09-.342.4.4 0 0 0-.18.218.4.4 0 0 0 .02.286c.05.088.13.155.22.185.1.03.2.022.29-.023zm-2.55.732a.4.4 0 0 0 .14-.04.4.4 0 0 0 .11-.091.35.35 0 0 0 .08-.129.4.4 0 0 0 .01-.145c0-.05-.02-.097-.04-.141a.3.3 0 0 0-.09-.115.4.4 0 0 0-.28-.085c-.55.045-1.07.252-1.51.595a2.8 2.8 0 0 0-.92 1.333.7.7 0 0 0-.02.146c.01.049.02.097.04.141a1 1 0 0 0 .09.115.38.38 0 0 0 .28.087.4.4 0 0 0 .14-.04.4.4 0 0 0 .11-.092.3.3 0 0 0 .07-.129 2.04 2.04 0 0 1 1.79-1.41m5.51 1.583a.4.4 0 0 0-.17-.024.36.36 0 0 0-.16.053l-1.16.71a7.14 7.14 0 0 1-3.65 1.047l-1.36.015a.36.36 0 0 0-.29.15c-.04.047-.06.1-.07.157a.33.33 0 0 0 .01.17 3.684 3.684 0 0 0 3.53 2.666c.57 0 1.13-.133 1.64-.387.51-.255.96-.625 1.3-1.08.35-.456.58-.985.68-1.545.11-.561.08-1.139-.08-1.687a.3.3 0 0 0-.08-.149.4.4 0 0 0-.14-.096m-2.51 4.08a2.92 2.92 0 0 1-3.44-1.536l.82-.009a7.9 7.9 0 0 0 4.03-1.158l.7-.429c.07.686-.1 1.376-.48 1.949-.39.573-.96.992-1.63 1.183m-11.51-10.565c.09 0 .18-.031.24-.088.31-.261.69-.423 1.1-.467.4-.045.8.032 1.16.219.09.045.19.053.29.023.09-.03.17-.097.22-.185a.4.4 0 0 0 .02-.286.4.4 0 0 0-.18-.218 2.805 2.805 0 0 0-3.09.342.37.37 0 0 0-.12.19.34.34 0 0 0 .01.224.38.38 0 0 0 .35.246"/><path fill="#EDEDED" d="m1473.34 508.491-1.47-5.096c-.08-.294-.22-.57-.41-.81-.2-.24-.43-.44-.7-.588a2.33 2.33 0 0 0-1.77-.201l-2.26.648a2.34 2.34 0 0 0-.24-1.736c-.3-.526-.79-.913-1.38-1.08l-6.91-1.984a2.3 2.3 0 0 0-.9-.077 2.34 2.34 0 0 0-1.57.865c-.19.239-.33.514-.41.809l-1.47 5.099c-.45 1.553-.3 3.22.42 4.669a6.43 6.43 0 0 0 3.47 3.148q.03.012.06.018c1.39.27 2.83.074 4.1-.556l.05.146a6.34 6.34 0 0 0 2.3 3.382 6.43 6.43 0 0 0 5.14 1.181q.03-.006.06-.018a6.44 6.44 0 0 0 3.47-3.15c.72-1.449.87-3.116.42-4.669m-15.36 2.955a5.684 5.684 0 0 1-3.41-6.9l1.47-5.099c.06-.2.15-.387.28-.549s.29-.299.47-.399a1.58 1.58 0 0 1 1.21-.136l6.91 1.984c.2.057.38.153.55.283a1.53 1.53 0 0 1 .58 1.061c.03.207.01.417-.05.617l-.11.379-1.76.507a2.75 2.75 0 0 0-.9-.846 2.8 2.8 0 0 0-1.19-.372.4.4 0 0 0-.27.088.4.4 0 0 0-.13.253.383.383 0 0 0 .34.404c.53.044 1.03.293 1.38.696l-1.27.365c-.35.099-.68.28-.94.528-.27.247-.48.554-.6.896a3.184 3.184 0 0 0-3.93.663c-.32.358-.56.784-.69 1.245a.33.33 0 0 0-.01.171c.01.056.03.11.07.156a.38.38 0 0 0 .29.151l1.16.013c1.09.011 2.15.316 3.08.883l.6.365.58 2.03c-1.14.601-2.45.8-3.71.563m2.5-4.779.32 1.126a6.8 6.8 0 0 0-3.36-.937l-.61-.006a2.44 2.44 0 0 1 1.58-1.232c.34-.081.69-.089 1.03-.024.34.064.66.201.95.399q-.015.344.09.674m8.73 8.933c-1.4.271-2.85.005-4.06-.744a5.72 5.72 0 0 1-2.49-3.297l-1.46-5.099a1.4 1.4 0 0 1-.05-.607c.03-.314.15-.61.36-.851.2-.241.47-.415.77-.501l6.91-1.986a1.56 1.56 0 0 1 1.39.258c.28.207.48.497.57.828l1.47 5.096a5.695 5.695 0 0 1-3.41 6.903"/><path fill="#E9D9BD" d="M1423.27 544.043h6.64v1.092h-2.73V553H1426v-7.865h-2.73zm12.45 5.902c0 .169-.01.338-.02.507h-4.94c.17 1.079.95 1.638 1.99 1.638.74 0 1.41-.338 1.76-.949l.98.39c-.52 1.053-1.61 1.625-2.78 1.625-1.73 0-3.12-1.287-3.12-3.211s1.39-3.172 3.12-3.172 3.01 1.248 3.01 3.172m-4.95-.468h3.82c-.14-1.04-.88-1.638-1.88-1.638-1.03 0-1.76.546-1.94 1.638m11.28-1.599v-.949h1.13V553h-1.13v-1.079c-.41.728-1.25 1.235-2.23 1.235-1.58 0-2.97-1.339-2.97-3.198 0-1.794 1.31-3.185 3.03-3.185.91 0 1.76.39 2.17 1.105m-2.06 4.212c1.08 0 2.06-.897 2.06-2.132 0-1.248-1.06-2.119-2.07-2.119-1.1 0-1.99.975-1.99 2.119 0 1.157.89 2.132 2 2.132m4.47-5.161h5.15v1.066h-2.01V553h-1.13v-5.005h-2.01zm9.72-.156c1.66 0 3.04 1.287 3.04 3.198 0 1.924-1.37 3.185-3.03 3.185-.91 0-1.77-.39-2.17-1.105v3.9h-1.13v-9.022h1.13v.949c.4-.689 1.28-1.105 2.16-1.105m-.11 5.317c1.12 0 2-.884 2-2.106 0-1.209-.88-2.145-2-2.145-1.08 0-2.05.845-2.05 2.145a2.07 2.07 0 0 0 2.05 2.106m8.27.91v-8.957h4.61v1.092h-3.42V553zm7.31-2.184 4.09-6.773h1.18V553h-1.18v-6.851l-4.15 6.851h-1.13v-8.957h1.19zm6.77-6.773h6.65v1.092h-2.73V553h-1.19v-7.865h-2.73zm9.34 6.773 4.09-6.773h1.18V553h-1.18v-6.851L1485.7 553h-1.13v-8.957h1.19zm11.69 2.34c-2.54 0-4.55-2.08-4.55-4.615s2.01-4.654 4.55-4.654c1.38 0 2.57.585 3.37 1.521l-.86.728a3.31 3.31 0 0 0-2.51-1.157c-1.89 0-3.37 1.638-3.37 3.562 0 1.911 1.48 3.523 3.37 3.523 1 0 1.91-.455 2.51-1.157l.86.728c-.8.936-1.99 1.521-3.37 1.521m9.5-5.278v-.949h1.13V553h-1.13v-1.079c-.41.728-1.25 1.235-2.23 1.235-1.58 0-2.97-1.339-2.97-3.198 0-1.794 1.31-3.185 3.03-3.185.91 0 1.76.39 2.17 1.105m-2.06 4.212c1.08 0 2.06-.897 2.06-2.132 0-1.248-1.06-2.119-2.07-2.119-1.11 0-1.99.975-1.99 2.119 0 1.157.88 2.132 2 2.132"/><path fill="#EDEDED" d="M1452.46 567.54c1.62 0 2.77 1.066 2.77 2.717 0 1.729-1.26 2.899-3.01 2.899-1.47 0-2.54-.819-3.08-1.924l.95-.52c.34.78 1.07 1.378 2.08 1.378 1.11 0 1.93-.741 1.93-1.807s-.85-1.742-1.89-1.742c-.7 0-1.43.299-2.08.78l-.7-.585.74-4.238h4.5v1.079h-3.58l-.48 2.548a3.3 3.3 0 0 1 1.85-.585m14.37-.611.83 6.071h-1.08l-.56-4.056-1.89 3.367h-.86l-1.9-3.354-.57 4.043h-1.07l.82-6.071h.82l2.33 4.186 2.3-4.186zm3.56 4.381 3.53-4.381h1.01V573h-1.13v-4.407l-3.58 4.407h-.96v-6.071h1.13zm10.96-1.846v-2.535h1.13V573h-1.13v-2.522h-3.31V573h-1.13v-6.071h1.13v2.535z"/><path fill="#171726" d="m1633.71 744.117-11.26-1.465 9.8-9.798z"/><path fill="#171726" d="M1600.48 739.167c-7.81-7.81-7.81-20.474 0-28.284 7.81-7.811 20.47-7.811 28.28 0 7.82 7.81 7.82 20.474 0 28.284-7.81 7.81-20.47 7.81-28.28 0"/><path fill="#EDEDED" d="M1625.04 721.558a.59.59 0 0 0-.47-.395l-6.53-.929-2.94-5.912a.58.58 0 0 0-1.04.005l-2.9 5.928-6.54.972a.59.59 0 0 0-.47.396.57.57 0 0 0 .15.593l4.74 4.596-1.09 6.509a.57.57 0 0 0 .23.567c.1.073.22.112.34.112.09 0 .19-.021.27-.069l5.84-3.091 5.85 3.057a.55.55 0 0 0 .26.064c.32 0 .58-.262.58-.58 0-.047 0-.09-.01-.133l-1.13-6.471 4.71-4.621a.56.56 0 0 0 .15-.598m-5.89 4.605a.55.55 0 0 0-.16.516l.98 5.644-5.08-2.652a.59.59 0 0 0-.54 0l-5.06 2.683.95-5.654a.58.58 0 0 0-.17-.512l-4.11-3.989 5.67-.843c.19-.03.35-.146.43-.318l2.52-5.146 2.56 5.133c.08.172.25.288.43.318l5.68.808z"/><path fill="#E9D9BD" d="M1604.7 770h-1.47l-2.59-3.783h-1.1V770h-1.17v-8.957h1.17v4.082h1.09l2.52-4.082h1.37l-2.88 4.641zm4.35-6.227c1.66 0 3.04 1.287 3.04 3.198 0 1.924-1.36 3.185-3.03 3.185-.91 0-1.76-.39-2.17-1.105v3.9h-1.13v-9.022h1.13v.949c.41-.689 1.29-1.105 2.16-1.105m-.1 5.317c1.11 0 2-.884 2-2.106 0-1.209-.89-2.145-2-2.145-1.08 0-2.06.845-2.06 2.145a2.08 2.08 0 0 0 2.06 2.106m10.45-2.145c0 .169-.01.338-.02.507h-4.94c.17 1.079.95 1.638 1.99 1.638.74 0 1.41-.338 1.77-.949l.97.39c-.52 1.053-1.61 1.625-2.78 1.625-1.73 0-3.12-1.287-3.12-3.211s1.39-3.172 3.12-3.172 3.01 1.248 3.01 3.172m-4.95-.468h3.82c-.14-1.04-.88-1.638-1.88-1.638-1.03 0-1.76.546-1.94 1.638m13.23-2.548.83 6.071h-1.08l-.56-4.056-1.89 3.367h-.86l-1.9-3.354-.57 4.043h-1.07l.82-6.071h.82l2.33 4.186 2.3-4.186zm3.2 3.64.41-3.64h3.97V770h-1.13v-5.005h-1.77l-.34 2.6c-.21 1.573-.79 2.405-1.96 2.405h-.61v-1.001h.35c.65 0 .95-.312 1.08-1.43m7.47-1.443h2.12c1.5 0 2.09.897 2.09 1.911 0 .975-.58 1.963-2.02 1.963h-3.32v-6.071h1.13zm0 2.808h2c.74 0 1.07-.377 1.07-.884 0-.494-.33-.858-1.07-.858h-2z"/><path fill="#EDEDED" d="m1603.93 786.1-2.34 2.808h3.45V790h-5.35v-.507l3.2-3.861c.53-.65.9-1.339.9-1.729 0-.858-.61-1.43-1.54-1.43-.92 0-1.56.52-1.62 1.287l-1.02-.221c.17-1.287 1.19-2.145 2.64-2.145 1.6 0 2.67 1.001 2.67 2.509 0 .663-.43 1.534-.99 2.197m5.64 4.056c-2.45 0-3.08-1.989-3.08-4.381 0-2.418.63-4.381 3.08-4.381 2.44 0 3.08 1.963 3.08 4.381 0 2.392-.64 4.381-3.08 4.381m0-1.066c1.56 0 1.95-1.547 1.95-3.315 0-1.794-.39-3.302-1.95-3.302s-1.94 1.508-1.94 3.302c0 1.768.38 3.315 1.94 3.315m14.84-5.161.83 6.071h-1.08l-.56-4.056-1.89 3.367h-.86l-1.9-3.354-.57 4.043h-1.07l.82-6.071h.82l2.33 4.186 2.3-4.186zm3.56 4.381 3.53-4.381h1.01V790h-1.13v-4.407L1627.8 790h-.96v-6.071h1.13zm10.96-1.846v-2.535h1.13V790h-1.13v-2.522h-3.31V790h-1.13v-6.071h1.13v2.535z"/><path fill="#171726" d="m1068.1 714-6.93-9h13.85z"/><path fill="#171726" d="M1048.1 687c0-11.046 8.95-20 20-20 11.04 0 20 8.954 20 20s-8.96 20-20 20c-11.05 0-20-8.954-20-20"/><path fill="#EDEDED" d="M1072.98 686.494a2 2 0 0 1 1.16-.219c.41.044.79.207 1.1.468a.4.4 0 0 0 .12.072q.075.023.15.017c.05-.004.1-.018.14-.04.05-.023.08-.054.12-.092a.5.5 0 0 0 .07-.128.4.4 0 0 0 .01-.146.4.4 0 0 0-.04-.141.3.3 0 0 0-.09-.114 2.805 2.805 0 0 0-3.09-.342.4.4 0 0 0-.18.218.4.4 0 0 0 .02.286c.05.088.13.155.22.185.1.03.2.022.29-.023zm-2.55.732a.4.4 0 0 0 .14-.04.4.4 0 0 0 .11-.091.35.35 0 0 0 .08-.129.4.4 0 0 0 .01-.145c0-.05-.02-.097-.04-.141a.3.3 0 0 0-.09-.115.4.4 0 0 0-.28-.085c-.55.045-1.07.252-1.51.595a2.8 2.8 0 0 0-.92 1.333.7.7 0 0 0-.02.146c.01.049.02.097.04.141a1 1 0 0 0 .09.115.38.38 0 0 0 .28.087.4.4 0 0 0 .14-.04.4.4 0 0 0 .11-.092.3.3 0 0 0 .07-.129 2.04 2.04 0 0 1 1.79-1.41m5.51 1.583a.4.4 0 0 0-.17-.024.36.36 0 0 0-.16.053l-1.16.71a7.14 7.14 0 0 1-3.65 1.047l-1.36.015a.36.36 0 0 0-.29.15c-.04.047-.06.1-.07.157a.33.33 0 0 0 .01.17 3.684 3.684 0 0 0 3.53 2.666c.57 0 1.13-.133 1.64-.387.51-.255.96-.625 1.3-1.08.35-.456.58-.985.68-1.545.11-.561.08-1.139-.08-1.687a.3.3 0 0 0-.08-.149.4.4 0 0 0-.14-.096m-2.51 4.08a2.92 2.92 0 0 1-3.44-1.536l.82-.009a7.9 7.9 0 0 0 4.03-1.158l.7-.429c.07.686-.1 1.376-.48 1.949-.39.573-.96.992-1.63 1.183m-11.51-10.565c.09 0 .18-.031.24-.088.31-.261.69-.423 1.1-.467.4-.045.8.032 1.16.219.09.045.19.053.29.023.09-.03.17-.097.22-.185a.4.4 0 0 0 .02-.286.4.4 0 0 0-.18-.218 2.805 2.805 0 0 0-3.09.342.37.37 0 0 0-.12.19.34.34 0 0 0 .01.224.38.38 0 0 0 .35.246"/><path fill="#EDEDED" d="m1078.34 688.491-1.47-5.096c-.08-.294-.22-.57-.41-.81-.2-.24-.43-.44-.7-.588a2.33 2.33 0 0 0-1.77-.201l-2.26.648a2.34 2.34 0 0 0-.24-1.736c-.3-.526-.79-.913-1.38-1.08l-6.91-1.984a2.3 2.3 0 0 0-.9-.077 2.34 2.34 0 0 0-1.57.865c-.19.239-.33.514-.41.809l-1.47 5.099c-.45 1.553-.3 3.22.42 4.669a6.43 6.43 0 0 0 3.47 3.148q.03.012.06.018c1.39.27 2.83.074 4.1-.556l.05.146a6.34 6.34 0 0 0 2.3 3.382 6.43 6.43 0 0 0 5.14 1.181q.03-.006.06-.018a6.44 6.44 0 0 0 3.47-3.15c.72-1.449.87-3.116.42-4.669m-15.36 2.955a5.684 5.684 0 0 1-3.41-6.9l1.47-5.099c.06-.2.15-.387.28-.549s.29-.299.47-.399a1.58 1.58 0 0 1 1.21-.136l6.91 1.984c.2.057.38.153.55.283a1.53 1.53 0 0 1 .58 1.061c.03.207.01.417-.05.617l-.11.379-1.76.507a2.75 2.75 0 0 0-.9-.846 2.8 2.8 0 0 0-1.19-.372.4.4 0 0 0-.27.088.4.4 0 0 0-.13.253.383.383 0 0 0 .34.404c.53.044 1.03.293 1.38.696l-1.27.365c-.35.099-.68.28-.94.528-.27.247-.48.554-.6.896a3.184 3.184 0 0 0-3.93.663c-.32.358-.56.784-.69 1.245a.33.33 0 0 0-.01.171c.01.056.03.11.07.156a.38.38 0 0 0 .29.151l1.16.013c1.09.011 2.15.316 3.08.883l.6.365.58 2.03c-1.14.601-2.45.8-3.71.563m2.5-4.779.32 1.126a6.8 6.8 0 0 0-3.36-.937l-.61-.006a2.44 2.44 0 0 1 1.58-1.232c.34-.081.69-.089 1.03-.024.34.064.66.201.95.399q-.015.344.09.674m8.73 8.933c-1.4.271-2.85.005-4.06-.744a5.72 5.72 0 0 1-2.49-3.297l-1.46-5.099a1.4 1.4 0 0 1-.05-.607c.03-.314.15-.61.36-.851.2-.241.47-.415.77-.501l6.91-1.986a1.56 1.56 0 0 1 1.39.258c.28.207.48.497.57.828l1.47 5.096a5.695 5.695 0 0 1-3.41 6.903"/><path fill="#E9D9BD" d="m1024.42 724.043 1.11 8.957h-1.16l-.83-6.825-2.85 5.85h-1.02l-2.88-5.85-.82 6.825h-1.15l1.09-8.957h1.07l3.19 6.643 3.19-6.643zm6.47 4.147 3.15 4.81h-1.42l-2.43-3.848-2.43 3.848h-1.4l3.13-4.823-2.78-4.134h1.4l2.08 3.185 2.09-3.185h1.41zm11.36 4.81h-1.24l-.87-2.301h-3.85l-.87 2.301h-1.23l3.4-8.957h1.25zm-4.03-7.41-1.54 4.069h3.07zm3.55-1.547h6.64v1.092h-2.73V733h-1.18v-7.865h-2.73zm11.86 7.267 3.53-4.381h1.01V733h-1.13v-4.407l-3.58 4.407h-.96v-6.071h1.13zm13.25-4.381.83 6.071h-1.08l-.56-4.056-1.89 3.367h-.86l-1.9-3.354-.57 4.043h-1.07l.82-6.071h.82l2.33 4.186 2.3-4.186zm3.02 6.201c-.45 0-.82-.325-.82-.78a.8.8 0 0 1 .82-.806c.45 0 .84.338.84.806 0 .455-.39.78-.84.78m6.13-.13v-8.957h4.61v1.092h-3.42V733zm7.04.156c-1.72 0-3.17-1.274-3.17-3.198s1.45-3.185 3.17-3.185c1.73 0 3.19 1.261 3.19 3.185s-1.46 3.198-3.19 3.198m0-1.066c1.12 0 2.06-.871 2.06-2.132 0-1.248-.94-2.119-2.06-2.119-1.1 0-2.02.871-2.02 2.119 0 1.261.92 2.132 2.02 2.132m8.05-5.317c1.67 0 3.04 1.287 3.04 3.198 0 1.924-1.36 3.185-3.02 3.185-.91 0-1.77-.39-2.18-1.105v3.9h-1.13v-9.022h1.13v.949c.41-.689 1.29-1.105 2.16-1.105m-.1 5.317c1.12 0 2-.884 2-2.106 0-1.209-.88-2.145-2-2.145-1.08 0-2.06.845-2.06 2.145a2.08 2.08 0 0 0 2.06 2.106m5.85-2.964h2.12c1.5 0 2.1.897 2.1 1.911 0 .975-.59 1.963-2.03 1.963h-3.32v-6.071h1.13zm0 2.808h2.01c.74 0 1.06-.377 1.06-.884 0-.494-.32-.858-1.06-.858h-2.01zm11.18 1.066h-1.39l-2-2.535h-1.06V733h-1.13v-6.071h1.13v2.535h1.13l1.69-2.535h1.26l-2.02 3.042zm3.61.156c-1.73 0-3.17-1.274-3.17-3.198s1.44-3.185 3.17-3.185 3.19 1.261 3.19 3.185-1.46 3.198-3.19 3.198m0-1.066c1.12 0 2.06-.871 2.06-2.132 0-1.248-.94-2.119-2.06-2.119-1.1 0-2.02.871-2.02 2.119 0 1.261.92 2.132 2.02 2.132m4.76-5.161h3.96v1.066h-2.83V733h-1.13zm7.81 6.227c-1.73 0-3.17-1.274-3.17-3.198s1.44-3.185 3.17-3.185 3.19 1.261 3.19 3.185-1.46 3.198-3.19 3.198m0-1.066c1.12 0 2.06-.871 2.06-2.132 0-1.248-.94-2.119-2.06-2.119-1.1 0-2.03.871-2.03 2.119 0 1.261.93 2.132 2.03 2.132"/><path fill="#EDEDED" d="M1057.46 747.54c1.62 0 2.77 1.066 2.77 2.717 0 1.729-1.26 2.899-3.01 2.899-1.47 0-2.54-.819-3.08-1.924l.95-.52c.34.78 1.07 1.378 2.08 1.378 1.11 0 1.93-.741 1.93-1.807s-.85-1.742-1.89-1.742c-.7 0-1.43.299-2.08.78l-.7-.585.74-4.238h4.5v1.079h-3.58l-.48 2.548a3.3 3.3 0 0 1 1.85-.585m14.37-.611.83 6.071h-1.08l-.56-4.056-1.89 3.367h-.86l-1.9-3.354-.57 4.043h-1.07l.82-6.071h.82l2.33 4.186 2.3-4.186zm3.56 4.381 3.53-4.381h1.01V753h-1.13v-4.407l-3.58 4.407h-.96v-6.071h1.13zm10.96-1.846v-2.535h1.13V753h-1.13v-2.522h-3.31V753h-1.13v-6.071h1.13v2.535z"/><path fill="#171726" d="m955.097 362-6.929-9h13.857z"/><path fill="#171726" d="M935.097 335c0-11.046 8.954-20 20-20s20 8.954 20 20-8.955 20-20 20-20-8.954-20-20"/><path fill="#EDEDED" d="M945.565 339.162h8.386v.646h-8.386zm0 1.614h8.386v.646h-8.386zm-.968 1.611h10.323v.645h-10.323z"/><path fill="#EDEDED" d="M945.243 338.516h.646V344h-.646zm8.386 0h.646V344h-.646zm6.13.323A4.843 4.843 0 0 1 954.92 334c0-2.417 2.008-10 4.839-10s4.838 7.583 4.838 10a4.843 4.843 0 0 1-4.838 4.839m0-14.193c-2.154 0-4.193 6.807-4.193 9.354a4.2 4.2 0 0 0 4.193 4.193 4.2 4.2 0 0 0 4.193-4.193c0-2.547-2.04-9.354-4.193-9.354"/><path fill="#EDEDED" d="M959.437 331.74h.645V344h-.645z"/><path fill="#EDEDED" d="m961.142 332.479.457.456-1.612 1.612-.456-.457zm-2.772 2.581 1.611 1.611-.456.457-1.612-1.612z"/><path fill="#E9D9BD" d="M892.641 376.008v-3.965h1.183V381h-1.183v-3.913h-4.394V381h-1.183v-8.957h1.183v3.965zm6.022 5.148c-1.729 0-3.172-1.274-3.172-3.198s1.443-3.185 3.172-3.185 3.185 1.261 3.185 3.185-1.456 3.198-3.185 3.198m0-1.066c1.118 0 2.054-.871 2.054-2.132 0-1.248-.936-2.119-2.054-2.119-1.105 0-2.028.871-2.028 2.119 0 1.261.923 2.132 2.028 2.132m9.193-2.327c.767.156 1.079.845 1.079 1.508 0 .832-.624 1.729-1.976 1.729h-3.536v-6.071h3.328c1.118 0 1.846.65 1.846 1.56 0 .455-.13 1.053-.741 1.274m-.39-1.066c0-.416-.26-.702-.767-.702h-2.145v1.391h2.171c.468 0 .741-.247.741-.689m-2.912 3.237h2.288c.663 0 .962-.351.962-.78 0-.442-.299-.819-.962-.819h-2.288zm8.721 1.222c-1.729 0-3.172-1.274-3.172-3.198s1.443-3.185 3.172-3.185 3.185 1.261 3.185 3.185-1.456 3.198-3.185 3.198m0-1.066c1.118 0 2.054-.871 2.054-2.132 0-1.248-.936-2.119-2.054-2.119-1.105 0-2.028.871-2.028 2.119 0 1.261.923 2.132 2.028 2.132m4.76.91v-6.071h5.577V381h-1.131v-5.005h-3.315V381zm9.842-1.599 1.859-4.472h1.222l-3.77 9.022h-1.196l1.274-3.133-2.444-5.889h1.222zm11.036.533v-5.005h1.131V381h-7.93v-6.071h1.131v5.005h2.262v-5.005h1.144v5.005zm8.68 1.066h-1.391l-2.002-2.535h-1.053V381h-1.131v-6.071h1.131v2.535h1.131l1.69-2.535h1.261l-2.028 3.042zm2.232-1.69 3.523-4.381h1.014V381h-1.131v-4.407L949.656 381h-.962v-6.071h1.131zm10.958-1.846v-2.535h1.131V381h-1.131v-2.522h-3.315V381h-1.131v-6.071h1.131v2.535zm5.941 3.692c-1.742 0-3.263-1.274-3.263-3.198s1.521-3.185 3.263-3.185c.949 0 1.781.377 2.314.962l-.715.741a2.14 2.14 0 0 0-1.56-.637c-1.196 0-2.158.871-2.158 2.119s.962 2.132 2.158 2.132c.637 0 1.183-.247 1.56-.637l.715.741c-.533.598-1.365.962-2.314.962m9.32-.156h-1.391l-2.002-2.535h-1.053V381h-1.131v-6.071h1.131v2.535h1.131l1.69-2.535h1.261l-2.028 3.042zm2.231-1.69 3.523-4.381h1.014V381h-1.131v-4.407L978.106 381h-.962v-6.071h1.131zm8.904-5.486c-1.014 0-1.677-.663-1.677-1.664h.936c0 .468.286.793.741.793.442 0 .728-.325.728-.793h.962c0 1.001-.676 1.664-1.69 1.664m-1.261 5.486 3.523-4.381h1.014V381h-1.131v-4.407L985.749 381h-.962v-6.071h1.131zm12.634 1.846c-1.742 0-3.263-1.274-3.263-3.198s1.521-3.185 3.263-3.185c.949 0 1.778.377 2.318.962l-.72.741c-.376-.39-.922-.637-1.559-.637-1.196 0-2.158.871-2.158 2.119s.962 2.132 2.158 2.132c.637 0 1.183-.247 1.559-.637l.72.741c-.54.598-1.369.962-2.318.962m9.318-.156h-1.39l-2-2.535h-1.06V381h-1.13v-6.071h1.13v2.535h1.14l1.69-2.535h1.26l-2.03 3.042zm5.53-3.237c.77.156 1.08.845 1.08 1.508 0 .832-.62 1.729-1.97 1.729h-3.54v-6.071h3.33c1.12 0 1.85.65 1.85 1.56 0 .455-.13 1.053-.75 1.274m-.39-1.066c0-.416-.26-.702-.76-.702h-2.15v1.391h2.17c.47 0 .74-.247.74-.689m-2.91 3.237h2.29c.66 0 .96-.351.96-.78 0-.442-.3-.819-.96-.819h-2.29zm11.7-1.989c0 .169-.01.338-.02.507h-4.94c.16 1.079.94 1.638 1.98 1.638.75 0 1.42-.338 1.77-.949l.98.39c-.52 1.053-1.61 1.625-2.78 1.625-1.73 0-3.12-1.287-3.12-3.211s1.39-3.172 3.12-3.172c1.72 0 3.01 1.248 3.01 3.172m-4.95-.468h3.82c-.14-1.04-.88-1.638-1.88-1.638-1.03 0-1.76.546-1.94 1.638m9.78-2.704c1.67 0 3.04 1.287 3.04 3.198 0 1.924-1.36 3.185-3.03 3.185-.91 0-1.76-.39-2.17-1.105v3.9h-1.13v-9.022h1.13v.949c.41-.689 1.29-1.105 2.16-1.105m-.1 5.317c1.12 0 2-.884 2-2.106 0-1.209-.88-2.145-2-2.145-1.08 0-2.06.845-2.06 2.145a2.08 2.08 0 0 0 2.06 2.106"/><path fill="#EDEDED" d="m945.764 397.1-2.34 2.808h3.445V401h-5.343v-.507l3.198-3.861c.533-.65.897-1.339.897-1.729 0-.858-.611-1.43-1.534-1.43s-1.56.52-1.625 1.287l-1.014-.221c.169-1.287 1.183-2.145 2.639-2.145 1.599 0 2.665 1.001 2.665 2.509 0 .663-.429 1.534-.988 2.197m12.813-2.171.832 6.071h-1.079l-.559-4.056-1.898 3.367h-.858l-1.898-3.354-.572 4.043h-1.066l.819-6.071h.819l2.327 4.186 2.301-4.186zm3.563 4.381 3.523-4.381h1.014V401h-1.131v-4.407L961.971 401h-.962v-6.071h1.131zm10.957-1.846v-2.535h1.131V401h-1.131v-2.522h-3.315V401h-1.131v-6.071h1.131v2.535z"/><path fill="#171726" d="m733.616 210-6.928-9h13.856z"/><path fill="#171726" d="M713.616 183c0-11.046 8.955-20 20-20s20 8.954 20 20-8.954 20-20 20-20-8.954-20-20"/><path fill="#EDEDED" d="M724.085 187.162h8.386v.646h-8.386zm0 1.614h8.386v.646h-8.386zm-.969 1.611h10.323v.645h-10.323z"/><path fill="#EDEDED" d="M723.763 186.516h.645V192h-.645zm8.386 0h.645V192h-.645zm6.129.323A4.843 4.843 0 0 1 733.44 182c0-2.417 2.008-10 4.838-10s4.839 7.583 4.839 10a4.843 4.843 0 0 1-4.839 4.839m0-14.193c-2.153 0-4.192 6.807-4.192 9.354a4.2 4.2 0 0 0 4.192 4.193 4.2 4.2 0 0 0 4.193-4.193c0-2.547-2.039-9.354-4.193-9.354"/><path fill="#EDEDED" d="M737.956 179.74h.646V192h-.646z"/><path fill="#EDEDED" d="m739.662 180.479.456.456-1.611 1.612-.457-.457zm-2.773 2.581 1.612 1.611-.457.457-1.611-1.612z"/><path fill="#E9D9BD" d="M680.65 229v-8.957h6.552V229h-1.183v-7.891h-4.186V229zm11.003-1.599 1.859-4.472h1.222l-3.77 9.022h-1.196l1.274-3.133-2.444-5.889h1.222zm11.037.533v-5.005h1.131V229h-7.93v-6.071h1.131v5.005h2.262v-5.005h1.144v5.005zm8.68 1.066h-1.391l-2.002-2.535h-1.053V229h-1.131v-6.071h1.131v2.535h1.131l1.69-2.535h1.261l-2.028 3.042zm2.232-1.69 3.523-4.381h1.014V229h-1.131v-4.407L713.433 229h-.962v-6.071h1.131zm10.957-1.846v-2.535h1.131V229h-1.131v-2.522h-3.315V229h-1.131v-6.071h1.131v2.535zm5.942 3.692c-1.742 0-3.263-1.274-3.263-3.198s1.521-3.185 3.263-3.185c.949 0 1.781.377 2.314.962l-.715.741a2.14 2.14 0 0 0-1.56-.637c-1.196 0-2.158.871-2.158 2.119s.962 2.132 2.158 2.132c.637 0 1.183-.247 1.56-.637l.715.741c-.533.598-1.365.962-2.314.962m9.319-.156h-1.391l-2.002-2.535h-1.053V229h-1.131v-6.071h1.131v2.535h1.131l1.69-2.535h1.261l-2.028 3.042zm2.232-1.69 3.523-4.381h1.014V229h-1.131v-4.407L741.883 229h-.962v-6.071h1.131zm8.904-5.486c-1.014 0-1.677-.663-1.677-1.664h.936c0 .468.286.793.741.793.442 0 .728-.325.728-.793h.962c0 1.001-.676 1.664-1.69 1.664m-1.261 5.486 3.523-4.381h1.014V229h-1.131v-4.407L749.526 229h-.962v-6.071h1.131zm12.633 1.846c-1.742 0-3.263-1.274-3.263-3.198s1.521-3.185 3.263-3.185c.949 0 1.781.377 2.314.962l-.715.741a2.14 2.14 0 0 0-1.56-.637c-1.196 0-2.158.871-2.158 2.119s.962 2.132 2.158 2.132c.637 0 1.183-.247 1.56-.637l.715.741c-.533.598-1.365.962-2.314.962m9.32-.156h-1.391l-2.002-2.535h-1.053V229h-1.131v-6.071h1.131v2.535h1.131l1.69-2.535h1.261l-2.028 3.042zm5.533-3.237c.767.156 1.079.845 1.079 1.508 0 .832-.624 1.729-1.976 1.729h-3.536v-6.071h3.328c1.118 0 1.846.65 1.846 1.56 0 .455-.13 1.053-.741 1.274m-.39-1.066c0-.416-.26-.702-.767-.702h-2.145v1.391h2.171c.468 0 .741-.247.741-.689m-2.912 3.237h2.288c.663 0 .962-.351.962-.78 0-.442-.299-.819-.962-.819h-2.288zm11.699-1.989c0 .169-.013.338-.026.507h-4.94c.169 1.079.949 1.638 1.989 1.638.741 0 1.417-.338 1.768-.949l.975.39c-.52 1.053-1.612 1.625-2.782 1.625-1.729 0-3.12-1.287-3.12-3.211s1.391-3.172 3.12-3.172 3.016 1.248 3.016 3.172m-4.953-.468h3.822c-.143-1.04-.884-1.638-1.885-1.638-1.027 0-1.755.546-1.937 1.638m9.783-2.704c1.664 0 3.042 1.287 3.042 3.198 0 1.924-1.365 3.185-3.029 3.185-.91 0-1.768-.39-2.171-1.105v3.9h-1.131v-9.022h1.131v.949c.403-.689 1.287-1.105 2.158-1.105m-.104 5.317c1.118 0 2.002-.884 2.002-2.106 0-1.209-.884-2.145-2.002-2.145-1.079 0-2.054.845-2.054 2.145a2.076 2.076 0 0 0 2.054 2.106"/><path fill="#EDEDED" d="M724.128 244.437c.884.286 1.482 1.079 1.482 2.08 0 1.56-1.222 2.639-2.951 2.639-1.209 0-2.236-.663-2.743-1.768l.923-.533c.39.767 1.053 1.235 1.781 1.235 1.066 0 1.846-.637 1.846-1.534 0-.962-.754-1.599-1.807-1.599h-.884v-.975h.806c.897 0 1.482-.533 1.482-1.3 0-.728-.546-1.209-1.365-1.209a1.85 1.85 0 0 0-1.508.806l-.793-.65c.442-.741 1.365-1.235 2.327-1.235 1.482 0 2.47.897 2.47 2.262 0 .806-.403 1.469-1.066 1.781m13.174-1.508.832 6.071h-1.079l-.559-4.056-1.898 3.367h-.858l-1.898-3.354-.572 4.043h-1.066l.819-6.071h.819l2.327 4.186 2.301-4.186zm3.563 4.381 3.523-4.381h1.014V249h-1.131v-4.407L740.696 249h-.962v-6.071h1.131zm10.958-1.846v-2.535h1.131V249h-1.131v-2.522h-3.315V249h-1.131v-6.071h1.131v2.535z"/><path fill="#171726" d="m417.73 519-6.928-9h13.857z"/><path fill="#171726" d="M397.73 492c0-11.046 8.955-20 20-20s20 8.954 20 20-8.954 20-20 20-20-8.954-20-20"/><path fill="#EDEDED" d="M422.609 491.494a2.05 2.05 0 0 1 2.261.249.38.38 0 0 0 .415.049.37.37 0 0 0 .186-.22.37.37 0 0 0-.118-.401 2.79 2.79 0 0 0-3.085-.342.373.373 0 0 0 .056.689c.095.03.198.022.286-.023zm-2.548.732a.4.4 0 0 0 .257-.131.37.37 0 0 0 .087-.274.38.38 0 0 0-.262-.326.4.4 0 0 0-.146-.015 2.8 2.8 0 0 0-2.433 1.928.38.38 0 0 0 .113.402.38.38 0 0 0 .415.047.37.37 0 0 0 .185-.221 2.04 2.04 0 0 1 1.784-1.41m5.511 1.583a.37.37 0 0 0-.33.029l-1.16.71a7.1 7.1 0 0 1-3.645 1.047l-1.36.015a.37.37 0 0 0-.364.307.4.4 0 0 0 .008.17 3.684 3.684 0 0 0 5.176 2.279 3.69 3.69 0 0 0 1.899-4.312.38.38 0 0 0-.224-.245m-2.504 4.08a2.93 2.93 0 0 1-3.449-1.536l.825-.009a7.87 7.87 0 0 0 4.028-1.158l.702-.429a2.94 2.94 0 0 1-2.106 3.132m-11.513-10.565a.38.38 0 0 0 .242-.088 2.04 2.04 0 0 1 2.261-.248.376.376 0 0 0 .503-.162.374.374 0 0 0-.161-.504 2.79 2.79 0 0 0-3.086.342.38.38 0 0 0-.11.414.4.4 0 0 0 .137.179.4.4 0 0 0 .215.067z"/><path fill="#EDEDED" d="m427.971 493.491-1.466-5.096a2.33 2.33 0 0 0-2.886-1.599l-2.256.648a2.33 2.33 0 0 0-1.616-2.816l-6.909-1.984a2.34 2.34 0 0 0-1.774.2 2.32 2.32 0 0 0-1.112 1.397l-1.467 5.099a6.43 6.43 0 0 0 3.889 7.817q.03.012.064.018a6.45 6.45 0 0 0 4.099-.556l.043.146a6.42 6.42 0 0 0 6.186 4.685 6.6 6.6 0 0 0 1.256-.122.4.4 0 0 0 .065-.018 6.44 6.44 0 0 0 3.884-7.819m-15.359 2.955a5.687 5.687 0 0 1-3.407-6.9l1.467-5.099a1.58 1.58 0 0 1 1.344-1.136c.206-.024.416-.006.616.052l6.909 1.984a1.57 1.57 0 0 1 .949.755 1.6 1.6 0 0 1 .137 1.206l-.109.379-1.763.507a2.8 2.8 0 0 0-2.087-1.218.374.374 0 0 0-.064.745 2.05 2.05 0 0 1 1.379.696l-1.272.365a2.31 2.31 0 0 0-1.541 1.424 3.2 3.2 0 0 0-1.366-.397 3.2 3.2 0 0 0-3.252 2.305.4.4 0 0 0-.008.171q.015.086.068.156a.38.38 0 0 0 .295.151l1.159.013a6 6 0 0 1 3.079.883l.595.365.584 2.03a5.7 5.7 0 0 1-3.712.563m2.5-4.779.323 1.126a6.8 6.8 0 0 0-3.361-.937l-.613-.006a2.45 2.45 0 0 1 1.587-1.232 2.44 2.44 0 0 1 1.974.375q-.004.344.09.674m8.734 8.933a5.68 5.68 0 0 1-6.549-4.041l-1.466-5.099a1.6 1.6 0 0 1-.052-.607 1.58 1.58 0 0 1 1.138-1.352l6.91-1.986a1.586 1.586 0 0 1 1.959 1.086l1.466 5.096a5.69 5.69 0 0 1-3.406 6.903"/><path fill="#E9D9BD" d="M353.814 529.043v7.865h.767v3.198h-1.183V538h-5.473v2.106h-1.183v-3.198h.13c.949 0 1.391-.819 1.573-2.522l.52-5.343zm-1.17 1.092h-2.548l-.468 4.264c-.117 1.066-.273 1.911-.65 2.509h3.666zm6.784 1.638c1.664 0 3.042 1.287 3.042 3.198 0 1.924-1.365 3.185-3.029 3.185-.91 0-1.768-.39-2.171-1.105v3.9h-1.131v-9.022h1.131v.949c.403-.689 1.287-1.105 2.158-1.105m-.104 5.317c1.118 0 2.002-.884 2.002-2.106 0-1.209-.884-2.145-2.002-2.145-1.079 0-2.054.845-2.054 2.145a2.076 2.076 0 0 0 2.054 2.106m9.508-4.212v-.949h1.131V538h-1.131v-1.079c-.403.728-1.248 1.235-2.223 1.235-1.586 0-2.977-1.339-2.977-3.198 0-1.794 1.313-3.185 3.029-3.185.91 0 1.768.39 2.171 1.105m-2.054 4.212c1.079 0 2.054-.897 2.054-2.132 0-1.248-1.053-2.119-2.067-2.119-1.105 0-1.989.975-1.989 2.119 0 1.157.884 2.132 2.002 2.132m11.901-5.161.832 6.071h-1.079l-.559-4.056-1.898 3.367h-.858l-1.898-3.354-.572 4.043h-1.066l.819-6.071h.819l2.327 4.186 2.301-4.186zm4.688 0h5.148v1.066h-2.002V538h-1.131v-5.005h-2.015zm11.983 3.016c0 .169-.013.338-.026.507h-4.94c.169 1.079.949 1.638 1.989 1.638.741 0 1.417-.338 1.768-.949l.975.39c-.52 1.053-1.612 1.625-2.782 1.625-1.729 0-3.12-1.287-3.12-3.211s1.391-3.172 3.12-3.172 3.016 1.248 3.016 3.172m-4.953-.468h3.822c-.143-1.04-.884-1.638-1.885-1.638-1.027 0-1.755.546-1.937 1.638m11.278-1.599v-.949h1.131V538h-1.131v-1.079c-.403.728-1.248 1.235-2.223 1.235-1.586 0-2.977-1.339-2.977-3.198 0-1.794 1.313-3.185 3.029-3.185.91 0 1.768.39 2.171 1.105m-2.054 4.212c1.079 0 2.054-.897 2.054-2.132 0-1.248-1.053-2.119-2.067-2.119-1.105 0-1.989.975-1.989 2.119 0 1.157.884 2.132 2.002 2.132m4.465-5.161h5.148v1.066h-2.002V538h-1.131v-5.005h-2.015zm9.716-.156c1.664 0 3.042 1.287 3.042 3.198 0 1.924-1.365 3.185-3.029 3.185-.91 0-1.768-.39-2.171-1.105v3.9h-1.131v-9.022h1.131v.949c.403-.689 1.287-1.105 2.158-1.105m-.104 5.317c1.118 0 2.002-.884 2.002-2.106 0-1.209-.884-2.145-2.002-2.145-1.079 0-2.054.845-2.054 2.145a2.076 2.076 0 0 0 2.054 2.106m9.143-.78 3.523-4.381h1.014V538h-1.131v-4.407L422.672 538h-.962v-6.071h1.131zm13.246-4.381.832 6.071h-1.079l-.559-4.056-1.898 3.367h-.858l-1.898-3.354-.572 4.043h-1.066l.819-6.071h.819l2.327 4.186 2.301-4.186zm3.017 6.201c-.442 0-.819-.325-.819-.78 0-.468.377-.806.819-.806.455 0 .845.338.845.806 0 .455-.39.78-.845.78m6.137-.13v-8.957h4.602v1.092h-3.419V538zm7.041.156c-1.729 0-3.172-1.274-3.172-3.198s1.443-3.185 3.172-3.185 3.185 1.261 3.185 3.185-1.456 3.198-3.185 3.198m0-1.066c1.118 0 2.054-.871 2.054-2.132 0-1.248-.936-2.119-2.054-2.119-1.105 0-2.028.871-2.028 2.119 0 1.261.923 2.132 2.028 2.132m8.048-5.317c1.664 0 3.042 1.287 3.042 3.198 0 1.924-1.365 3.185-3.029 3.185-.91 0-1.768-.39-2.171-1.105v3.9h-1.131v-9.022h1.131v.949c.403-.689 1.287-1.105 2.158-1.105m-.104 5.317c1.118 0 2.002-.884 2.002-2.106 0-1.209-.884-2.145-2.002-2.145-1.079 0-2.054.845-2.054 2.145a2.076 2.076 0 0 0 2.054 2.106m5.856-2.964h2.119c1.495 0 2.093.897 2.093 1.911 0 .975-.585 1.963-2.028 1.963h-3.315v-6.071h1.131zm0 2.808h2.002c.741 0 1.066-.377 1.066-.884 0-.494-.325-.858-1.066-.858h-2.002zM477.256 538h-1.391l-2.002-2.535h-1.053V538h-1.131v-6.071h1.131v2.535h1.131l1.69-2.535h1.261l-2.028 3.042zm3.616.156c-1.729 0-3.172-1.274-3.172-3.198s1.443-3.185 3.172-3.185 3.185 1.261 3.185 3.185-1.456 3.198-3.185 3.198m0-1.066c1.118 0 2.054-.871 2.054-2.132 0-1.248-.936-2.119-2.054-2.119-1.105 0-2.028.871-2.028 2.119 0 1.261.923 2.132 2.028 2.132m4.759-5.161h3.952v1.066h-2.821V538h-1.131zm7.809 6.227c-1.729 0-3.172-1.274-3.172-3.198s1.443-3.185 3.172-3.185 3.185 1.261 3.185 3.185-1.456 3.198-3.185 3.198m0-1.066c1.118 0 2.054-.871 2.054-2.132 0-1.248-.936-2.119-2.054-2.119-1.105 0-2.028.871-2.028 2.119 0 1.261.923 2.132 2.028 2.132"/><path fill="#EDEDED" d="M409.911 555.179h1.209v1.066h-1.209V558h-1.131v-1.755h-4.342v-.247l5.278-6.5h.195zm-1.131-2.925-2.444 2.925h2.444zm13.913-.325.832 6.071h-1.079l-.559-4.056-1.898 3.367h-.858l-1.898-3.354-.572 4.043h-1.066l.819-6.071h.819l2.327 4.186 2.301-4.186zm3.563 4.381 3.523-4.381h1.014V558h-1.131v-4.407L426.087 558h-.962v-6.071h1.131zm10.958-1.846v-2.535h1.131V558h-1.131v-2.522h-3.315V558h-1.131v-6.071h1.131v2.535z"/><path fill="#171726" d="m46.597 327.5 9-6.928v13.856z"/><path fill="#171726" d="M73.597 307.5c11.045 0 20 8.954 20 20s-8.955 20-20 20-20-8.954-20-20 8.954-20 20-20"/><path fill="#EDEDED" d="M63.565 331.162h8.386v.646h-8.386zm0 1.614h8.386v.646h-8.386zm-.968 1.611h10.322v.645H62.598z"/><path fill="#EDEDED" d="M63.243 330.516h.646V336h-.646zm8.386 0h.646V336h-.646zm6.13.323A4.843 4.843 0 0 1 72.92 326c0-2.417 2.008-10 4.839-10 2.83 0 4.838 7.583 4.838 10a4.843 4.843 0 0 1-4.838 4.839m0-14.193c-2.154 0-4.193 6.807-4.193 9.354a4.2 4.2 0 0 0 4.193 4.193A4.2 4.2 0 0 0 81.952 326c0-2.547-2.04-9.354-4.193-9.354"/><path fill="#EDEDED" d="M77.437 323.74h.645V336h-.645z"/><path fill="#EDEDED" d="m79.142 324.479.457.456-1.612 1.612-.456-.457zm-2.772 2.581 1.611 1.611-.456.457-1.612-1.612z"/><path fill="#E9D9BD" d="M14.404 370v-8.957h6.552V370h-1.183v-7.891h-4.186V370zm13.424-5.122v-.949h1.13V370h-1.13v-1.079c-.403.728-1.248 1.235-2.223 1.235-1.586 0-2.977-1.339-2.977-3.198 0-1.794 1.313-3.185 3.029-3.185.91 0 1.768.39 2.17 1.105m-2.054 4.212c1.079 0 2.054-.897 2.054-2.132 0-1.248-1.053-2.119-2.067-2.119-1.105 0-1.99.975-1.99 2.119 0 1.157.885 2.132 2.003 2.132m4.464-5.161h5.148v1.066h-2.002V370h-1.13v-5.005h-2.016zm9.717-.156c1.664 0 3.042 1.287 3.042 3.198 0 1.924-1.365 3.185-3.03 3.185-.91 0-1.767-.39-2.17-1.105v3.9h-1.131v-9.022h1.13v.949c.404-.689 1.288-1.105 2.159-1.105m-.104 5.317c1.118 0 2.002-.884 2.002-2.106 0-1.209-.884-2.145-2.002-2.145-1.08 0-2.054.845-2.054 2.145a2.076 2.076 0 0 0 2.054 2.106m5.855-.78 3.523-4.381h1.014V370h-1.131v-4.407L45.537 370h-.962v-6.071h1.131zM57 364.878v-.949h1.132V370H57v-1.079c-.402.728-1.247 1.235-2.222 1.235-1.587 0-2.978-1.339-2.978-3.198 0-1.794 1.313-3.185 3.03-3.185.91 0 1.767.39 2.17 1.105m-2.053 4.212c1.078 0 2.053-.897 2.053-2.132 0-1.248-1.052-2.119-2.066-2.119-1.105 0-1.99.975-1.99 2.119 0 1.157.885 2.132 2.002 2.132m8.455-5.317c1.664 0 3.042 1.287 3.042 3.198 0 1.924-1.365 3.185-3.029 3.185-.91 0-1.768-.39-2.171-1.105v3.9h-1.131v-9.022h1.131v.949c.403-.689 1.287-1.105 2.158-1.105m-.104 5.317c1.118 0 2.002-.884 2.002-2.106 0-1.209-.884-2.145-2.002-2.145-1.079 0-2.054.845-2.054 2.145a2.076 2.076 0 0 0 2.054 2.106m11.523-.156v-5.005h1.131V370h-7.93v-6.071h1.131v5.005h2.262v-5.005h1.144v5.005zm4.235-.624 3.523-4.381h1.014V370h-1.131v-4.407L78.888 370h-.962v-6.071h1.13zm12.244-1.365c0 .169-.013.338-.026.507h-4.94c.17 1.079.95 1.638 1.99 1.638.74 0 1.416-.338 1.767-.949l.975.39c-.52 1.053-1.612 1.625-2.782 1.625-1.729 0-3.12-1.287-3.12-3.211s1.391-3.172 3.12-3.172 3.016 1.248 3.016 3.172m-4.953-.468h3.822c-.143-1.04-.884-1.638-1.885-1.638-1.027 0-1.755.546-1.937 1.638M96.131 370v-6.071h5.577V370h-1.131v-5.005h-3.315V370zm10.842-6.227c1.664 0 3.042 1.287 3.042 3.198 0 1.924-1.365 3.185-3.029 3.185-.91 0-1.768-.39-2.171-1.105v3.9h-1.131v-9.022h1.131v.949c.403-.689 1.287-1.105 2.158-1.105m-.104 5.317c1.118 0 2.002-.884 2.002-2.106 0-1.209-.884-2.145-2.002-2.145-1.079 0-2.054.845-2.054 2.145a2.076 2.076 0 0 0 2.054 2.106m6.86-.689 1.859-4.472h1.222l-3.77 9.022h-1.196l1.274-3.133-2.444-5.889h1.222zm9.174-4.472v5.005h.546v2.834h-1.144V370h-4.251v1.768h-1.131v-2.652h.312c.689 0 .923-.585 1.131-2.002l.468-3.185zm-1.131 1.066h-1.911l-.364 2.366c-.091.637-.182 1.235-.507 1.573h2.782zm4.422 1.131h1.859c1.495 0 2.093.897 2.093 1.911 0 .975-.585 1.963-2.028 1.963h-3.055v-6.071h1.131zm4.615 3.874v-6.071h1.131V370zm-4.615-1.066h1.742c.741 0 1.066-.377 1.066-.884 0-.494-.325-.858-1.066-.858h-1.742z"/><path fill="#EDEDED" d="m53.473 382.694 2.898-1.3h.04V390h-1.132v-6.955l-1.807.741zm8.015 7.462c-2.444 0-3.08-1.989-3.08-4.381 0-2.418.636-4.381 3.08-4.381s3.081 1.963 3.081 4.381c0 2.392-.637 4.381-3.08 4.381m0-1.066c1.56 0 1.95-1.547 1.95-3.315 0-1.794-.39-3.302-1.95-3.302s-1.937 1.508-1.937 3.302c0 1.768.377 3.315 1.937 3.315m14.843-5.161.832 6.071h-1.079l-.559-4.056-1.898 3.367h-.858l-1.898-3.354L70.3 390h-1.066l.82-6.071h.818l2.327 4.186 2.301-4.186zm3.563 4.381 3.523-4.381h1.014V390h-1.13v-4.407L79.724 390h-.962v-6.071h1.131zm10.958-1.846v-2.535h1.131V390h-1.131v-2.522h-3.315V390h-1.131v-6.071h1.131v2.535z"/><path fill="#171726" d="m247.309 12.75 11.258-1.5-6.928 12z"/><path fill="#171726" d="M280.691 8.93c9.566 5.522 12.844 17.754 7.321 27.32s-17.755 12.843-27.321 7.32-12.843-17.754-7.32-27.32 17.754-12.844 27.32-7.32"/><path fill="#EDEDED" d="M280.375 35h-19.429a.28.28 0 0 1-.202-.086.3.3 0 0 1 0-.417.28.28 0 0 1 .202-.087h19.429a.28.28 0 0 1 .202.087.3.3 0 0 1 0 .417.28.28 0 0 1-.202.086"/><path fill="#EDEDED" d="M277.137 35a.28.28 0 0 1-.202-.086.3.3 0 0 1-.083-.209v-6.527c0-.078.03-.153.083-.209a.28.28 0 0 1 .404 0 .3.3 0 0 1 .084.209v6.527c0 .078-.03.153-.084.209a.28.28 0 0 1-.202.086"/><path fill="#EDEDED" d="M277.138 28.472c-.278 0-.551-.085-.782-.245a1.45 1.45 0 0 1-.519-.653 1.49 1.49 0 0 1 .305-1.585c.197-.204.448-.342.722-.399s.556-.027.813.083c.258.11.478.297.633.536a1.495 1.495 0 0 1-.176 1.837 1.4 1.4 0 0 1-.996.426m0-2.32a.8.8 0 0 0-.465.146.86.86 0 0 0-.308.388.88.88 0 0 0 .181.942.815.815 0 0 0 .913.187.84.84 0 0 0 .375-.317.886.886 0 0 0-.104-1.092.82.82 0 0 0-.592-.253M264.309 35a.28.28 0 0 1-.202-.086.3.3 0 0 1-.084-.21v-6.526c0-.078.031-.153.084-.209a.28.28 0 0 1 .404 0 .3.3 0 0 1 .084.209v6.527c0 .078-.03.153-.084.209a.28.28 0 0 1-.202.086"/><path fill="#EDEDED" d="M264.309 28.472c-.279 0-.551-.085-.783-.245a1.45 1.45 0 0 1-.518-.653 1.5 1.5 0 0 1-.081-.84c.055-.283.189-.542.386-.745.197-.204.448-.342.721-.399s.557-.027.814.083.477.297.632.536a1.49 1.49 0 0 1-.175 1.837 1.4 1.4 0 0 1-.996.426m0-2.32a.8.8 0 0 0-.465.146.85.85 0 0 0-.308.388.89.89 0 0 0 .181.943.83.83 0 0 0 .429.236c.162.034.33.016.483-.049a.85.85 0 0 0 .376-.318.885.885 0 0 0-.104-1.092.82.82 0 0 0-.592-.253"/><path fill="#EDEDED" d="M270.736 30.624q-2.932 0-5.861-2.5a.304.304 0 0 1-.015-.39.3.3 0 0 1 .175-.104.28.28 0 0 1 .197.04c3.715 3.172 7.295 3.172 10.995 0a.28.28 0 0 1 .388.051.3.3 0 0 1-.025.403c-1.929 1.667-3.897 2.5-5.854 2.5m9.64.003a.28.28 0 0 1-.183-.068l-2.674-2.317a.3.3 0 0 1-.035-.416.28.28 0 0 1 .403-.035l2.666 2.313q.069.06.093.149a.3.3 0 0 1-.108.318.3.3 0 0 1-.162.056m-19.372.132a.28.28 0 0 1-.209-.094.3.3 0 0 1-.076-.213.3.3 0 0 1 .093-.206l2.635-2.514a.28.28 0 0 1 .402.015.3.3 0 0 1 .078.212.3.3 0 0 1-.092.207l-2.637 2.514a.28.28 0 0 1-.194.08m14.709-6.087H265.61a.28.28 0 0 1-.202-.087.3.3 0 0 1-.084-.208v-7.082c0-.078.03-.153.084-.209a.28.28 0 0 1 .202-.086h10.103c.076 0 .148.031.202.086a.3.3 0 0 1 .084.21v7.08a.3.3 0 0 1-.084.21.28.28 0 0 1-.202.086m-9.818-.59h9.532V17.59h-9.532z"/><path fill="#EDEDED" d="M275.714 23.49a.28.28 0 0 1-.189-.073l-3.049-2.785-1.648 1.372a.28.28 0 0 1-.403-.045.3.3 0 0 1 .043-.416l1.837-1.528a.28.28 0 0 1 .369 0l3.228 2.95a.3.3 0 0 1 .026.417.28.28 0 0 1-.214.11"/><path fill="#EDEDED" d="M272.187 23.492a.28.28 0 0 1-.188-.074l-3.323-3.07-2.872 2.769a.28.28 0 0 1-.314.053.3.3 0 0 1-.149-.165.3.3 0 0 1 .007-.225.3.3 0 0 1 .065-.094l3.063-2.95a.28.28 0 0 1 .385 0l3.515 3.24a.302.302 0 0 1-.028.464.3.3 0 0 1-.164.051zm-1.466-3.412a.93.93 0 0 1-.527-.163.97.97 0 0 1-.351-.44 1 1 0 0 1-.055-.566 1 1 0 0 1 .259-.502.92.92 0 0 1 1.034-.214c.173.074.322.2.426.361a1.005 1.005 0 0 1-.117 1.236.93.93 0 0 1-.669.288m0-1.366a.37.37 0 0 0-.21.065.396.396 0 0 0 .135.707.37.37 0 0 0 .218-.023.398.398 0 0 0 .001-.72.4.4 0 0 0-.144-.029"/><path fill="#E9D9BD" d="M193.306 58.043 194.411 67h-1.157l-.832-6.825-2.847 5.85h-1.027l-2.873-5.85-.819 6.825h-1.157l1.092-8.957h1.066l3.198 6.643 3.185-6.643zm4.963 7.358 1.859-4.472h1.222l-3.77 9.022h-1.196l1.274-3.133-2.444-5.889h1.222zm7.474-1.56c.637.182 1.131.78 1.131 1.508 0 1.222-1.183 1.807-2.743 1.807-.806 0-1.69-.182-2.197-.442l.325-1.04c.572.26 1.313.416 1.859.416.806 0 1.625-.299 1.625-.923 0-.533-.559-.832-1.469-.832h-1.209v-.858h1.001c.936 0 1.3-.39 1.3-.845 0-.598-.637-.793-1.274-.793-.546 0-1.209.143-1.703.364l-.351-.962c.598-.286 1.534-.468 2.21-.468 1.456 0 2.249.806 2.249 1.768 0 .494-.299 1.027-.754 1.3m8.412.104c0 .169-.013.338-.026.507h-4.94c.169 1.079.949 1.638 1.989 1.638.741 0 1.417-.338 1.768-.949l.975.39c-.52 1.053-1.612 1.625-2.782 1.625-1.729 0-3.12-1.287-3.12-3.211s1.391-3.172 3.12-3.172 3.016 1.248 3.016 3.172m-4.953-.468h3.822c-.143-1.04-.884-1.638-1.885-1.638-1.027 0-1.755.546-1.937 1.638m8.887-3.653c-1.014 0-1.677-.663-1.677-1.664h.936c0 .468.286.793.741.793.442 0 .728-.325.728-.793h.962c0 1.001-.676 1.664-1.69 1.664m-1.261 5.486 3.523-4.381h1.014V67h-1.131v-4.407L216.659 67h-.962v-6.071h1.131zm12.633 1.846c-1.742 0-3.263-1.274-3.263-3.198s1.521-3.185 3.263-3.185c.949 0 1.781.377 2.314.962l-.715.741a2.14 2.14 0 0 0-1.56-.637c-1.196 0-2.158.871-2.158 2.119s.962 2.132 2.158 2.132c.637 0 1.183-.247 1.56-.637l.715.741c-.533.598-1.365.962-2.314.962m6.346 0c-1.729 0-3.172-1.274-3.172-3.198s1.443-3.185 3.172-3.185 3.185 1.261 3.185 3.185-1.456 3.198-3.185 3.198m0-1.066c1.118 0 2.054-.871 2.054-2.132 0-1.248-.936-2.119-2.054-2.119-1.105 0-2.028.871-2.028 2.119 0 1.261.923 2.132 2.028 2.132M245 63.763c.767.156 1.079.845 1.079 1.508 0 .832-.624 1.729-1.976 1.729h-3.536v-6.071h3.328c1.118 0 1.846.65 1.846 1.56 0 .455-.13 1.053-.741 1.274m-.39-1.066c0-.416-.26-.702-.767-.702h-2.145v1.391h2.171c.468 0 .741-.247.741-.689m-2.912 3.237h2.288c.663 0 .962-.351.962-.78 0-.442-.299-.819-.962-.819h-2.288zm9.255-5.161c1.664 0 3.042 1.287 3.042 3.198 0 1.924-1.365 3.185-3.029 3.185-.91 0-1.768-.39-2.171-1.105v3.9h-1.131v-9.022h1.131v.949c.403-.689 1.287-1.105 2.158-1.105m-.104 5.317c1.118 0 2.002-.884 2.002-2.106 0-1.209-.884-2.145-2.002-2.145-1.079 0-2.054.845-2.054 2.145a2.076 2.076 0 0 0 2.054 2.106m10.457-2.145c0 .169-.013.338-.026.507h-4.94c.169 1.079.949 1.638 1.989 1.638.741 0 1.417-.338 1.768-.949l.975.39c-.52 1.053-1.612 1.625-2.782 1.625-1.729 0-3.12-1.287-3.12-3.211s1.391-3.172 3.12-3.172 3.016 1.248 3.016 3.172m-4.953-.468h3.822c-.143-1.04-.884-1.638-1.885-1.638-1.027 0-1.755.546-1.937 1.638m13.228-2.548.832 6.071h-1.079l-.559-4.056-1.898 3.367h-.858l-1.898-3.354-.572 4.043h-1.066l.819-6.071h.819l2.327 4.186 2.301-4.186zm8.165 3.016c0 .169-.013.338-.026.507h-4.94c.169 1.079.949 1.638 1.989 1.638.741 0 1.417-.338 1.768-.949l.975.39c-.52 1.053-1.612 1.625-2.782 1.625-1.729 0-3.12-1.287-3.12-3.211s1.391-3.172 3.12-3.172 3.016 1.248 3.016 3.172m-4.953-.468h3.822c-.143-1.04-.884-1.638-1.885-1.638-1.027 0-1.755.546-1.937 1.638m10.941-.013v-2.535h1.131V67h-1.131v-2.522h-3.315V67h-1.131v-6.071h1.131v2.535zm7.553 0v-2.535h1.131V67h-1.131v-2.522h-3.315V67h-1.131v-6.071h1.131v2.535zm5.864 3.692c-1.729 0-3.172-1.274-3.172-3.198s1.443-3.185 3.172-3.185 3.185 1.261 3.185 3.185-1.456 3.198-3.185 3.198m0-1.066c1.118 0 2.054-.871 2.054-2.132 0-1.248-.936-2.119-2.054-2.119-1.105 0-2.028.871-2.028 2.119 0 1.261.923 2.132 2.028 2.132m7.152-6.266c-1.014 0-1.677-.663-1.677-1.664h.936c0 .468.286.793.741.793.442 0 .728-.325.728-.793h.962c0 1.001-.676 1.664-1.69 1.664m-1.261 5.486 3.523-4.381h1.014V67h-1.131v-4.407L302.873 67h-.962v-6.071h1.131zm10.93 0 3.523-4.381h1.014V67h-1.131v-4.407L313.803 67h-.962v-6.071h1.131zm9.346 1.846c-1.742 0-3.263-1.274-3.263-3.198s1.521-3.185 3.263-3.185c.949 0 1.781.377 2.314.962l-.715.741a2.14 2.14 0 0 0-1.56-.637c-1.196 0-2.158.871-2.158 2.119s.962 2.132 2.158 2.132c.637 0 1.183-.247 1.56-.637l.715.741c-.533.598-1.365.962-2.314.962m3.04-6.227h5.148v1.066h-2.002V67h-1.131v-5.005h-2.015zm9.006 6.227c-1.729 0-3.172-1.274-3.172-3.198s1.443-3.185 3.172-3.185 3.185 1.261 3.185 3.185-1.456 3.198-3.185 3.198m0-1.066c1.118 0 2.054-.871 2.054-2.132 0-1.248-.936-2.119-2.054-2.119-1.105 0-2.028.871-2.028 2.119 0 1.261.923 2.132 2.028 2.132m8.048-5.317c1.664 0 3.042 1.287 3.042 3.198 0 1.924-1.365 3.185-3.029 3.185-.91 0-1.768-.39-2.171-1.105v3.9h-1.131v-9.022h1.131v.949c.403-.689 1.287-1.105 2.158-1.105m-.104 5.317c1.118 0 2.002-.884 2.002-2.106 0-1.209-.884-2.145-2.002-2.145-1.079 0-2.054.845-2.054 2.145a2.076 2.076 0 0 0 2.054 2.106m5.856-.78 3.523-4.381h1.014V67h-1.131v-4.407L348.995 67h-.962v-6.071h1.131zm7.642 0 3.523-4.381h1.014V67h-1.131v-4.407L356.637 67h-.962v-6.071h1.131z"/><path fill="#EDEDED" d="M259.007 81.527c1.729 0 2.912 1.326 2.912 2.808 0 1.443-1.157 2.821-3.016 2.821-2.093 0-3.159-1.443-3.159-4.134 0-2.002.78-4.628 3.471-4.628.975 0 2.041.351 2.613 1.729l-1.027.416c-.351-.793-.975-1.066-1.612-1.066-1.313 0-2.301 1.469-2.21 3.133a2.42 2.42 0 0 1 2.028-1.079m-.169 4.55c1.092 0 1.898-.78 1.898-1.768 0-.949-.754-1.677-1.768-1.716-1.053 0-1.924.676-1.976 1.638 0 1.04.806 1.82 1.846 1.846m14.793-5.148.832 6.071h-1.079l-.559-4.056-1.898 3.367h-.858l-1.898-3.354-.572 4.043h-1.066l.819-6.071h.819l2.327 4.186 2.301-4.186zm3.563 4.381 3.523-4.381h1.014V87H280.6v-4.407L277.025 87h-.962v-6.071h1.131zm10.958-1.846v-2.535h1.131V87h-1.131v-2.522h-3.315V87h-1.131v-6.071h1.131v2.535z"/><path fill="#171726" d="m1713.21 32.418-6.9 9.022-3.58-13.385z"/><path fill="#171726" d="M1692.31 58.725c-10.67 2.859-21.64-3.473-24.5-14.142-2.85-10.67 3.48-21.636 14.15-24.495s21.63 3.473 24.49 14.142-3.47 21.636-14.14 24.495"/><path fill="#EDEDED" d="M1681.46 35.544c-.07.14-.11.297-.11.457v.333a.985.985 0 0 0 .66.939v.394c0 .206.07.407.19.575s.28.295.48.364v7.728c-.55 0-1 .448-1 1v1c0 .369.3.667.67.667h9.33c.37 0 .67-.298.67-.666v-1c0-.553-.45-1-1-1v-7.73a.985.985 0 0 0 .66-.939v-.393c.2-.07.37-.196.49-.364.11-.168.18-.37.18-.575V36a.9.9 0 0 0-.12-.456 3.325 3.325 0 0 0 2.42-3.659 3.324 3.324 0 0 0-3.3-2.885h-9.33a3.34 3.34 0 0 0-3.31 2.885 3.334 3.334 0 0 0 2.42 3.66m10.22 11.79v1h-9.33v-1c0-.184.14-.333.33-.333h8.67c.18 0 .33.15.33.334m-8.33-1v-7.667h7.33v7.667zm8-8.667c0 .184-.15.334-.34.334h-8c-.18 0-.33-.15-.33-.334v-.333h8.67zm.66-1.667v.334c0 .184-.15.333-.33.333h-9.33c-.19 0-.34-.15-.34-.333V36c0-.184.15-.333.34-.333h9.33c.18 0 .33.15.33.333m-9.66-6.333h9.33c1.22 0 2.29.832 2.59 2.019a2.675 2.675 0 0 1-1.33 3 2.668 2.668 0 0 1-3.48-3.833.3.3 0 0 0 .05-.122c.01-.043.01-.087.01-.13a.5.5 0 0 0-.05-.122.4.4 0 0 0-.1-.093.25.25 0 0 0-.12-.05.33.33 0 0 0-.25.052.25.25 0 0 0-.09.093 3.325 3.325 0 0 0 .78 4.52h-5.35a3.335 3.335 0 0 0 .78-4.52.335.335 0 0 0-.46-.086.35.35 0 0 0-.14.21c-.02.085 0 .174.04.247a2.67 2.67 0 0 1-.24 3.272 2.66 2.66 0 0 1-3.23.561 2.667 2.667 0 0 1 1.26-5.019"/><path fill="#EDEDED" d="M1682.34 34.002a1.67 1.67 0 0 0 1.67-1.667.335.335 0 0 0-.67 0c0 .552-.44 1-1 1a1.001 1.001 0 0 1 0-2c.19 0 .34-.15.34-.334a.335.335 0 0 0-.34-.333c-.92 0-1.66.746-1.66 1.667 0 .92.74 1.666 1.66 1.666m9.34 0c.92 0 1.67-.747 1.67-1.667s-.75-1.667-1.67-1.667c-.19 0-.33.15-.33.333s.14.334.33.334a1.001 1.001 0 1 1-1 1 .335.335 0 0 0-.67 0c0 .92.75 1.665 1.67 1.666m-6.67 5.667c-.18 0-.33.149-.33.333v5.334c0 .184.15.333.33.333.19 0 .33-.15.33-.333V40a.327.327 0 0 0-.33-.333m2 0c-.18 0-.33.149-.33.333v5.334c0 .184.15.333.33.333.19 0 .33-.15.33-.333V40a.327.327 0 0 0-.33-.333m2 0c-.18 0-.33.149-.33.333v5.334c0 .184.15.333.33.333.19 0 .33-.15.33-.333V40a.327.327 0 0 0-.33-.333"/><path fill="#E9D9BD" d="M1650.36 81v-8.957h6.55V81h-1.18v-7.891h-4.19V81zm13.42-5.122v-.949h1.13V81h-1.13v-1.079c-.4.728-1.25 1.235-2.22 1.235-1.59 0-2.98-1.339-2.98-3.198 0-1.794 1.31-3.185 3.03-3.185.91 0 1.77.39 2.17 1.105m-2.05 4.212c1.08 0 2.05-.897 2.05-2.132 0-1.248-1.05-2.119-2.07-2.119-1.1 0-1.99.975-1.99 2.119 0 1.157.89 2.132 2.01 2.132m11.9-5.161.83 6.071h-1.08l-.56-4.056-1.9 3.367h-.86l-1.89-3.354-.58 4.043h-1.06l.82-6.071h.82l2.32 4.186 2.3-4.186zm4.13 0h3.34V81h-1.14v-2.21h-1.39l-1.59 2.21h-1.34l1.69-2.249c-1.13-.182-1.62-.988-1.62-1.885 0-.975.62-1.937 2.05-1.937m.22 2.886h1.98v-1.82h-2.09c-.67 0-1.02.39-1.02.897 0 .52.35.923 1.13.923m4.38-2.886h5.15v1.066h-2V81h-1.13v-5.005h-2.02zm10.88 2.535v-2.535h1.13V81h-1.13v-2.522h-3.32V81h-1.13v-6.071h1.13v2.535zm4.24 1.846 3.52-4.381h1.01V81h-1.13v-4.407L1697.31 81h-.96v-6.071h1.13zm12.09 1.69h-1.4l-2-2.535h-1.05V81h-1.13v-6.071h1.13v2.535h1.13l1.69-2.535h1.26l-2.03 3.042zm11.5 0h-1.24l-.87-2.301h-3.85l-.87 2.301h-1.23l3.4-8.957h1.25zm-4.03-7.41-1.54 4.069h3.07zm5.62 7.54c-.44 0-.81-.325-.81-.78 0-.468.37-.806.81-.806.46 0 .85.338.85.806 0 .455-.39.78-.85.78m6.78.026c-2.54 0-4.55-2.08-4.55-4.615s2.01-4.654 4.55-4.654c1.38 0 2.57.585 3.37 1.521l-.86.728a3.31 3.31 0 0 0-2.51-1.157c-1.89 0-3.37 1.638-3.37 3.562 0 1.911 1.48 3.523 3.37 3.523 1 0 1.91-.455 2.51-1.157l.86.728c-.8.936-1.99 1.521-3.37 1.521m5.36-.026c-.44 0-.82-.325-.82-.78 0-.468.38-.806.82-.806.46 0 .85.338.85.806 0 .455-.39.78-.85.78M1667.1 97v-8.957h6.55V97h-1.18v-7.891h-4.19V97zm11.01-1.599 1.85-4.472h1.23l-3.77 9.022h-1.2l1.27-3.133-2.44-5.889h1.22zm11.03.533v-5.005h1.13V97h-7.93v-6.071h1.13v5.005h2.27v-5.005h1.14v5.005zm8.68 1.066h-1.39l-2-2.535h-1.05V97h-1.13v-6.071h1.13v2.535h1.13l1.69-2.535h1.26l-2.03 3.042zm2.23-1.69 3.53-4.381h1.01V97h-1.13v-4.407L1699.88 97h-.96v-6.071h1.13zm10.96-1.846v-2.535h1.13V97h-1.13v-2.522h-3.31V97h-1.13v-6.071h1.13v2.535zm5.4 1.937 1.86-4.472h1.22l-3.77 9.022h-1.2l1.28-3.133-2.45-5.889h1.22z"/><path fill="#EDEDED" d="M1680.16 112.437c.89.286 1.48 1.079 1.48 2.08 0 1.56-1.22 2.639-2.95 2.639-1.21 0-2.23-.663-2.74-1.768l.92-.533c.39.767 1.06 1.235 1.78 1.235 1.07 0 1.85-.637 1.85-1.534 0-.962-.75-1.599-1.81-1.599h-.88v-.975h.81c.89 0 1.48-.533 1.48-1.3 0-.728-.55-1.209-1.37-1.209-.58 0-1.18.312-1.51.806l-.79-.65c.44-.741 1.37-1.235 2.33-1.235 1.48 0 2.47.897 2.47 2.262 0 .806-.4 1.469-1.07 1.781m13.18-1.508.83 6.071h-1.08l-.56-4.056-1.9 3.367h-.86l-1.89-3.354-.58 4.043h-1.06l.82-6.071h.82l2.32 4.186 2.3-4.186zm3.56 4.381 3.52-4.381h1.02V117h-1.13v-4.407l-3.58 4.407h-.96v-6.071h1.13zm10.96-1.846v-2.535h1.13V117h-1.13v-2.522h-3.32V117h-1.13v-6.071h1.13v2.535z"/><path fill="#171726" d="m934.211 62-6.928-9h13.856z"/><path fill="#171726" d="M914.211 35c0-11.046 8.954-20 20-20s20 8.954 20 20-8.954 20-20 20-20-8.954-20-20"/><path fill="#EDEDED" d="m934.221 40 3.239-5.21 1.358 3.545h-1.086v1.54h6.479v-1.54h-1.222L938.314 27l-4.093 6.966L930.108 27l-4.656 11.335h-1.241v1.54h6.498v-1.54h-1.086l1.339-3.546z"/><path fill="#E9D9BD" d="M906.395 72.043h6.643v1.092h-2.73V81h-1.183v-7.865h-2.73zm11.115 5.72c.767.156 1.079.845 1.079 1.508 0 .832-.624 1.729-1.976 1.729h-3.536v-6.071h3.328c1.118 0 1.846.65 1.846 1.56 0 .455-.13 1.053-.741 1.274m-.39-1.066c0-.416-.26-.702-.767-.702h-2.145v1.391h2.171c.468 0 .741-.247.741-.689m-2.912 3.237h2.288c.663 0 .962-.351.962-.78 0-.442-.299-.819-.962-.819h-2.288zm11.699-1.989c0 .169-.013.338-.026.507h-4.94c.169 1.079.949 1.638 1.989 1.638.741 0 1.417-.338 1.768-.949l.975.39c-.52 1.053-1.612 1.625-2.782 1.625-1.729 0-3.12-1.287-3.12-3.211s1.391-3.172 3.12-3.172 3.016 1.248 3.016 3.172m-4.953-.468h3.822c-.143-1.04-.884-1.638-1.885-1.638-1.027 0-1.755.546-1.937 1.638m9.783-2.704c1.664 0 3.042 1.287 3.042 3.198 0 1.924-1.365 3.185-3.029 3.185-.91 0-1.768-.39-2.171-1.105v3.9h-1.131v-9.022h1.131v.949c.403-.689 1.287-1.105 2.158-1.105m-.104 5.317c1.118 0 2.002-.884 2.002-2.106 0-1.209-.884-2.145-2.002-2.145-1.079 0-2.054.845-2.054 2.145a2.076 2.076 0 0 0 2.054 2.106m7.559 1.066c-1.742 0-3.263-1.274-3.263-3.198s1.521-3.185 3.263-3.185c.949 0 1.781.377 2.314.962l-.715.741a2.14 2.14 0 0 0-1.56-.637c-1.196 0-2.158.871-2.158 2.119s.962 2.132 2.158 2.132c.637 0 1.183-.247 1.56-.637l.715.741c-.533.598-1.365.962-2.314.962m9.319-.156h-1.391l-2.002-2.535h-1.053V81h-1.131v-6.071h1.131v2.535h1.131l1.69-2.535h1.261l-2.028 3.042zm5.643-5.122v-.949h1.131V81h-1.131v-1.079c-.403.728-1.248 1.235-2.223 1.235-1.586 0-2.977-1.339-2.977-3.198 0-1.794 1.313-3.185 3.029-3.185.91 0 1.768.39 2.171 1.105M951.1 80.09c1.079 0 2.054-.897 2.054-2.132 0-1.248-1.053-2.119-2.067-2.119-1.105 0-1.989.975-1.989 2.119 0 1.157.884 2.132 2.002 2.132m6.87-5.161h3.341V81h-1.144v-2.21h-1.391L957.19 81h-1.339l1.69-2.249c-1.131-.182-1.625-.988-1.625-1.885 0-.975.624-1.937 2.054-1.937m.221 2.886h1.976v-1.82h-2.093c-.663 0-1.014.39-1.014.897 0 .52.351.923 1.131.923"/><path fill="#EDEDED" d="M924.544 95.54c1.625 0 2.769 1.066 2.769 2.717 0 1.729-1.261 2.899-3.003 2.899-1.469 0-2.548-.819-3.081-1.924l.949-.52c.338.78 1.066 1.378 2.08 1.378 1.105 0 1.924-.741 1.924-1.807s-.845-1.742-1.885-1.742c-.702 0-1.43.299-2.08.78l-.702-.585.741-4.238h4.498v1.079h-3.575l-.481 2.548a3.3 3.3 0 0 1 1.846-.585m14.373-.611.832 6.071h-1.079l-.559-4.056-1.898 3.367h-.858l-1.898-3.354-.572 4.043h-1.066l.819-6.071h.819l2.327 4.186 2.301-4.186zm3.563 4.381 3.523-4.381h1.014V101h-1.131v-4.407L942.311 101h-.962v-6.071h1.131zm10.958-1.846v-2.535h1.131V101h-1.131v-2.522h-3.315V101h-1.131v-6.071h1.131v2.535z"/><path fill="#171726" d="m1429.21 91-6.93-9h13.86z"/><path fill="#171726" d="M1409.21 64c0-11.046 8.96-20 20-20 11.05 0 20 8.954 20 20s-8.95 20-20 20c-11.04 0-20-8.954-20-20"/><path fill="#EDEDED" d="m1429.22 69 3.24-5.21 1.36 3.545h-1.09v1.54h6.48v-1.54h-1.22L1433.31 56l-4.09 6.966-4.11-6.966-4.66 11.335h-1.24v1.54h6.5v-1.54h-1.09l1.34-3.546z"/><path fill="#E9D9BD" d="M1405.9 101.043 1407 110h-1.16l-.83-6.825-2.84 5.85h-1.03l-2.87-5.85-.82 6.825h-1.16l1.09-8.957h1.07l3.2 6.643 3.18-6.643zm5.49 9.113c-1.73 0-3.17-1.274-3.17-3.198s1.44-3.185 3.17-3.185 3.19 1.261 3.19 3.185-1.46 3.198-3.19 3.198m0-1.066c1.12 0 2.06-.871 2.06-2.132 0-1.248-.94-2.119-2.06-2.119-1.1 0-2.03.871-2.03 2.119 0 1.261.93 2.132 2.03 2.132m7.59 1.066c-1.74 0-3.26-1.274-3.26-3.198s1.52-3.185 3.26-3.185c.95 0 1.79.377 2.32.962l-.72.741c-.37-.39-.92-.637-1.56-.637-1.19 0-2.15.871-2.15 2.119s.96 2.132 2.15 2.132c.64 0 1.19-.247 1.56-.637l.72.741c-.53.598-1.37.962-2.32.962m9.32-.156h-1.39l-2-2.535h-1.05V110h-1.13v-6.071h1.13v2.535h1.13l1.69-2.535h1.26l-2.03 3.042zm3.62.156c-1.73 0-3.17-1.274-3.17-3.198s1.44-3.185 3.17-3.185 3.18 1.261 3.18 3.185-1.45 3.198-3.18 3.198m0-1.066c1.12 0 2.05-.871 2.05-2.132 0-1.248-.93-2.119-2.05-2.119-1.11 0-2.03.871-2.03 2.119 0 1.261.92 2.132 2.03 2.132m9.19-2.327c.77.156 1.08.845 1.08 1.508 0 .832-.62 1.729-1.97 1.729h-3.54v-6.071h3.33c1.12 0 1.84.65 1.84 1.56 0 .455-.13 1.053-.74 1.274m-.39-1.066c0-.416-.26-.702-.76-.702h-2.15v1.391h2.17c.47 0 .74-.247.74-.689m-2.91 3.237h2.29c.66 0 .96-.351.96-.78 0-.442-.3-.819-.96-.819h-2.29zm8.8 1.222c-1.74 0-3.26-1.274-3.26-3.198s1.52-3.185 3.26-3.185c.95 0 1.78.377 2.31.962l-.71.741c-.38-.39-.92-.637-1.56-.637-1.2 0-2.16.871-2.16 2.119s.96 2.132 2.16 2.132c.64 0 1.18-.247 1.56-.637l.71.741c-.53.598-1.36.962-2.31.962m9.32-.156h-1.39l-2-2.535h-1.06V110h-1.13v-6.071h1.13v2.535h1.13l1.69-2.535h1.27l-2.03 3.042zm5.64-5.122v-.949h1.13V110h-1.13v-1.079c-.4.728-1.25 1.235-2.22 1.235-1.59 0-2.98-1.339-2.98-3.198 0-1.794 1.32-3.185 3.03-3.185.91 0 1.77.39 2.17 1.105m-2.05 4.212c1.08 0 2.05-.897 2.05-2.132 0-1.248-1.05-2.119-2.06-2.119-1.11 0-1.99.975-1.99 2.119 0 1.157.88 2.132 2 2.132m6.87-5.161h3.34V110h-1.14v-2.21h-1.4l-1.58 2.21h-1.34l1.69-2.249c-1.13-.182-1.63-.988-1.63-1.885 0-.975.63-1.937 2.06-1.937m.22 2.886h1.98v-1.82h-2.1c-.66 0-1.01.39-1.01.897 0 .52.35.923 1.13.923"/><path fill="#EDEDED" d="M1419.54 124.54c1.63 0 2.77 1.066 2.77 2.717 0 1.729-1.26 2.899-3 2.899-1.47 0-2.55-.819-3.08-1.924l.95-.52c.34.78 1.06 1.378 2.08 1.378 1.1 0 1.92-.741 1.92-1.807s-.84-1.742-1.88-1.742c-.7 0-1.43.299-2.08.78l-.7-.585.74-4.238h4.49v1.079h-3.57l-.48 2.548a3.3 3.3 0 0 1 1.84-.585m14.38-.611.83 6.071h-1.08l-.56-4.056-1.9 3.367h-.85l-1.9-3.354-.57 4.043h-1.07l.82-6.071h.82l2.32 4.186 2.31-4.186zm3.56 4.381 3.52-4.381h1.02V130h-1.13v-4.407l-3.58 4.407h-.96v-6.071h1.13zm10.96-1.846v-2.535h1.13V130h-1.13v-2.522h-3.32V130h-1.13v-6.071h1.13v2.535z"/><path fill="#171726" d="m1518.21 281-6.93-9h13.86z"/><path fill="#171726" d="M1498.21 254c0-11.046 8.96-20 20-20 11.05 0 20 8.954 20 20s-8.95 20-20 20c-11.04 0-20-8.954-20-20"/><path fill="#EDEDED" d="m1518.22 259 3.24-5.211 1.36 3.546h-1.09v1.54h6.48v-1.54h-1.22L1522.31 246l-4.09 6.966-4.11-6.966-4.66 11.335h-1.24v1.54h6.5v-1.54h-1.09l1.34-3.546z"/><path fill="#E9D9BD" d="M1494.31 291.043h6.64v1.092h-2.73V300h-1.18v-7.865h-2.73zm11.12 5.72c.76.156 1.08.845 1.08 1.508 0 .832-.63 1.729-1.98 1.729h-3.54v-6.071h3.33c1.12 0 1.85.65 1.85 1.56 0 .455-.13 1.053-.74 1.274m-.39-1.066c0-.416-.26-.702-.77-.702h-2.15v1.391h2.18c.46 0 .74-.247.74-.689m-2.92 3.237h2.29c.67 0 .96-.351.96-.78 0-.442-.29-.819-.96-.819h-2.29zm11.7-1.989c0 .169-.01.338-.02.507h-4.94c.17 1.079.95 1.638 1.99 1.638.74 0 1.41-.338 1.76-.949l.98.39c-.52 1.053-1.61 1.625-2.78 1.625-1.73 0-3.12-1.287-3.12-3.211s1.39-3.172 3.12-3.172 3.01 1.248 3.01 3.172m-4.95-.468h3.82c-.14-1.04-.88-1.638-1.88-1.638-1.03 0-1.76.546-1.94 1.638m9.78-2.704c1.67 0 3.05 1.287 3.05 3.198 0 1.924-1.37 3.185-3.03 3.185-.91 0-1.77-.39-2.17-1.105v3.9h-1.14v-9.022h1.14v.949c.4-.689 1.28-1.105 2.15-1.105m-.1 5.317c1.12 0 2-.884 2-2.106 0-1.209-.88-2.145-2-2.145-1.08 0-2.05.845-2.05 2.145a2.07 2.07 0 0 0 2.05 2.106m7.56 1.066c-1.74 0-3.27-1.274-3.27-3.198s1.53-3.185 3.27-3.185c.95 0 1.78.377 2.31.962l-.71.741a2.16 2.16 0 0 0-1.56-.637c-1.2 0-2.16.871-2.16 2.119s.96 2.132 2.16 2.132c.63 0 1.18-.247 1.56-.637l.71.741c-.53.598-1.36.962-2.31.962m9.32-.156h-1.39l-2.01-2.535h-1.05V300h-1.13v-6.071h1.13v2.535h1.13l1.69-2.535h1.26l-2.03 3.042zm5.64-5.122v-.949h1.13V300h-1.13v-1.079c-.4.728-1.25 1.235-2.22 1.235-1.59 0-2.98-1.339-2.98-3.198 0-1.794 1.31-3.185 3.03-3.185.91 0 1.77.39 2.17 1.105m-2.05 4.212c1.08 0 2.05-.897 2.05-2.132 0-1.248-1.05-2.119-2.07-2.119-1.1 0-1.99.975-1.99 2.119 0 1.157.89 2.132 2.01 2.132m6.87-5.161h3.34V300h-1.15v-2.21h-1.39l-1.58 2.21h-1.34l1.69-2.249c-1.13-.182-1.63-.988-1.63-1.885 0-.975.63-1.937 2.06-1.937m.22 2.886h1.97v-1.82h-2.09c-.66 0-1.01.39-1.01.897 0 .52.35.923 1.13.923"/><path fill="#EDEDED" d="M1508.54 314.54c1.63 0 2.77 1.066 2.77 2.717 0 1.729-1.26 2.899-3 2.899-1.47 0-2.55-.819-3.08-1.924l.95-.52c.34.78 1.06 1.378 2.08 1.378 1.1 0 1.92-.741 1.92-1.807s-.84-1.742-1.88-1.742c-.7 0-1.43.299-2.08.78l-.7-.585.74-4.238h4.49v1.079h-3.57l-.48 2.548a3.3 3.3 0 0 1 1.84-.585m14.38-.611.83 6.071h-1.08l-.56-4.056-1.9 3.367h-.85l-1.9-3.354-.57 4.043h-1.07l.82-6.071h.82l2.32 4.186 2.31-4.186zm3.56 4.381 3.52-4.381h1.02V320h-1.13v-4.407l-3.58 4.407h-.96v-6.071h1.13zm10.96-1.846v-2.535h1.13V320h-1.13v-2.522h-3.32V320h-1.13v-6.071h1.13v2.535z"/></g><defs><clipPath id="a"><path fill="#fff" d="M0 0h1801v800H0z"/></clipPath><clipPath id="b"><path fill="#fff" d="M2.402 0h1798.6v800H2.402z"/></clipPath></defs></svg>