<svg xmlns="http://www.w3.org/2000/svg" width="355" height="456" fill="none" viewBox="0 0 355 456"><g clip-path="url(#a)"><path fill="#3F3F69" d="M2 0h353v456H2z"/><path fill="#2C2C49" fill-rule="evenodd" d="M354.999-.094h-47.132l-56.608 58.368c-2.3 2.367-2.624 6.62-.74 9.5.134.207.281.399.434.59l34.174 40.999c1.034 1.241 2.373 1.877 3.724 1.877 1.076 0 2.158-.406 3.094-1.226l23.694-20.817 39.36-38.094zM183.245 27.833c.526-.69 1.235-1.042 1.944-1.042h.006c.667 0 1.339.306 1.859.935l40.136 48.147c.96 1.156 1.107 3.018.337 4.382l-43.64 77.484-.966 1.709-7.381 13.048-22.789 40.278a2 2 0 0 1-.116.222c-.238.383-.599.582-.96.582a1.07 1.07 0 0 1-.758-.329l-4.329-4.36-5.033-5.141-4.983-5.21-2.837-2.995-5.094-5.042-3.087-3.333L99.707 159.8l-13.336-14.121a3 3 0 0 1-.354-.452c-.936-1.44-.765-3.57.391-4.742l21.585-21.967 38.901-40.93c3.638-3.455 6.952-7.408 9.875-11.798l9.349-15.079 17.108-22.855zm44.005 66.62c.526-.705 1.241-1.065 1.963-1.065l-.007-.023c.661 0 1.321.299 1.841.912l29.387 34.516c.966 1.134 1.131 2.973.397 4.344l-30.579 57.119-4.568 8.535-29.239 54.407c-.863 1.494-2.22 2.291-3.59 2.291-.862 0-1.736-.314-2.507-.973l-33.33-34.172c-.532-.682-.569-1.755-.08-2.482l17.824-31.552 5.864-10.588 6.298-10.98 1.993-3.478L227.03 94.79c.067-.115.14-.23.22-.337M148.771 227.53c.642-.659 1.425-.989 2.214-.989l.012.008c.728 0 1.461.284 2.079.858l1.969 1.755 1.455 1.463 1.449 1.471 1.443 1.479 3.559 3.785 5.002 5.271 5.595 5.77 1.577 1.716 5.644 6.122 2.831 3.049 4.054 4.252 1.627 1.694.024.23.183 1.509-.348.697-6.096 12.006-6.965 13.255-5.76 11.301-5.9 11.761-4.525 9.309-3.565 7.555-4.549 10.075-2.978 6.812-1.92 4.397-18.001 41.206-17.402 40.37c-.49 1.126-1.413 1.77-2.373 1.77-.416 0-.838-.123-1.229-.376l-19.542-12.604a9 9 0 0 0-3.583-1.156l-15.47-.644c-1.853-.031-3.65-.743-5.173-2.053l-15.177-14.282c-.764-.651-1.632-.973-2.525-.973s-1.785.329-2.556.996c-.77.667-1.675 1.004-2.556 1.004-.88 0-1.76-.322-2.525-.973l-7.289-9.172c-1.002-1.264-1.045-3.286-.104-4.62l31.075-43.887 23.162-32.708 6.145-8.681 3.014-4.252 13.556-19.047 7.638-10.704 8.982-12.519 17.115-24.028 6.444-8.926zm124.231-95.413c-.104 0-.202 0-.306.023-.807.115-1.498.636-1.944 1.487l-12.341 23.23-.608 1.145-.153.288-.051.096-.05.095-.45.847-.026.049q-9.587 18.045-19.169 36.088l.202.184-.202-.176-.017.034-.01.019-.023.043-.005.011-2.511 4.729-2.521 4.749q-4.347 8.125-8.683 16.25-3.057 5.742-6.108 11.492t-6.109 11.494q-2.17 4.068-4.342 8.135c-2.765 5.178-5.532 10.358-8.285 15.548-1.956 3.684-3.903 7.376-5.85 11.067l-.003.006-.004.007-.003.006-.003.006-.004.007-.003.006-.003.006q-2.49 4.723-4.986 9.437l-1.74 3.285-.003.005-.002.005-.003.005-.002.005-.003.004c-1.85 3.492-3.7 6.983-5.536 10.483-3.675 6.995-7.288 14.044-10.774 21.192a668 668 0 0 0-7.374 15.661c-2.482 5.463-4.91 10.964-7.331 16.465-6.634 14.849-13.269 29.698-19.903 44.538q-6.011 13.954-12.024 27.904-6.017 13.958-12.031 27.921h44.416l6.991-15.889.069-.157 6.906-15.697q11.439-26.009 22.887-52.016a1977477 1977477 0 0 0 75.964-172.654l.124-.282.186-.422 1.822-4.136 9.087-20.656.086-.194 8.901-20.233c.612-1.394.422-2.965-.495-4.068q-4.628-5.547-9.253-11.099l-4.535-5.443c-.508-.613-1.156-.935-1.853-.935zm70.337 231.264 11.66-18.196v110.812h-58.076l-.024-.038-7.436-12.067c-.795-1.287-.746-3.096.116-4.306l17.347-24.441zM53.219 121.177c-.514 0-1.033.184-1.486.56L-.32 164.865v75.614l16.387-15.331 22.838-21.867 44.318-45.894c1.15-1.188 1.309-3.31.361-4.75a2.4 2.4 0 0 0-.33-.414l-3.13-3.348-25.162-26.886c-.502-.536-1.125-.804-1.75-.804zM-.321 444.813v-64.635l5.638 9.485a51 51 0 0 0 4.305 5.655l6.176 6.826c.996 1.103 1.198 2.958.477 4.36a46 46 0 0 0-1.095 2.275zm88.369-286.415c-.612 0-1.217.261-1.719.774L40.826 206.3l-22.9 21.928L-.32 245.283v124.398l9.575 16.105a43.5 43.5 0 0 0 3.7 4.85l5.876 6.497c.513.567 1.15.843 1.779.843.74 0 1.48-.383 2.012-1.127l8.554-12.013 23.083-32.31 4.536-6.352 3.908-5.47 14.186-19.852 14.57-20.396 54.488-76.626.373-.544c.746-1.226.623-2.965-.288-4.007l-1.333-1.609-2.751-3.095-2.831-2.981-5.699-5.907-8.194-8.65-5.423-5.8-1.792-1.916-13.843-14.795-7.466-7.976-6.885-7.355c-.502-.536-1.125-.804-1.749-.804zm233.052 75.2 33.899 58.789h-.006v44.178l-14.957 23.346-36.339 51.656-16.16 22.771a3 3 0 0 1-.349.406c-.495.483-1.082.72-1.663.72-.795 0-1.584-.444-2.116-1.287l-32.487-51.786c-4.671-7.67-4.91-18.228-.593-26.219l27.241-58.237 30.243-53.442 10.712-15.354zm-24.69-73.354c-.545 0-1.089.207-1.566.629-.33.291-.599.674-.788 1.111l-24.557 55.808-92.862 211.06-11.942 27.138h107.476l8.824-12.435c.868-1.218.911-3.041.104-4.329l-33.582-53.533c-5.784-9.462-6.12-22.487-.837-32.402l27.265-58.298 30.475-53.855 11.507-16.504 8.017-11.492.831-1.188c.82-1.18.887-2.912.165-4.183l-26.347-46.132c-.526-.92-1.352-1.41-2.189-1.41zM-.32-.094h164.182l16.021 19.216c1.07 1.28 1.113 3.394.104 4.743l-17.702 23.644-4.739 7.639c-4.005 6.566-9.227 11.807-15.207 15.278l-38.999 41.029-23.406 23.82c-.496.498-1.083.751-1.7.751-.618 0-1.235-.268-1.737-.797l-17.824-18.871c-1.614-1.708-3.607-2.574-5.613-2.574-1.663 0-3.332.597-4.794 1.808L-.32 155.847zm293.055 0h-98.836l42.233 50.66c1.04 1.241 2.379 1.877 3.724 1.877 1.21 0 2.421-.505 3.424-1.54zm35.227 110.254L355 83.987v131.699l-40.833-71.492-5.809-6.965a6.5 6.5 0 0 1-.685-1.003c-1.706-3.05-1.112-7.264 1.321-9.401zm-42.925 337.533c-.575 0-1.156.23-1.645.705a2.7 2.7 0 0 0-.367.429l-5.087 7.172h13.537l-4.31-6.988c-.532-.858-1.327-1.31-2.134-1.31zM25.354 401.156c.526-.651 1.217-.98 1.902-.98v-.008c.69 0 1.381.337 1.907.996l7.105 8.941c1.486 1.41 3.26 2.115 5.033 2.115 1.657 0 3.314-.613 4.745-1.854.11-.1.238-.146.367-.146.11 0 .22.039.318.108l15.133 14.243c2.159 1.877 4.702 2.904 7.325 2.965l15.342.636c.74.084 1.467.314 2.152.689l19.28 12.436.048.03c1.309.889 1.798 2.935 1.089 4.574l-4.348 10.091H-.205l19.175-44.599c1.205-2.667 2.66-5.142 4.342-7.363l1.926-2.72z" clip-rule="evenodd"/></g><path stroke="#E9D9BD" stroke-width="0.677546" d="m158.868 254.854-.938-1.013-.28-.304-.243.335-9.676 13.365-6.187-6.433-.261-.271-.242.287-1.437 1.703-5.071-4.991 14.651-19.432c.39-.515.919-.761 1.441-.761.438 0 .883.174 1.252.551l.001.001 9.572 9.736.023.023.027.019.745.509.867.894z"/><path fill="#E9D9BD" d="m159.385 262.603 7.368-10.316 18.156 17.218-22.585 40.999-42.203-31.565 9.959-13.443 15.856 11.857 11.346-16.762 2.109 2.012z"/><path fill="#171726" d="M161.408 282h.505l-.574 2.247.668 2.282h-.505l-.697-2.265z"/><path fill="#171726" d="M160.806 282h-.601v4.529h.601zm-3.308 1.601h-.582v-.612c0-.32-.159-.434-.319-.434-.159 0-.319.114-.319.434v.366c0 .663 1.221.886 1.221 1.704v.555c0 .634-.371.915-.902.915s-.901-.292-.901-.915v-.624h.582v.549c0 .32.159.434.319.434.159 0 .319-.114.319-.434v-.36c0-.486-1.221-.886-1.221-1.715v-.549c0-.646.416-.915.902-.915.559 0 .901.257.901.915zm-19.234-1.027h.489v3.955h.524v-3.955h.489V282h-1.502zm5.113 3.192-.359-3.766h-.545l.503 4.529h.803l.497-4.529h-.546zm3.603.763h1.503v-.574h-.943v-1.424h.905v-.574h-.905v-1.383h.943V282h-1.503zm5.921-2.856v-.727c0-.68-.291-.946-.641-.946h-.772v4.529h.463v-1.863h.177l.4 1.863h.463l-.427-1.993c.254-.142.336-.408.336-.863zm-.464-.029c0 .331-.082.449-.254.449h-.232v-1.52h.232c.173 0 .254.119.254.45zM165.346 282c-.536 0-.936.269-.936.915v2.699c0 .646.417.915.907.915s.897-.258.897-.915v-2.699c0-.641-.326-.915-.868-.915m.286 3.539c0 .32-.16.434-.32.434s-.319-.114-.319-.434v-2.55c0-.32.159-.434.319-.434s.32.114.32.434zm4.574-3.539-.388 2.052-.378-2.052h-.518l.639 2.956v1.573h.514v-1.579l.65-2.95zm132.882 16.059-4.677-6.128h9.353z"/><path fill="#171726" d="M289.588 279.676c0-7.521 6.044-13.617 13.5-13.617s13.5 6.096 13.5 13.617c0 7.52-6.044 13.617-13.5 13.617s-13.5-6.097-13.5-13.617"/><path fill="#EDEDED" d="M306.07 279.142a1.36 1.36 0 0 1 1.507.166.251.251 0 0 0 .384-.306.3.3 0 0 0-.062-.076 1.87 1.87 0 0 0-2.057-.228.26.26 0 0 0-.124.146.25.25 0 0 0 .162.314c.063.02.131.014.19-.016m-1.699.488a.26.26 0 0 0 .171-.088.25.25 0 0 0 .058-.182.26.26 0 0 0-.089-.171.3.3 0 0 0-.085-.046q-.048-.015-.098-.01a1.855 1.855 0 0 0-1.622 1.285.24.24 0 0 0-.011.097.2.2 0 0 0 .026.094.25.25 0 0 0 .243.135.26.26 0 0 0 .17-.088.3.3 0 0 0 .047-.086 1.365 1.365 0 0 1 1.19-.94m3.674 1.055a.26.26 0 0 0-.22.019l-.774.474a4.75 4.75 0 0 1-2.429.698l-.907.01a.245.245 0 0 0-.243.204.24.24 0 0 0 .006.114 2.452 2.452 0 0 0 4.769-.231c.07-.374.052-.759-.053-1.125a.25.25 0 0 0-.149-.163m-1.669 2.72a1.96 1.96 0 0 1-2.3-1.024l.55-.006a5.25 5.25 0 0 0 2.686-.772l.468-.286a1.96 1.96 0 0 1-1.404 2.088m-7.676-7.043a.25.25 0 0 0 .161-.059 1.36 1.36 0 0 1 1.507-.165c.059.03.128.035.191.015a.249.249 0 0 0 .037-.459 1.85 1.85 0 0 0-2.056.228.26.26 0 0 0-.081.126.252.252 0 0 0 .242.314z"/><path fill="#EDEDED" d="m309.646 280.472-.978-3.397a1.55 1.55 0 0 0-1.319-1.118 1.6 1.6 0 0 0-.605.051l-1.504.433a1.555 1.555 0 0 0-1.077-1.878l-4.607-1.322a1.55 1.55 0 0 0-1.646.525 1.6 1.6 0 0 0-.278.539l-.977 3.399a4.29 4.29 0 0 0 2.592 5.212l.043.012c.927.18 1.887.049 2.733-.371l.028.097a4.284 4.284 0 0 0 4.962 3.043.2.2 0 0 0 .043-.013 4.29 4.29 0 0 0 2.59-5.212m-10.24 1.97a3.794 3.794 0 0 1-2.271-4.6l.978-3.4a1.05 1.05 0 0 1 .503-.632 1.07 1.07 0 0 1 .803-.09l4.606 1.322q.202.06.367.189a1.06 1.06 0 0 1 .358 1.119l-.073.253-1.176.338a1.86 1.86 0 0 0-1.391-.813.25.25 0 0 0-.18.059.247.247 0 0 0-.031.35c.043.05.103.082.169.088.355.03.684.196.919.464l-.848.243a1.55 1.55 0 0 0-1.028.95 2.125 2.125 0 0 0-3.078 1.272.24.24 0 0 0 .039.218.25.25 0 0 0 .197.1l.773.009a4 4 0 0 1 2.053.589l.397.243.389 1.353a3.8 3.8 0 0 1-2.475.376m1.666-3.186.216.751a4.5 4.5 0 0 0-2.241-.625l-.408-.004a1.62 1.62 0 0 1 1.743-.838c.227.043.442.134.631.267q-.004.229.059.449m5.823 5.955a3.79 3.79 0 0 1-4.366-2.694l-.977-3.399a1.047 1.047 0 0 1 .724-1.306l4.607-1.324a1.04 1.04 0 0 1 .927.172c.183.138.316.331.379.552l.977 3.397a3.794 3.794 0 0 1-2.271 4.602"/><path fill="#E9D9BD" d="M287.662 305.525h6.132v1.008h-2.52v7.26h-1.092v-7.26h-2.52zm11.495 5.448c0 .156-.012.312-.024.468h-4.56c.156.996.876 1.512 1.836 1.512.684 0 1.308-.312 1.632-.876l.9.36c-.48.972-1.488 1.5-2.568 1.5-1.596 0-2.88-1.188-2.88-2.964s1.284-2.928 2.88-2.928 2.784 1.152 2.784 2.928m-4.572-.432h3.528c-.132-.96-.816-1.512-1.74-1.512-.948 0-1.62.504-1.788 1.512m10.411-1.476v-.876h1.044v5.604h-1.044v-.996c-.372.672-1.152 1.14-2.052 1.14-1.464 0-2.748-1.236-2.748-2.952 0-1.656 1.212-2.94 2.796-2.94.84 0 1.632.36 2.004 1.02m-1.896 3.888c.996 0 1.896-.828 1.896-1.968 0-1.152-.972-1.956-1.908-1.956-1.02 0-1.836.9-1.836 1.956 0 1.068.816 1.968 1.848 1.968m4.121-4.764h4.752v.984h-1.848v4.62h-1.044v-4.62h-1.86zm8.969-.144c1.536 0 2.808 1.188 2.808 2.952 0 1.776-1.26 2.94-2.796 2.94-.84 0-1.632-.36-2.004-1.02v3.6h-1.044v-8.328h1.044v.876c.372-.636 1.188-1.02 1.992-1.02m-.096 4.908c1.032 0 1.848-.816 1.848-1.944 0-1.116-.816-1.98-1.848-1.98-.996 0-1.896.78-1.896 1.98 0 1.212.984 1.944 1.896 1.944m-33.602 16.84v-8.268h4.248v1.008h-3.156v7.26zm6.74-2.016 3.78-6.252h1.092v8.268h-1.092v-6.324l-3.828 6.324h-1.044v-8.268h1.092zm6.258-6.252h6.132v1.008h-2.52v7.26h-1.092v-7.26h-2.52zm8.613 6.252 3.78-6.252h1.092v8.268h-1.092v-6.324l-3.828 6.324h-1.044v-8.268h1.092zm10.794 2.16c-2.34 0-4.2-1.92-4.2-4.26s1.86-4.296 4.2-4.296c1.272 0 2.376.54 3.108 1.404l-.792.672a3.05 3.05 0 0 0-2.316-1.068c-1.74 0-3.108 1.512-3.108 3.288 0 1.764 1.368 3.252 3.108 3.252.924 0 1.764-.42 2.316-1.068l.792.672c-.732.864-1.836 1.404-3.108 1.404m8.767-4.872v-.876h1.044v5.604h-1.044v-.996c-.372.672-1.152 1.14-2.052 1.14-1.464 0-2.748-1.236-2.748-2.952 0-1.656 1.212-2.94 2.796-2.94.84 0 1.632.36 2.004 1.02m-1.896 3.888c.996 0 1.896-.828 1.896-1.968 0-1.152-.972-1.956-1.908-1.956-1.02 0-1.836.9-1.836 1.956 0 1.068.816 1.968 1.848 1.968"/><path fill="#EDEDED" d="M290.945 342.782c1.5 0 2.556.984 2.556 2.508 0 1.596-1.164 2.676-2.772 2.676-1.356 0-2.352-.756-2.844-1.776l.876-.48c.312.72.984 1.272 1.92 1.272 1.02 0 1.776-.684 1.776-1.668s-.78-1.608-1.74-1.608c-.648 0-1.32.276-1.92.72l-.648-.54.684-3.912h4.152v.996h-3.3l-.444 2.352a3.06 3.06 0 0 1 1.704-.54m13.267-.564.768 5.604h-.996l-.516-3.744-1.752 3.108h-.792l-1.752-3.096-.528 3.732h-.984l.756-5.604h.756l2.148 3.864 2.124-3.864zm3.289 4.044 3.252-4.044h.936v5.604h-1.044v-4.068l-3.3 4.068h-.888v-5.604h1.044zm10.115-1.704v-2.34h1.044v5.604h-1.044v-2.328h-3.06v2.328h-1.044v-5.604h1.044v2.34z"/><path fill="#171726" d="m340.226 400.309-7.645.986 4.676-8.1z"/><path fill="#171726" d="M317.555 402.808c-6.512-3.76-8.77-12.043-5.042-18.499 3.728-6.457 12.03-8.644 18.542-4.883 6.513 3.76 8.771 12.043 5.043 18.5s-12.03 8.643-18.543 4.882"/><path fill="#EDEDED" d="M331.089 389.373a.39.39 0 0 0-.312-.264l-4.357-.619-1.96-3.941a.386.386 0 0 0-.694.003l-1.935 3.952-4.356.648a.39.39 0 0 0-.313.264.38.38 0 0 0 .101.395l3.161 3.064-.731 4.34a.38.38 0 0 0 .155.378.38.38 0 0 0 .407.029l3.889-2.061 3.901 2.038a.39.39 0 0 0 .565-.344.3.3 0 0 0-.012-.089l-.753-4.314 3.141-3.081a.38.38 0 0 0 .103-.398m-3.927 3.069a.39.39 0 0 0-.109.344l.657 3.764-3.388-1.769a.4.4 0 0 0-.361 0l-3.376 1.789.633-3.769a.39.39 0 0 0-.112-.341l-2.74-2.66 3.781-.562a.38.38 0 0 0 .289-.212l1.68-3.431 1.702 3.422a.4.4 0 0 0 .293.212l3.783.539z"/><path fill="#E9D9BD" d="M312.602 424.043h-1.356l-2.388-3.492h-1.02v3.492h-1.08v-8.268h1.08v3.768h1.008l2.328-3.768h1.26l-2.652 4.284zm4.019-5.748c1.536 0 2.808 1.188 2.808 2.952 0 1.776-1.26 2.94-2.796 2.94-.84 0-1.632-.36-2.004-1.02v3.6h-1.044v-8.328h1.044v.876c.372-.636 1.188-1.02 1.992-1.02m-.096 4.908c1.032 0 1.848-.816 1.848-1.944 0-1.116-.816-1.98-1.848-1.98-.996 0-1.896.78-1.896 1.98 0 1.212.984 1.944 1.896 1.944m9.652-1.98c0 .156-.012.312-.024.468h-4.56c.156.996.876 1.512 1.836 1.512.684 0 1.308-.312 1.632-.876l.9.36c-.48.972-1.488 1.5-2.568 1.5-1.596 0-2.88-1.188-2.88-2.964s1.284-2.928 2.88-2.928 2.784 1.152 2.784 2.928m-4.572-.432h3.528c-.132-.96-.816-1.512-1.74-1.512-.948 0-1.62.504-1.788 1.512m12.211-2.352.768 5.604h-.996l-.516-3.744-1.752 3.108h-.792l-1.752-3.096-.528 3.732h-.984l.756-5.604h.756l2.148 3.864 2.124-3.864zm2.953 3.36.384-3.36h3.66v5.604h-1.044v-4.62h-1.632l-.312 2.4c-.192 1.452-.732 2.22-1.812 2.22h-.564v-.924h.324c.6 0 .876-.288.996-1.32m6.899-1.332h1.956c1.38 0 1.932.828 1.932 1.764 0 .9-.54 1.812-1.872 1.812h-3.06v-5.604h1.044zm0 2.592h1.848c.684 0 .984-.348.984-.816 0-.456-.3-.792-.984-.792h-1.848z"/><path fill="#EDEDED" d="m311.894 438.472-2.16 2.592h3.18v1.008h-4.932v-.468l2.952-3.564c.492-.6.828-1.236.828-1.596 0-.792-.564-1.32-1.416-1.32s-1.44.48-1.5 1.188l-.936-.204c.156-1.188 1.092-1.98 2.436-1.98 1.476 0 2.46.924 2.46 2.316 0 .612-.396 1.416-.912 2.028m5.203 3.744c-2.256 0-2.844-1.836-2.844-4.044 0-2.232.588-4.044 2.844-4.044s2.844 1.812 2.844 4.044c0 2.208-.588 4.044-2.844 4.044m0-.984c1.44 0 1.8-1.428 1.8-3.06 0-1.656-.36-3.048-1.8-3.048s-1.788 1.392-1.788 3.048c0 1.632.348 3.06 1.788 3.06m13.702-4.764.768 5.604h-.996l-.516-3.744-1.752 3.108h-.792l-1.752-3.096-.528 3.732h-.984l.756-5.604h.756l2.148 3.864 2.124-3.864zm3.289 4.044 3.252-4.044h.936v5.604h-1.044v-4.068l-3.3 4.068h-.888v-5.604h1.044zm10.114-1.704v-2.34h1.044v5.604h-1.044v-2.328h-3.06v2.328h-1.044v-5.604h1.044v2.34z"/><path fill="#171726" d="m213.838 408.953-4.677-6.128h9.353z"/><path fill="#171726" d="M200.338 390.57c0-7.52 6.044-13.617 13.5-13.617s13.5 6.097 13.5 13.617-6.044 13.617-13.5 13.617-13.5-6.096-13.5-13.617"/><path fill="#EDEDED" d="M216.82 390.036a1.37 1.37 0 0 1 1.507.166.24.24 0 0 0 .085.048q.048.015.098.012a.25.25 0 0 0 .228-.271.3.3 0 0 0-.027-.094.3.3 0 0 0-.062-.076 1.87 1.87 0 0 0-2.057-.228.251.251 0 0 0 .038.459.25.25 0 0 0 .19-.015zm-1.699.488a.25.25 0 0 0 .218-.173.24.24 0 0 0-.016-.191.25.25 0 0 0-.147-.123.3.3 0 0 0-.098-.01 1.86 1.86 0 0 0-1.622 1.285.25.25 0 0 0 .015.191q.023.045.061.077a.3.3 0 0 0 .085.048q.047.014.097.011a.2.2 0 0 0 .094-.028.25.25 0 0 0 .123-.146 1.37 1.37 0 0 1 1.19-.941m3.674 1.055a.3.3 0 0 0-.113-.016.25.25 0 0 0-.107.036l-.774.473a4.76 4.76 0 0 1-2.429.699l-.907.009a.3.3 0 0 0-.111.027.3.3 0 0 0-.087.074.24.24 0 0 0-.039.218 2.456 2.456 0 0 0 2.355 1.777c.38 0 .755-.089 1.095-.259a2.45 2.45 0 0 0 1.266-2.874.25.25 0 0 0-.149-.164m-1.669 2.721a1.956 1.956 0 0 1-2.3-1.025l.55-.005a5.25 5.25 0 0 0 2.686-.772l.468-.286a1.96 1.96 0 0 1-1.404 2.088m-7.676-7.044c.059 0 .116-.02.161-.059a1.365 1.365 0 0 1 1.507-.165c.059.03.128.036.191.016a.25.25 0 0 0 .037-.46 1.86 1.86 0 0 0-2.056.228.26.26 0 0 0-.081.127.25.25 0 0 0 .242.313z"/><path fill="#EDEDED" d="m220.396 391.366-.978-3.397a1.56 1.56 0 0 0-.741-.932 1.55 1.55 0 0 0-1.183-.134l-1.504.432a1.553 1.553 0 0 0-1.077-1.877l-4.607-1.323a1.56 1.56 0 0 0-1.646.525c-.127.16-.221.343-.278.539l-.977 3.4a4.29 4.29 0 0 0 2.592 5.211q.02.009.043.012c.927.18 1.887.05 2.733-.37l.028.097a4.28 4.28 0 0 0 4.124 3.123q.423 0 .838-.081l.043-.012a4.29 4.29 0 0 0 2.59-5.213m-10.24 1.971a3.795 3.795 0 0 1-2.271-4.6l.978-3.4a1.04 1.04 0 0 1 .896-.757c.137-.016.277-.004.41.034l4.606 1.323a1.04 1.04 0 0 1 .633.504 1.04 1.04 0 0 1 .092.803l-.073.253-1.176.338a1.86 1.86 0 0 0-1.391-.812.25.25 0 0 0-.268.227.25.25 0 0 0 .226.27c.355.029.684.195.919.464l-.848.243a1.55 1.55 0 0 0-1.028.949 2.124 2.124 0 0 0-2.619.442 2.1 2.1 0 0 0-.459.831.24.24 0 0 0-.006.113.3.3 0 0 0 .045.104.3.3 0 0 0 .087.074.3.3 0 0 0 .11.027l.773.009a4 4 0 0 1 2.053.588l.397.244.389 1.353a3.8 3.8 0 0 1-2.475.376m1.666-3.187.216.751a4.5 4.5 0 0 0-2.241-.624l-.408-.005a1.64 1.64 0 0 1 1.058-.821 1.63 1.63 0 0 1 1.316.25q-.004.229.059.449m5.823 5.956a3.79 3.79 0 0 1-4.366-2.695l-.977-3.399a1.04 1.04 0 0 1 .207-.971c.135-.161.315-.278.517-.335l4.607-1.324q.143-.04.293-.041a1.05 1.05 0 0 1 1.013.765l.977 3.398a3.794 3.794 0 0 1-2.271 4.602"/><path fill="#E9D9BD" d="m177.827 416.419 1.02 8.269h-1.068l-.768-6.301-2.628 5.4h-.948l-2.652-5.4-.756 6.301h-1.068l1.008-8.269h.984l2.952 6.132 2.94-6.132zm5.971 3.828 2.904 4.441h-1.308l-2.244-3.553-2.244 3.553h-1.296l2.892-4.453-2.568-3.816h1.296l1.92 2.94 1.932-2.94h1.296zm10.481 4.441h-1.14l-.804-2.125h-3.552l-.804 2.125h-1.14l3.144-8.269h1.152zm-3.72-6.841-1.416 3.757h2.832zm3.281-1.428h6.132v1.008h-2.52v7.261h-1.092v-7.261h-2.52zm10.95 6.708 3.252-4.044h.936v5.605h-1.044v-4.069l-3.3 4.069h-.888v-5.605h1.044zm12.227-4.044.768 5.605h-.996l-.516-3.745-1.752 3.108h-.792l-1.752-3.096-.528 3.733h-.984l.756-5.605h.756l2.148 3.864 2.124-3.864zm2.785 5.725c-.408 0-.756-.301-.756-.721 0-.432.348-.744.756-.744.42 0 .78.312.78.744 0 .42-.36.721-.78.721m5.664-.12v-8.269h4.248v1.008h-3.156v7.261zm6.5.144c-1.596 0-2.928-1.177-2.928-2.953s1.332-2.94 2.928-2.94 2.94 1.164 2.94 2.94-1.344 2.953-2.94 2.953m0-.985c1.032 0 1.896-.804 1.896-1.968 0-1.152-.864-1.956-1.896-1.956-1.02 0-1.872.804-1.872 1.956 0 1.164.852 1.968 1.872 1.968m7.429-4.908c1.536 0 2.808 1.188 2.808 2.952 0 1.776-1.26 2.941-2.796 2.941-.84 0-1.632-.361-2.004-1.021v3.601h-1.044v-8.329h1.044v.876c.372-.636 1.188-1.02 1.992-1.02m-.096 4.908c1.032 0 1.848-.816 1.848-1.944 0-1.116-.816-1.98-1.848-1.98-.996 0-1.896.78-1.896 1.98 0 1.212.984 1.944 1.896 1.944m5.405-2.736h1.956c1.38 0 1.932.828 1.932 1.764 0 .9-.54 1.813-1.872 1.813h-3.06v-5.605h1.044zm0 2.592h1.848c.684 0 .984-.348.984-.816 0-.456-.3-.792-.984-.792h-1.848zm10.315.985h-1.284l-1.848-2.341h-.972v2.341h-1.044v-5.605h1.044v2.34h1.044l1.56-2.34h1.164l-1.872 2.808zm3.337.144c-1.596 0-2.928-1.177-2.928-2.953s1.332-2.94 2.928-2.94 2.94 1.164 2.94 2.94-1.344 2.953-2.94 2.953m0-.985c1.032 0 1.896-.804 1.896-1.968 0-1.152-.864-1.956-1.896-1.956-1.02 0-1.872.804-1.872 1.956 0 1.164.852 1.968 1.872 1.968m4.394-4.764h3.648v.984h-2.604v4.621h-1.044zm7.208 5.749c-1.596 0-2.928-1.177-2.928-2.953s1.332-2.94 2.928-2.94 2.94 1.164 2.94 2.94-1.344 2.953-2.94 2.953m0-.985c1.032 0 1.896-.804 1.896-1.968 0-1.152-.864-1.956-1.896-1.956-1.02 0-1.872.804-1.872 1.956 0 1.164.852 1.968 1.872 1.968"/><path fill="#EDEDED" d="M201.695 437.677c1.5 0 2.556.984 2.556 2.508 0 1.596-1.164 2.676-2.772 2.676-1.356 0-2.352-.756-2.844-1.776l.876-.48c.312.72.984 1.272 1.92 1.272 1.02 0 1.776-.684 1.776-1.668s-.78-1.608-1.74-1.608c-.648 0-1.32.276-1.92.72l-.648-.54.684-3.912h4.152v.996h-3.3l-.444 2.352a3.06 3.06 0 0 1 1.704-.54m13.267-.564.768 5.604h-.996l-.516-3.744-1.752 3.108h-.792l-1.752-3.096-.528 3.732h-.984l.756-5.604h.756l2.148 3.864 2.124-3.864zm3.289 4.044 3.252-4.044h.936v5.604h-1.044v-4.068l-3.3 4.068h-.888v-5.604h1.044zm10.115-1.704v-2.34h1.044v5.604h-1.044v-2.328h-3.06v2.328h-1.044v-5.604h1.044v2.34z"/><path fill="#171726" d="m187.588 190.16-4.677-6.128h9.353z"/><path fill="#171726" d="M174.088 171.777c0-7.52 6.044-13.617 13.5-13.617s13.5 6.097 13.5 13.617-6.044 13.617-13.5 13.617-13.5-6.096-13.5-13.617"/><path fill="#EDEDED" d="M181.064 174.283h5.59v.431h-5.59zm0 1.076h5.59v.431h-5.59zm-.646 1.074h6.882v.43h-6.882z"/><path fill="#EDEDED" d="M180.85 173.853h.43v3.656h-.43zm5.59 0h.431v3.656h-.431zm4.087.215a3.23 3.23 0 0 1-3.226-3.226c0-1.611 1.339-6.666 3.226-6.666s3.225 5.055 3.225 6.666a3.23 3.23 0 0 1-3.225 3.226m0-9.462c-1.436 0-2.795 4.538-2.795 6.236a2.8 2.8 0 0 0 2.795 2.796 2.8 2.8 0 0 0 2.795-2.796c0-1.698-1.36-6.236-2.795-6.236"/><path fill="#EDEDED" d="M190.311 169.336h.43v8.173h-.43z"/><path fill="#EDEDED" d="m191.45 169.828.304.304-1.074 1.075-.305-.304zm-1.849 1.721 1.075 1.074-.305.305-1.074-1.075z"/><path fill="#E9D9BD" d="M145.532 201.287v-3.66h1.092v8.268h-1.092v-3.612h-4.056v3.612h-1.092v-8.268h1.092v3.66zm5.559 4.752c-1.596 0-2.928-1.176-2.928-2.952s1.332-2.94 2.928-2.94 2.94 1.164 2.94 2.94-1.344 2.952-2.94 2.952m0-.984c1.032 0 1.896-.804 1.896-1.968 0-1.152-.864-1.956-1.896-1.956-1.02 0-1.872.804-1.872 1.956 0 1.164.852 1.968 1.872 1.968m8.485-2.148c.708.144.996.78.996 1.392 0 .768-.576 1.596-1.824 1.596h-3.264v-5.604h3.072c1.032 0 1.704.6 1.704 1.44 0 .42-.12.972-.684 1.176m-.36-.984c0-.384-.24-.648-.708-.648h-1.98v1.284h2.004c.432 0 .684-.228.684-.636m-2.688 2.988h2.112c.612 0 .888-.324.888-.72 0-.408-.276-.756-.888-.756h-2.112zm8.051 1.128c-1.596 0-2.928-1.176-2.928-2.952s1.332-2.94 2.928-2.94 2.94 1.164 2.94 2.94-1.344 2.952-2.94 2.952m0-.984c1.032 0 1.896-.804 1.896-1.968 0-1.152-.864-1.956-1.896-1.956-1.02 0-1.872.804-1.872 1.956 0 1.164.852 1.968 1.872 1.968m4.394.84v-5.604h5.148v5.604h-1.044v-4.62h-3.06v4.62zm9.084-1.476 1.716-4.128h1.128l-3.48 8.328h-1.104l1.176-2.892-2.256-5.436h1.128zm10.188.492v-4.62h1.044v5.604h-7.32v-5.604h1.044v4.62h2.088v-4.62h1.056v4.62zm8.012.984h-1.284l-1.848-2.34h-.972v2.34h-1.044v-5.604h1.044v2.34h1.044l1.56-2.34h1.164l-1.872 2.808zm2.06-1.56 3.252-4.044h.936v5.604h-1.044v-4.068l-3.3 4.068h-.888v-5.604h1.044zm10.115-1.704v-2.34h1.044v5.604h-1.044v-2.328h-3.06v2.328h-1.044v-5.604h1.044v2.34zm5.485 3.408c-1.608 0-3.012-1.176-3.012-2.952s1.404-2.94 3.012-2.94c.876 0 1.644.348 2.136.888l-.66.684a1.98 1.98 0 0 0-1.44-.588c-1.104 0-1.992.804-1.992 1.956s.888 1.968 1.992 1.968c.588 0 1.092-.228 1.44-.588l.66.684c-.492.552-1.26.888-2.136.888m8.602-.144h-1.284l-1.848-2.34h-.972v2.34h-1.044v-5.604h1.044v2.34h1.044l1.56-2.34h1.164l-1.872 2.808zm2.06-1.56 3.252-4.044h.936v5.604h-1.044v-4.068l-3.3 4.068h-.888v-5.604h1.044zm8.219-5.064c-.936 0-1.548-.612-1.548-1.536h.864c0 .432.264.732.684.732.408 0 .672-.3.672-.732h.888c0 .924-.624 1.536-1.56 1.536m-1.164 5.064 3.252-4.044h.936v5.604h-1.044v-4.068l-3.3 4.068h-.888v-5.604h1.044zm-56.524 17.704c-1.608 0-3.012-1.176-3.012-2.952s1.404-2.94 3.012-2.94c.876 0 1.644.348 2.136.888l-.66.684a1.98 1.98 0 0 0-1.44-.588c-1.104 0-1.992.804-1.992 1.956s.888 1.968 1.992 1.968c.588 0 1.092-.228 1.44-.588l.66.684c-.492.552-1.26.888-2.136.888m8.602-.144h-1.284l-1.848-2.34h-.972v2.34h-1.044v-5.604h1.044v2.34h1.044l1.56-2.34h1.164l-1.872 2.808zm5.108-2.988c.708.144.996.78.996 1.392 0 .768-.576 1.596-1.824 1.596h-3.264v-5.604h3.072c1.032 0 1.704.6 1.704 1.44 0 .42-.12.972-.684 1.176m-.36-.984c0-.384-.24-.648-.708-.648h-1.98v1.284h2.004c.432 0 .684-.228.684-.636m-2.688 2.988h2.112c.612 0 .888-.324.888-.72 0-.408-.276-.756-.888-.756h-2.112zm10.799-1.836c0 .156-.012.312-.024.468h-4.56c.156.996.876 1.512 1.836 1.512.684 0 1.308-.312 1.632-.876l.9.36c-.48.972-1.488 1.5-2.568 1.5-1.596 0-2.88-1.188-2.88-2.964s1.284-2.928 2.88-2.928 2.784 1.152 2.784 2.928m-4.572-.432h3.528c-.132-.96-.816-1.512-1.74-1.512-.948 0-1.62.504-1.788 1.512m9.031-2.496c1.536 0 2.808 1.188 2.808 2.952 0 1.776-1.26 2.94-2.796 2.94-.84 0-1.632-.36-2.004-1.02v3.6h-1.044v-8.328h1.044v.876c.372-.636 1.188-1.02 1.992-1.02m-.096 4.908c1.032 0 1.848-.816 1.848-1.944 0-1.116-.816-1.98-1.848-1.98-.996 0-1.896.78-1.896 1.98 0 1.212.984 1.944 1.896 1.944"/><path fill="#EDEDED" d="m176.651 236.324-2.16 2.592h3.18v1.008h-4.932v-.468l2.952-3.564c.492-.6.828-1.236.828-1.596 0-.792-.564-1.32-1.416-1.32s-1.44.48-1.5 1.188l-.936-.204c.156-1.188 1.092-1.98 2.436-1.98 1.476 0 2.46.924 2.46 2.316 0 .612-.396 1.416-.912 2.028m11.827-2.004.768 5.604h-.996l-.516-3.744-1.752 3.108h-.792l-1.752-3.096-.528 3.732h-.984l.756-5.604h.756l2.148 3.864 2.124-3.864zm3.289 4.044 3.252-4.044h.936v5.604h-1.044v-4.068l-3.3 4.068h-.888v-5.604h1.044zm10.114-1.704v-2.34h1.044v5.604h-1.044v-2.328h-3.06v2.328h-1.044v-5.604h1.044v2.34z"/><path fill="#171726" d="m184.963 109.234-4.677-6.127h9.353z"/><path fill="#171726" d="M171.463 90.851c0-7.52 6.044-13.617 13.5-13.617s13.5 6.097 13.5 13.617-6.044 13.617-13.5 13.617-13.5-6.096-13.5-13.617"/><path fill="#EDEDED" d="M178.439 93.357h5.59v.43h-5.59zm0 1.076h5.59v.431h-5.59zm-.646 1.074h6.882v.43h-6.882z"/><path fill="#EDEDED" d="M178.225 92.927h.43v3.656h-.43zm5.59 0h.431v3.656h-.431zm4.087.215a3.23 3.23 0 0 1-3.226-3.225c0-1.612 1.339-6.667 3.226-6.667s3.225 5.055 3.225 6.667a3.23 3.23 0 0 1-3.225 3.225m0-9.462c-1.436 0-2.795 4.538-2.795 6.237a2.8 2.8 0 0 0 2.795 2.795 2.8 2.8 0 0 0 2.795-2.795c0-1.698-1.36-6.237-2.795-6.237"/><path fill="#EDEDED" d="M187.686 88.41h.43v8.173h-.43z"/><path fill="#EDEDED" d="m188.825 88.902.304.305-1.074 1.074-.305-.304zm-1.849 1.721 1.075 1.075-.305.304-1.074-1.075z"/><path fill="#E9D9BD" d="M133.599 124.969v-8.268h6.048v8.268h-1.092v-7.284h-3.864v7.284zm10.157-1.476 1.716-4.128h1.128l-3.48 8.328h-1.104l1.176-2.892-2.256-5.436h1.128zm10.188.492v-4.62h1.044v5.604h-7.32v-5.604h1.044v4.62h2.088v-4.62h1.056v4.62zm8.012.984h-1.284l-1.848-2.34h-.972v2.34h-1.044v-5.604h1.044v2.34h1.044l1.56-2.34h1.164l-1.872 2.808zm2.061-1.56 3.252-4.044h.936v5.604h-1.044v-4.068l-3.3 4.068h-.888v-5.604h1.044zm10.114-1.704v-2.34h1.044v5.604h-1.044v-2.328h-3.06v2.328h-1.044v-5.604h1.044v2.34zm5.485 3.408c-1.608 0-3.012-1.176-3.012-2.952s1.404-2.94 3.012-2.94c.876 0 1.644.348 2.136.888l-.66.684a1.98 1.98 0 0 0-1.44-.588c-1.104 0-1.992.804-1.992 1.956s.888 1.968 1.992 1.968c.588 0 1.092-.228 1.44-.588l.66.684c-.492.552-1.26.888-2.136.888m8.602-.144h-1.284l-1.848-2.34h-.972v2.34h-1.044v-5.604h1.044v2.34h1.044l1.56-2.34h1.164l-1.872 2.808zm2.06-1.56 3.252-4.044h.936v5.604h-1.044v-4.068l-3.3 4.068h-.888v-5.604h1.044zm8.219-5.064c-.936 0-1.548-.612-1.548-1.536h.864c0 .432.264.732.684.732.408 0 .672-.3.672-.732h.888c0 .924-.624 1.536-1.56 1.536m-1.164 5.064 3.252-4.044h.936v5.604h-1.044v-4.068l-3.3 4.068h-.888v-5.604h1.044zm11.662 1.704c-1.608 0-3.012-1.176-3.012-2.952s1.404-2.94 3.012-2.94c.876 0 1.644.348 2.136.888l-.66.684a1.98 1.98 0 0 0-1.44-.588c-1.104 0-1.992.804-1.992 1.956s.888 1.968 1.992 1.968c.588 0 1.092-.228 1.44-.588l.66.684c-.492.552-1.26.888-2.136.888m8.602-.144h-1.284l-1.848-2.34h-.972v2.34h-1.044v-5.604h1.044v2.34h1.044l1.56-2.34h1.164l-1.872 2.808zm5.108-2.988c.708.144.996.78.996 1.392 0 .768-.576 1.596-1.824 1.596h-3.264v-5.604h3.072c1.032 0 1.704.6 1.704 1.44 0 .42-.12.972-.684 1.176m-.36-.984c0-.384-.24-.648-.708-.648h-1.98v1.284h2.004c.432 0 .684-.228.684-.636m-2.688 2.988h2.112c.612 0 .888-.324.888-.72 0-.408-.276-.756-.888-.756h-2.112zm10.799-1.836c0 .156-.012.312-.024.468h-4.56c.156.996.876 1.512 1.836 1.512.684 0 1.308-.312 1.632-.876l.9.36c-.48.972-1.488 1.5-2.568 1.5-1.596 0-2.88-1.188-2.88-2.964s1.284-2.928 2.88-2.928 2.784 1.152 2.784 2.928m-4.572-.432h3.528c-.132-.96-.816-1.512-1.74-1.512-.948 0-1.62.504-1.788 1.512m9.031-2.496c1.536 0 2.808 1.188 2.808 2.952 0 1.776-1.26 2.94-2.796 2.94-.84 0-1.632-.36-2.004-1.02v3.6h-1.044v-8.328h1.044v.876c.372-.636 1.188-1.02 1.992-1.02m-.096 4.908c1.032 0 1.848-.816 1.848-1.944 0-1.116-.816-1.98-1.848-1.98-.996 0-1.896.78-1.896 1.98 0 1.212.984 1.944 1.896 1.944"/><path fill="#EDEDED" d="M173.733 138.786c.816.264 1.368.996 1.368 1.92 0 1.44-1.128 2.436-2.724 2.436-1.116 0-2.064-.612-2.532-1.632l.852-.492c.36.708.972 1.14 1.644 1.14.984 0 1.704-.588 1.704-1.416 0-.888-.696-1.476-1.668-1.476h-.816v-.9h.744c.828 0 1.368-.492 1.368-1.2 0-.672-.504-1.116-1.26-1.116-.54 0-1.092.288-1.392.744l-.732-.6c.408-.684 1.26-1.14 2.148-1.14 1.368 0 2.28.828 2.28 2.088 0 .744-.372 1.356-.984 1.644m12.161-1.392.768 5.604h-.996l-.516-3.744-1.752 3.108h-.792l-1.752-3.096-.528 3.732h-.984l.756-5.604h.756l2.148 3.864 2.124-3.864zm3.289 4.044 3.252-4.044h.936v5.604h-1.044v-4.068l-3.3 4.068h-.888v-5.604h1.044zm10.114-1.704v-2.34h1.044v5.604h-1.044v-2.328h-3.06v2.328h-1.044v-5.604h1.044v2.34z"/><path fill="#171726" d="m103.15 356.004-4.676-6.128h9.353z"/><path fill="#171726" d="M89.65 337.621c0-7.521 6.044-13.617 13.5-13.617s13.5 6.096 13.5 13.617c0 7.52-6.044 13.617-13.5 13.617s-13.5-6.097-13.5-13.617"/><path fill="#EDEDED" d="M106.132 337.087a1.37 1.37 0 0 1 1.508.166.24.24 0 0 0 .182.059.24.24 0 0 0 .218-.173.24.24 0 0 0-.079-.267 1.86 1.86 0 0 0-2.057-.228.249.249 0 0 0 .038.459c.063.02.132.015.191-.015zm-1.698.488a.25.25 0 0 0 .218-.173.24.24 0 0 0-.017-.191.25.25 0 0 0-.244-.133 1.86 1.86 0 0 0-1.622 1.285.25.25 0 0 0 .015.191.24.24 0 0 0 .146.124.24.24 0 0 0 .191-.016.25.25 0 0 0 .123-.147 1.36 1.36 0 0 1 1.19-.94m3.673 1.055a.25.25 0 0 0-.22.02l-.773.473a4.75 4.75 0 0 1-2.43.698l-.907.01a.25.25 0 0 0-.243.205.24.24 0 0 0 .006.113 2.455 2.455 0 0 0 3.451 1.519 2.46 2.46 0 0 0 1.266-2.874.25.25 0 0 0-.15-.164m-1.669 2.721a1.95 1.95 0 0 1-2.299-1.025l.55-.006a5.25 5.25 0 0 0 2.685-.771l.468-.287a1.955 1.955 0 0 1-1.404 2.089m-7.675-7.044a.25.25 0 0 0 .16-.059 1.365 1.365 0 0 1 1.508-.165.25.25 0 0 0 .336-.108.25.25 0 0 0 .015-.19.25.25 0 0 0-.123-.146 1.86 1.86 0 0 0-2.057.228.25.25 0 0 0-.073.276.25.25 0 0 0 .234.164"/><path fill="#EDEDED" d="m109.708 338.417-.977-3.397a1.56 1.56 0 0 0-1.319-1.117 1.6 1.6 0 0 0-.605.051l-1.504.432a1.553 1.553 0 0 0-1.078-1.877l-4.606-1.323a1.54 1.54 0 0 0-1.183.133 1.55 1.55 0 0 0-.741.931l-.978 3.4a4.29 4.29 0 0 0 2.593 5.211l.042.012a4.3 4.3 0 0 0 2.733-.37l.029.097a4.28 4.28 0 0 0 4.124 3.123q.422 0 .838-.081l.042-.012a4.293 4.293 0 0 0 2.59-5.213m-10.24 1.97a3.787 3.787 0 0 1-2.27-4.6l.977-3.399a1.053 1.053 0 0 1 1.306-.723l4.607 1.323c.133.038.258.102.366.189a1.05 1.05 0 0 1 .392.707c.016.138.004.278-.034.411l-.073.253-1.175.338a1.87 1.87 0 0 0-1.391-.812.25.25 0 0 0-.181.058.25.25 0 0 0-.087.169.25.25 0 0 0 .225.27c.355.029.685.195.919.463l-.848.244a1.55 1.55 0 0 0-1.027.949 2.128 2.128 0 0 0-3.079 1.272.25.25 0 0 0 .04.218.25.25 0 0 0 .197.101l.772.008a4 4 0 0 1 2.053.589l.397.243.389 1.354a3.8 3.8 0 0 1-2.475.375m1.667-3.186.216.751a4.5 4.5 0 0 0-2.241-.625l-.409-.004a1.62 1.62 0 0 1 1.058-.821 1.63 1.63 0 0 1 1.316.25q-.003.229.06.449m5.823 5.956a3.79 3.79 0 0 1-4.366-2.695l-.978-3.399a1.054 1.054 0 0 1 .725-1.306l4.606-1.324q.144-.042.293-.042a1.06 1.06 0 0 1 1.013.766l.978 3.397a3.797 3.797 0 0 1-2.271 4.603"/><path fill="#E9D9BD" d="M82.164 363.47v7.26h.708v2.952H81.78v-1.944h-5.052v1.944h-1.092v-2.952h.12c.876 0 1.284-.756 1.452-2.328l.48-4.932zm-1.08 1.008h-2.352l-.432 3.936c-.108.984-.252 1.764-.6 2.316h3.384zm6.262 1.512c1.536 0 2.808 1.188 2.808 2.952 0 1.776-1.26 2.94-2.796 2.94-.84 0-1.632-.36-2.004-1.02v3.6H84.31v-8.328h1.044v.876c.372-.636 1.188-1.02 1.992-1.02m-.096 4.908c1.032 0 1.848-.816 1.848-1.944 0-1.116-.816-1.98-1.848-1.98-.996 0-1.896.78-1.896 1.98 0 1.212.984 1.944 1.896 1.944m8.777-3.888v-.876h1.044v5.604h-1.044v-.996c-.372.672-1.152 1.14-2.052 1.14-1.464 0-2.748-1.236-2.748-2.952 0-1.656 1.212-2.94 2.796-2.94.84 0 1.632.36 2.004 1.02m-1.896 3.888c.996 0 1.896-.828 1.896-1.968 0-1.152-.972-1.956-1.908-1.956-1.02 0-1.836.9-1.836 1.956 0 1.068.816 1.968 1.848 1.968m10.985-4.764.768 5.604h-.996l-.516-3.744-1.752 3.108h-.792l-1.752-3.096-.528 3.732h-.984l.756-5.604h.756l2.148 3.864 2.124-3.864zm4.328 0h4.752v.984h-1.848v4.62h-1.044v-4.62h-1.86zm11.061 2.784c0 .156-.012.312-.024.468h-4.56c.156.996.876 1.512 1.836 1.512.684 0 1.308-.312 1.632-.876l.9.36c-.48.972-1.488 1.5-2.568 1.5-1.596 0-2.88-1.188-2.88-2.964s1.284-2.928 2.88-2.928 2.784 1.152 2.784 2.928m-4.572-.432h3.528c-.132-.96-.816-1.512-1.74-1.512-.948 0-1.62.504-1.788 1.512m10.411-1.476v-.876h1.044v5.604h-1.044v-.996c-.372.672-1.152 1.14-2.052 1.14-1.464 0-2.748-1.236-2.748-2.952 0-1.656 1.212-2.94 2.796-2.94.84 0 1.632.36 2.004 1.02m-1.896 3.888c.996 0 1.896-.828 1.896-1.968 0-1.152-.972-1.956-1.908-1.956-1.02 0-1.836.9-1.836 1.956 0 1.068.816 1.968 1.848 1.968m4.121-4.764h4.752v.984h-1.848v4.62h-1.044v-4.62h-1.86zm8.969-.144c1.536 0 2.808 1.188 2.808 2.952 0 1.776-1.26 2.94-2.796 2.94-.84 0-1.632-.36-2.004-1.02v3.6h-1.044v-8.328h1.044v.876c.372-.636 1.188-1.02 1.992-1.02m-.096 4.908c1.032 0 1.848-.816 1.848-1.944 0-1.116-.816-1.98-1.848-1.98-.996 0-1.896.78-1.896 1.98 0 1.212.984 1.944 1.896 1.944m-62.681 15.28 3.252-4.044h.936v5.604h-1.044v-4.068l-3.3 4.068h-.888v-5.604h1.044zm12.226-4.044.768 5.604h-.996l-.516-3.744-1.752 3.108H83.7l-1.752-3.096-.528 3.732h-.984l.756-5.604h.756l2.148 3.864 2.124-3.864zm2.785 5.724c-.408 0-.756-.3-.756-.72 0-.432.348-.744.756-.744.42 0 .78.312.78.744 0 .42-.36.72-.78.72m5.665-.12v-8.268h4.248v1.008H96.53v7.26zm6.499.144c-1.596 0-2.928-1.176-2.928-2.952s1.332-2.94 2.928-2.94 2.94 1.164 2.94 2.94-1.344 2.952-2.94 2.952m0-.984c1.032 0 1.896-.804 1.896-1.968 0-1.152-.864-1.956-1.896-1.956-1.02 0-1.872.804-1.872 1.956 0 1.164.852 1.968 1.872 1.968m7.43-4.908c1.536 0 2.808 1.188 2.808 2.952 0 1.776-1.26 2.94-2.796 2.94-.84 0-1.632-.36-2.004-1.02v3.6h-1.044v-8.328h1.044v.876c.372-.636 1.188-1.02 1.992-1.02m-.096 4.908c1.032 0 1.848-.816 1.848-1.944 0-1.116-.816-1.98-1.848-1.98-.996 0-1.896.78-1.896 1.98 0 1.212.984 1.944 1.896 1.944m5.405-2.736h1.956c1.38 0 1.932.828 1.932 1.764 0 .9-.54 1.812-1.872 1.812h-3.06v-5.604h1.044zm0 2.592h1.848c.684 0 .984-.348.984-.816 0-.456-.3-.792-.984-.792h-1.848zm10.315.984h-1.284l-1.848-2.34h-.972v2.34h-1.044v-5.604h1.044v2.34h1.044l1.56-2.34h1.164l-1.872 2.808zm3.337.144c-1.596 0-2.928-1.176-2.928-2.952s1.332-2.94 2.928-2.94 2.94 1.164 2.94 2.94-1.344 2.952-2.94 2.952m0-.984c1.032 0 1.896-.804 1.896-1.968 0-1.152-.864-1.956-1.896-1.956-1.02 0-1.872.804-1.872 1.956 0 1.164.852 1.968 1.872 1.968m4.394-4.764h3.648v.984h-2.604v4.62h-1.044zm7.208 5.748c-1.596 0-2.928-1.176-2.928-2.952s1.332-2.94 2.928-2.94 2.94 1.164 2.94 2.94-1.344 2.952-2.94 2.952m0-.984c1.032 0 1.896-.804 1.896-1.968 0-1.152-.864-1.956-1.896-1.956-1.02 0-1.872.804-1.872 1.956 0 1.164.852 1.968 1.872 1.968"/><path fill="#EDEDED" d="M92.563 403.164h1.116v.984h-1.116v1.62H91.52v-1.62h-4.008v-.228l4.872-6h.18zm-1.044-2.7-2.256 2.7h2.256zm12.843-.3.768 5.604h-.996l-.516-3.744-1.752 3.108h-.792l-1.752-3.096-.528 3.732h-.984l.756-5.604h.756l2.148 3.864 2.124-3.864zm3.289 4.044 3.252-4.044h.936v5.604h-1.044V401.7l-3.3 4.068h-.888v-5.604h1.044zm10.115-1.704v-2.34h1.044v5.604h-1.044v-2.328h-3.06v2.328h-1.044v-5.604h1.044v2.34z"/><path fill="#171726" d="m45.15 172.16 6.128-4.676v9.353z"/><path fill="#171726" d="M63.533 158.66c7.52 0 13.617 6.044 13.617 13.5s-6.096 13.5-13.617 13.5c-7.52 0-13.617-6.044-13.617-13.5s6.097-13.5 13.617-13.5"/><path fill="#EDEDED" d="M55.937 174.99h5.59v.431h-5.59zm0 1.076h5.59v.431h-5.59zm-.646 1.074h6.882v.43H55.29z"/><path fill="#EDEDED" d="M55.723 174.56h.43v3.656h-.43zm5.59 0h.43v3.656h-.43zm4.087.215a3.23 3.23 0 0 1-3.226-3.226c0-1.611 1.339-6.666 3.226-6.666s3.225 5.055 3.225 6.666a3.23 3.23 0 0 1-3.225 3.226m0-9.462c-1.436 0-2.796 4.538-2.796 6.236a2.8 2.8 0 0 0 2.796 2.796 2.8 2.8 0 0 0 2.795-2.796c0-1.698-1.36-6.236-2.795-6.236"/><path fill="#EDEDED" d="M65.184 170.043h.43v8.173h-.43z"/><path fill="#EDEDED" d="m66.323 170.535.304.304-1.074 1.075-.305-.304zm-1.849 1.721 1.075 1.074-.305.305-1.074-1.075z"/><path fill="#E9D9BD" d="M32.437 203.895v-8.268h6.048v8.268h-1.092v-7.284H33.53v7.284zm12.391-4.728v-.876h1.044v5.604h-1.044v-.996c-.372.672-1.152 1.14-2.052 1.14-1.464 0-2.748-1.236-2.748-2.952 0-1.656 1.212-2.94 2.796-2.94.84 0 1.632.36 2.004 1.02m-1.896 3.888c.996 0 1.896-.828 1.896-1.968 0-1.152-.972-1.956-1.908-1.956-1.02 0-1.836.9-1.836 1.956 0 1.068.816 1.968 1.848 1.968m4.121-4.764h4.752v.984h-1.848v4.62h-1.044v-4.62h-1.86zm8.97-.144c1.535 0 2.807 1.188 2.807 2.952 0 1.776-1.26 2.94-2.796 2.94-.84 0-1.632-.36-2.004-1.02v3.6h-1.044v-8.328h1.044v.876c.372-.636 1.188-1.02 1.992-1.02m-.097 4.908c1.032 0 1.848-.816 1.848-1.944 0-1.116-.816-1.98-1.848-1.98-.996 0-1.896.78-1.896 1.98 0 1.212.984 1.944 1.896 1.944m5.405-.72 3.252-4.044h.936v5.604h-1.044v-4.068l-3.3 4.068h-.888v-5.604h1.044zm10.427-3.168v-.876h1.044v5.604h-1.044v-.996c-.372.672-1.152 1.14-2.052 1.14-1.464 0-2.748-1.236-2.748-2.952 0-1.656 1.212-2.94 2.796-2.94.84 0 1.632.36 2.004 1.02m-1.896 3.888c.996 0 1.896-.828 1.896-1.968 0-1.152-.972-1.956-1.908-1.956-1.02 0-1.836.9-1.836 1.956 0 1.068.816 1.968 1.848 1.968m7.805-4.908c1.536 0 2.808 1.188 2.808 2.952 0 1.776-1.26 2.94-2.796 2.94-.84 0-1.632-.36-2.004-1.02v3.6H74.63v-8.328h1.044v.876c.372-.636 1.188-1.02 1.992-1.02m-.096 4.908c1.032 0 1.848-.816 1.848-1.944 0-1.116-.816-1.98-1.848-1.98-.996 0-1.896.78-1.896 1.98 0 1.212.984 1.944 1.896 1.944m10.636-.144v-4.62h1.044v5.604h-7.32v-5.604h1.044v4.62h2.089v-4.62h1.056v4.62zm3.91-.576 3.251-4.044h.936v5.604H95.26v-4.068l-3.3 4.068h-.888v-5.604h1.044zm11.302-1.26c0 .156-.012.312-.024.468h-4.56c.156.996.876 1.512 1.836 1.512.684 0 1.308-.312 1.632-.876l.9.36c-.48.972-1.488 1.5-2.568 1.5-1.596 0-2.88-1.188-2.88-2.964s1.284-2.928 2.88-2.928 2.784 1.152 2.784 2.928m-4.572-.432h3.528c-.132-.96-.816-1.512-1.74-1.512-.948 0-1.62.504-1.788 1.512m-47.765 19.252v-5.604h5.148v5.604h-1.044v-4.62h-3.06v4.62zm10.009-5.748c1.536 0 2.808 1.188 2.808 2.952 0 1.776-1.26 2.94-2.796 2.94-.84 0-1.632-.36-2.004-1.02v3.6h-1.044v-8.328h1.044v.876c.372-.636 1.188-1.02 1.992-1.02m-.096 4.908c1.032 0 1.848-.816 1.848-1.944 0-1.116-.816-1.98-1.848-1.98-.996 0-1.896.78-1.896 1.98 0 1.212.984 1.944 1.896 1.944m6.332-.636 1.716-4.128h1.128l-3.48 8.328h-1.104l1.176-2.892-2.256-5.436h1.128zm8.468-4.128v4.62h.504v2.616h-1.056v-1.632h-3.924v1.632h-1.044v-2.448h.288c.636 0 .852-.54 1.044-1.848l.432-2.94zm-1.044.984h-1.764l-.336 2.184c-.084.588-.168 1.14-.468 1.452h2.568zm4.082 1.044h1.716c1.38 0 1.932.828 1.932 1.764 0 .9-.54 1.812-1.872 1.812h-2.82v-5.604h1.044zm4.26 3.576v-5.604h1.044v5.604zm-4.26-.984h1.608c.684 0 .984-.348.984-.816 0-.456-.3-.792-.984-.792h-1.608z"/><path fill="#EDEDED" d="m43.483 231.18 2.675-1.2h.036v7.944H45.15v-6.42l-1.667.684zm7.399 6.888c-2.256 0-2.844-1.836-2.844-4.044 0-2.232.588-4.044 2.844-4.044s2.844 1.812 2.844 4.044c0 2.208-.588 4.044-2.844 4.044m0-.984c1.44 0 1.8-1.428 1.8-3.06 0-1.656-.36-3.048-1.8-3.048s-1.788 1.392-1.788 3.048c0 1.632.348 3.06 1.788 3.06m13.701-4.764.768 5.604h-.996l-.516-3.744-1.752 3.108h-.792l-1.752-3.096-.528 3.732h-.984l.756-5.604h.756l2.148 3.864 2.124-3.864zm3.289 4.044 3.252-4.044h.936v5.604h-1.044v-4.068l-3.3 4.068h-.888v-5.604h1.044zm10.115-1.704v-2.34h1.044v5.604h-1.044v-2.328h-3.06v2.328h-1.044v-5.604h1.044v2.34z"/><path fill="#171726" d="m84.482 53.266 7.645-.986-4.676 8.1z"/><path fill="#171726" d="M107.153 50.766c6.512 3.76 8.77 12.043 5.042 18.5s-12.03 8.643-18.542 4.882c-6.513-3.76-8.771-12.042-5.043-18.5 3.728-6.456 12.03-8.642 18.543-4.882"/><path fill="#EDEDED" d="M107.208 67.956H94.255a.2.2 0 0 1-.135-.058.2.2 0 0 1 0-.278.2.2 0 0 1 .135-.058h12.953a.2.2 0 0 1 .135.058.203.203 0 0 1 0 .278.2.2 0 0 1-.135.058"/><path fill="#EDEDED" d="M105.048 67.956a.2.2 0 0 1-.135-.058.2.2 0 0 1-.056-.139v-4.351a.2.2 0 0 1 .056-.14.19.19 0 0 1 .27 0 .2.2 0 0 1 .055.14v4.351c0 .052-.02.102-.055.14a.2.2 0 0 1-.135.057"/><path fill="#EDEDED" d="M105.05 63.606a.9.9 0 0 1-.522-.164.97.97 0 0 1-.346-.435 1 1 0 0 1 .204-1.057.93.93 0 0 1 .481-.265.9.9 0 0 1 .542.055.94.94 0 0 1 .422.357.994.994 0 0 1-.117 1.225.92.92 0 0 1-.664.284m0-1.547a.55.55 0 0 0-.31.098.58.58 0 0 0-.237.591.6.6 0 0 0 .152.295.54.54 0 0 0 .609.125.56.56 0 0 0 .25-.212.59.59 0 0 0-.069-.728.55.55 0 0 0-.395-.169m-8.553 5.898a.2.2 0 0 1-.135-.058.2.2 0 0 1-.055-.139v-4.35a.2.2 0 0 1 .055-.14.19.19 0 0 1 .27 0 .2.2 0 0 1 .056.14v4.351a.2.2 0 0 1-.056.14.2.2 0 0 1-.135.057"/><path fill="#EDEDED" d="M96.498 63.606a.9.9 0 0 1-.522-.164.96.96 0 0 1-.346-.435 1 1 0 0 1 .204-1.057.91.91 0 0 1 1.023-.21.95.95 0 0 1 .421.357.99.99 0 0 1-.116 1.225.92.92 0 0 1-.664.284m0-1.547a.55.55 0 0 0-.31.098.57.57 0 0 0-.206.258.6.6 0 0 0 .121.628.54.54 0 0 0 .608.125.56.56 0 0 0 .25-.212.59.59 0 0 0-.069-.728.55.55 0 0 0-.394-.169"/><path fill="#EDEDED" d="M100.781 65.04q-1.954 0-3.907-1.667a.2.2 0 0 1-.01-.26.185.185 0 0 1 .248-.043c2.477 2.115 4.864 2.115 7.331 0a.18.18 0 0 1 .135-.036.196.196 0 0 1 .166.208.2.2 0 0 1-.06.131c-1.285 1.112-2.598 1.667-3.903 1.667m6.427.001a.2.2 0 0 1-.122-.045l-1.783-1.544a.2.2 0 0 1-.022-.277.185.185 0 0 1 .268-.024l1.777 1.542q.046.04.062.1a.2.2 0 0 1-.071.211.2.2 0 0 1-.109.037m-12.915.089a.18.18 0 0 1-.139-.063.2.2 0 0 1-.05-.142.2.2 0 0 1 .062-.137l1.756-1.676a.187.187 0 0 1 .269.01.2.2 0 0 1 .051.141.2.2 0 0 1-.06.138l-1.759 1.676a.2.2 0 0 1-.13.053m9.807-4.058h-6.736a.2.2 0 0 1-.135-.058.2.2 0 0 1-.055-.139v-4.721a.2.2 0 0 1 .055-.14.2.2 0 0 1 .135-.057h6.736c.05 0 .099.02.134.058a.2.2 0 0 1 .056.139v4.721a.2.2 0 0 1-.056.14.2.2 0 0 1-.134.057m-6.545-.394h6.354V56.35h-6.354z"/><path fill="#EDEDED" d="M104.1 60.286a.2.2 0 0 1-.126-.05l-2.033-1.857-1.099.915a.186.186 0 0 1-.268-.03.2.2 0 0 1-.042-.144.2.2 0 0 1 .07-.133l1.225-1.019a.186.186 0 0 1 .246 0l2.152 1.967a.2.2 0 0 1 .064.136.2.2 0 0 1-.047.142.2.2 0 0 1-.142.073"/><path fill="#EDEDED" d="M101.75 60.285a.18.18 0 0 1-.125-.049l-2.216-2.046-1.914 1.846a.2.2 0 0 1-.136.053.18.18 0 0 1-.133-.062.2.2 0 0 1-.052-.141.2.2 0 0 1 .06-.138l2.042-1.967a.187.187 0 0 1 .257 0l2.343 2.16q.044.042.059.1a.2.2 0 0 1-.007.118.19.19 0 0 1-.179.126zm-.977-2.274a.6.6 0 0 1-.352-.109.667.667 0 0 1-.098-1.005.61.61 0 0 1 .69-.142.64.64 0 0 1 .284.24.665.665 0 0 1-.078.824.62.62 0 0 1-.446.192m0-.91a.24.24 0 0 0-.14.042.26.26 0 0 0-.108.267q.014.077.069.134a.246.246 0 0 0 .387-.04.265.265 0 0 0-.112-.384.3.3 0 0 0-.096-.02"/><path fill="#E9D9BD" d="M50.312 84.732 51.332 93h-1.068l-.768-6.3-2.628 5.4h-.948l-2.652-5.4-.756 6.3h-1.068l1.008-8.268h.984l2.952 6.132 2.94-6.132zm4.581 6.792 1.716-4.128h1.128l-3.48 8.328h-1.104l1.176-2.892-2.256-5.436h1.128zm6.9-1.44a1.45 1.45 0 0 1 1.044 1.392c0 1.128-1.092 1.668-2.532 1.668-.744 0-1.56-.168-2.028-.408l.3-.96a4.5 4.5 0 0 0 1.716.384c.744 0 1.5-.276 1.5-.852 0-.492-.516-.768-1.356-.768H59.32v-.792h.924c.864 0 1.2-.36 1.2-.78 0-.552-.588-.732-1.176-.732a4.2 4.2 0 0 0-1.572.336l-.324-.888c.552-.264 1.416-.432 2.04-.432 1.344 0 2.076.744 2.076 1.632 0 .456-.276.948-.696 1.2m7.765.096c0 .156-.013.312-.025.468h-4.56c.156.996.877 1.512 1.837 1.512.683 0 1.308-.312 1.632-.876l.9.36c-.48.972-1.489 1.5-2.568 1.5-1.597 0-2.88-1.188-2.88-2.964s1.283-2.928 2.88-2.928 2.784 1.152 2.784 2.928m-4.573-.432h3.528c-.132-.96-.816-1.512-1.74-1.512-.947 0-1.62.504-1.787 1.512m8.203-3.372c-.936 0-1.548-.612-1.548-1.536h.864c0 .432.264.732.684.732.408 0 .672-.3.672-.732h.888c0 .924-.624 1.536-1.56 1.536m-1.164 5.064 3.252-4.044h.936V93h-1.044v-4.068L71.868 93h-.888v-5.604h1.044zm11.662 1.704c-1.608 0-3.012-1.176-3.012-2.952s1.404-2.94 3.012-2.94c.876 0 1.644.348 2.136.888l-.66.684a1.98 1.98 0 0 0-1.44-.588c-1.104 0-1.992.804-1.992 1.956s.888 1.968 1.992 1.968c.588 0 1.092-.228 1.44-.588l.66.684c-.492.552-1.26.888-2.136.888m5.858 0c-1.596 0-2.928-1.176-2.928-2.952s1.332-2.94 2.928-2.94 2.94 1.164 2.94 2.94-1.344 2.952-2.94 2.952m0-.984c1.032 0 1.896-.804 1.896-1.968 0-1.152-.864-1.956-1.896-1.956-1.02 0-1.872.804-1.872 1.956 0 1.164.852 1.968 1.872 1.968m8.485-2.148c.708.144.996.78.996 1.392 0 .768-.576 1.596-1.824 1.596h-3.264v-5.604h3.072c1.032 0 1.704.6 1.704 1.44 0 .42-.12.972-.684 1.176m-.36-.984c0-.384-.24-.648-.708-.648h-1.98v1.284h2.004c.432 0 .684-.228.684-.636m-2.688 2.988h2.112c.612 0 .888-.324.888-.72 0-.408-.276-.756-.888-.756h-2.112zm8.543-4.764c1.536 0 2.808 1.188 2.808 2.952 0 1.776-1.26 2.94-2.796 2.94-.84 0-1.632-.36-2.004-1.02v3.6h-1.044v-8.328h1.044v.876c.372-.636 1.188-1.02 1.992-1.02m-.096 4.908c1.032 0 1.848-.816 1.848-1.944 0-1.116-.816-1.98-1.848-1.98-.996 0-1.896.78-1.896 1.98 0 1.212.984 1.944 1.896 1.944m9.653-1.98c0 .156-.012.312-.024.468h-4.56c.156.996.876 1.512 1.836 1.512.684 0 1.308-.312 1.632-.876l.9.36c-.48.972-1.488 1.5-2.568 1.5-1.596 0-2.88-1.188-2.88-2.964s1.284-2.928 2.88-2.928 2.784 1.152 2.784 2.928m-4.572-.432h3.528c-.132-.96-.816-1.512-1.74-1.512-.948 0-1.62.504-1.788 1.512m12.211-2.352.768 5.604h-.996l-.516-3.744-1.752 3.108h-.792l-1.752-3.096-.528 3.732h-.984l.756-5.604h.756l2.148 3.864 2.124-3.864zm7.537 2.784c0 .156-.012.312-.024.468h-4.56c.156.996.876 1.512 1.836 1.512.684 0 1.308-.312 1.632-.876l.9.36c-.48.972-1.488 1.5-2.568 1.5-1.596 0-2.88-1.188-2.88-2.964s1.284-2.928 2.88-2.928 2.784 1.152 2.784 2.928m-4.572-.432h3.528c-.132-.96-.816-1.512-1.74-1.512-.948 0-1.62.504-1.788 1.512m10.099-.012v-2.34h1.044V93h-1.044v-2.328h-3.06V93h-1.044v-5.604h1.044v2.34zm6.972 0v-2.34h1.044V93h-1.044v-2.328h-3.06V93h-1.044v-5.604h1.044v2.34zm5.413 3.408c-1.596 0-2.928-1.176-2.928-2.952s1.332-2.94 2.928-2.94 2.94 1.164 2.94 2.94-1.344 2.952-2.94 2.952m0-.984c1.032 0 1.896-.804 1.896-1.968 0-1.152-.864-1.956-1.896-1.956-1.02 0-1.872.804-1.872 1.956 0 1.164.852 1.968 1.872 1.968m6.601-5.784c-.936 0-1.548-.612-1.548-1.536h.864c0 .432.264.732.684.732.408 0 .672-.3.672-.732h.888c0 .924-.624 1.536-1.56 1.536m-1.164 5.064 3.252-4.044h.936V93h-1.044v-4.068L151.45 93h-.888v-5.604h1.044zm-74.214 16 3.252-4.044h.935V109h-1.043v-4.068l-3.3 4.068h-.889v-5.604h1.044zm8.626 1.704c-1.608 0-3.012-1.176-3.012-2.952s1.404-2.94 3.012-2.94c.876 0 1.644.348 2.136.888l-.66.684a1.98 1.98 0 0 0-1.44-.588c-1.104 0-1.992.804-1.992 1.956s.888 1.968 1.992 1.968c.588 0 1.092-.228 1.44-.588l.66.684c-.492.552-1.26.888-2.136.888m2.807-5.748h4.751v.984H91.73V109h-1.044v-4.62h-1.86zm8.313 5.748c-1.596 0-2.928-1.176-2.928-2.952s1.332-2.94 2.928-2.94 2.94 1.164 2.94 2.94-1.344 2.952-2.94 2.952m0-.984c1.032 0 1.896-.804 1.896-1.968 0-1.152-.864-1.956-1.896-1.956-1.02 0-1.872.804-1.872 1.956 0 1.164.852 1.968 1.872 1.968m7.429-4.908c1.536 0 2.808 1.188 2.808 2.952 0 1.776-1.26 2.94-2.796 2.94-.84 0-1.632-.36-2.004-1.02v3.6h-1.044v-8.328h1.044v.876c.372-.636 1.188-1.02 1.992-1.02m-.096 4.908c1.032 0 1.848-.816 1.848-1.944 0-1.116-.816-1.98-1.848-1.98-.996 0-1.896.78-1.896 1.98 0 1.212.984 1.944 1.896 1.944m5.405-.72 3.252-4.044h.936V109h-1.044v-4.068l-3.3 4.068h-.888v-5.604h1.044zm7.055 0 3.252-4.044h.936V109h-1.044v-4.068l-3.3 4.068h-.888v-5.604h1.044z"/><path fill="#EDEDED" d="M86.145 121.977c1.596 0 2.688 1.224 2.688 2.592 0 1.332-1.068 2.604-2.784 2.604-1.932 0-2.916-1.332-2.916-3.816 0-1.848.72-4.272 3.204-4.272.9 0 1.884.324 2.412 1.596l-.948.384c-.324-.732-.9-.984-1.488-.984-1.212 0-2.124 1.356-2.04 2.892a2.23 2.23 0 0 1 1.872-.996m-.156 4.2c1.008 0 1.752-.72 1.752-1.632 0-.876-.696-1.548-1.632-1.584-.972 0-1.776.624-1.824 1.512 0 .96.744 1.68 1.704 1.704m13.655-4.752.768 5.604h-.996l-.516-3.744-1.752 3.108h-.792l-1.752-3.096-.528 3.732h-.984l.756-5.604h.756l2.148 3.864 2.124-3.864zm3.289 4.044 3.252-4.044h.936v5.604h-1.044v-4.068l-3.3 4.068h-.888v-5.604h1.044zm10.114-1.704v-2.34h1.044v5.604h-1.044v-2.328h-3.06v2.328h-1.044v-5.604h1.044v2.34z"/><path fill="#171726" d="m282.963 94.25-4.677-6.128h9.353z"/><path fill="#171726" d="M269.463 75.867c0-7.52 6.044-13.617 13.5-13.617s13.5 6.097 13.5 13.617-6.044 13.617-13.5 13.617-13.5-6.096-13.5-13.617"/><path fill="#EDEDED" d="M278.783 74.48a.66.66 0 0 0-.077.304v.222a.67.67 0 0 0 .445.626v.263a.67.67 0 0 0 .444.626v5.153a.666.666 0 0 0-.666.666v.667c0 .245.199.444.444.444h6.223a.444.444 0 0 0 .444-.444v-.667a.666.666 0 0 0-.667-.666V76.52a.67.67 0 0 0 .445-.626v-.263a.67.67 0 0 0 .444-.626v-.222a.65.65 0 0 0-.077-.304 2.22 2.22 0 0 0-.589-4.363h-6.223a2.22 2.22 0 0 0-.59 4.363m6.813 7.86v.667h-6.223v-.667c0-.123.1-.222.222-.222h5.778c.123 0 .223.1.223.222m-5.556-.666v-5.112h4.889v5.112zm5.333-5.779a.22.22 0 0 1-.222.223h-5.333a.223.223 0 0 1-.223-.223v-.222h5.778zm.445-1.11v.221c0 .123-.1.223-.222.223h-6.223a.22.22 0 0 1-.222-.223v-.222c0-.123.099-.222.222-.222h6.223c.122 0 .222.1.222.222m-6.445-4.223h6.223a1.778 1.778 0 1 1-1.479.79.22.22 0 0 0 .036-.168.2.2 0 0 0-.033-.081.23.23 0 0 0-.231-.095.22.22 0 0 0-.141.097 2.217 2.217 0 0 0 .52 3.012h-3.567a2.22 2.22 0 0 0 .52-3.012.22.22 0 0 0-.306-.058.22.22 0 0 0-.094.14.22.22 0 0 0 .031.165 1.779 1.779 0 1 1-1.479-.79"/><path fill="#EDEDED" d="M279.373 73.45c.613 0 1.11-.497 1.111-1.11a.222.222 0 1 0-.444 0 .667.667 0 1 1-.667-.667.222.222 0 1 0 0-.445 1.11 1.11 0 1 0 0 2.223m6.223 0a1.111 1.111 0 0 0 0-2.222.223.223 0 1 0 0 .445.666.666 0 1 1-.667.667.223.223 0 0 0-.445 0c.001.613.498 1.11 1.112 1.11m-4.445 3.779c-.123 0-.222.1-.222.222v3.556a.222.222 0 1 0 .444 0V77.45a.22.22 0 0 0-.222-.222m1.333 0c-.123 0-.222.1-.222.222v3.556a.222.222 0 1 0 .444 0V77.45a.22.22 0 0 0-.222-.222m1.334 0c-.123 0-.223.1-.223.222v3.556a.223.223 0 0 0 .445 0V77.45c0-.123-.1-.222-.222-.222"/><path fill="#E9D9BD" d="M261.429 109.984v-8.268h6.048v8.268h-1.092V102.7h-3.864v7.284zm12.391-4.728v-.876h1.044v5.604h-1.044v-.996c-.372.672-1.152 1.14-2.052 1.14-1.464 0-2.748-1.236-2.748-2.952 0-1.656 1.212-2.94 2.796-2.94.84 0 1.632.36 2.004 1.02m-1.896 3.888c.996 0 1.896-.828 1.896-1.968 0-1.152-.972-1.956-1.908-1.956-1.02 0-1.836.9-1.836 1.956 0 1.068.816 1.968 1.848 1.968m10.985-4.764.768 5.604h-.996l-.516-3.744-1.752 3.108h-.792l-1.752-3.096-.528 3.732h-.984l.756-5.604h.756l2.148 3.864 2.124-3.864zm3.817 0h3.084v5.604h-1.056v-2.04h-1.284l-1.464 2.04h-1.236l1.56-2.076c-1.044-.168-1.5-.912-1.5-1.74 0-.9.576-1.788 1.896-1.788m.204 2.664h1.824v-1.68h-1.932c-.612 0-.936.36-.936.828 0 .48.324.852 1.044.852m4.045-2.664h4.752v.984h-1.848v4.62h-1.044v-4.62h-1.86zm10.037 2.34v-2.34h1.044v5.604h-1.044v-2.328h-3.06v2.328h-1.044v-5.604h1.044v2.34zm3.913 1.704 3.252-4.044h.936v5.604h-1.044v-4.068l-3.3 4.068h-.888v-5.604h1.044zm11.158 1.56h-1.284l-1.848-2.34h-.972v2.34h-1.044v-5.604h1.044v2.34h1.044l1.56-2.34h1.164l-1.872 2.808zm-57.541 16h-1.14l-.804-2.124h-3.552l-.804 2.124h-1.14l3.144-8.268h1.152zm-3.72-6.84-1.416 3.756h2.832zm5.196 6.96c-.408 0-.756-.3-.756-.72 0-.432.348-.744.756-.744.42 0 .78.312.78.744 0 .42-.36.72-.78.72m6.254.024c-2.34 0-4.2-1.92-4.2-4.26s1.86-4.296 4.2-4.296c1.272 0 2.376.54 3.108 1.404l-.792.672a3.05 3.05 0 0 0-2.316-1.068c-1.74 0-3.108 1.512-3.108 3.288 0 1.764 1.368 3.252 3.108 3.252.924 0 1.764-.42 2.316-1.068l.792.672c-.732.864-1.836 1.404-3.108 1.404m4.95-.024c-.408 0-.756-.3-.756-.72 0-.432.348-.744.756-.744.42 0 .78.312.78.744 0 .42-.36.72-.78.72m5.664-.12v-8.268h6.048v8.268h-1.092V118.7h-3.864v7.284zm10.158-1.476 1.716-4.128h1.128l-3.48 8.328h-1.104l1.176-2.892-2.256-5.436h1.128zm10.187.492v-4.62h1.044v5.604h-7.32v-5.604h1.044V125h2.088v-4.62h1.056V125zm8.013.984h-1.284l-1.848-2.34h-.972v2.34h-1.044v-5.604h1.044v2.34h1.044l1.56-2.34h1.164l-1.872 2.808zm2.06-1.56 3.252-4.044h.936v5.604h-1.044v-4.068l-3.3 4.068h-.888v-5.604h1.044zm10.114-1.704v-2.34h1.044v5.604h-1.044v-2.328h-3.06v2.328h-1.044v-5.604h1.044v2.34zm4.981 1.788 1.716-4.128h1.128l-3.48 8.328h-1.104l1.176-2.892-2.256-5.436h1.128z"/><path fill="#EDEDED" d="M271.733 139.802c.816.264 1.368.996 1.368 1.92 0 1.44-1.128 2.436-2.724 2.436-1.116 0-2.064-.612-2.532-1.632l.852-.492c.36.708.972 1.14 1.644 1.14.984 0 1.704-.588 1.704-1.416 0-.888-.696-1.476-1.668-1.476h-.816v-.9h.744c.828 0 1.368-.492 1.368-1.2 0-.672-.504-1.116-1.26-1.116-.54 0-1.092.288-1.392.744l-.732-.6c.408-.684 1.26-1.14 2.148-1.14 1.368 0 2.28.828 2.28 2.088 0 .744-.372 1.356-.984 1.644m12.161-1.392.768 5.604h-.996l-.516-3.744-1.752 3.108h-.792l-1.752-3.096-.528 3.732h-.984l.756-5.604h.756l2.148 3.864 2.124-3.864zm3.289 4.044 3.252-4.044h.936v5.604h-1.044v-4.068l-3.3 4.068h-.888v-5.604h1.044zm10.114-1.704v-2.34h1.044v5.604h-1.044v-2.328h-3.06v2.328h-1.044v-5.604h1.044v2.34z"/><path fill="#171726" d="m235.713 47.293-4.677-6.128h9.353z"/><path fill="#171726" d="M222.213 28.91c0-7.52 6.044-13.617 13.5-13.617s13.5 6.097 13.5 13.617-6.044 13.617-13.5 13.617-13.5-6.096-13.5-13.617"/><path fill="#EDEDED" d="m236.143 32.27 1.943-3.207.815 2.182h-.652v.947h3.888v-.947h-.734l-2.805-6.975-2.455 4.286-2.468-4.286-2.793 6.975h-.745v.947h3.899v-.947h-.652l.803-2.182z"/><path fill="#E9D9BD" d="M210.431 54.76h6.132v1.007h-2.52v7.26h-1.092v-7.26h-2.52zm10.261 5.28c.708.143.996.78.996 1.391 0 .768-.576 1.596-1.824 1.596H216.6v-5.604h3.072c1.032 0 1.704.6 1.704 1.44 0 .42-.12.972-.684 1.176m-.36-.985c0-.384-.24-.648-.708-.648h-1.98v1.284h2.004c.432 0 .684-.228.684-.636m-2.688 2.988h2.112c.612 0 .888-.324.888-.72 0-.408-.276-.756-.888-.756h-2.112zm10.798-1.836c0 .156-.012.312-.024.468h-4.56c.156.996.876 1.512 1.836 1.512.684 0 1.308-.312 1.632-.876l.9.36c-.48.972-1.488 1.5-2.568 1.5-1.596 0-2.88-1.188-2.88-2.964s1.284-2.928 2.88-2.928 2.784 1.152 2.784 2.928m-4.572-.432h3.528c-.132-.96-.816-1.512-1.74-1.512-.948 0-1.62.504-1.788 1.512m9.031-2.496c1.536 0 2.808 1.188 2.808 2.952 0 1.776-1.26 2.94-2.796 2.94-.84 0-1.632-.36-2.004-1.02v3.6h-1.044v-8.328h1.044v.876c.372-.636 1.188-1.02 1.992-1.02m-.096 4.908c1.032 0 1.848-.816 1.848-1.944 0-1.116-.816-1.98-1.848-1.98-.996 0-1.896.78-1.896 1.98 0 1.212.984 1.944 1.896 1.944m6.977.984c-1.608 0-3.012-1.176-3.012-2.952s1.404-2.94 3.012-2.94c.876 0 1.644.348 2.136.888l-.66.684a1.98 1.98 0 0 0-1.44-.588c-1.104 0-1.992.804-1.992 1.956s.888 1.968 1.992 1.968c.588 0 1.092-.228 1.44-.588l.66.684c-.492.552-1.26.888-2.136.888m8.602-.144H247.1l-1.848-2.34h-.972v2.34h-1.044v-5.604h1.044v2.34h1.044l1.56-2.34h1.164l-1.872 2.808zm5.21-4.728v-.876h1.044v5.604h-1.044v-.996c-.372.672-1.152 1.14-2.052 1.14-1.464 0-2.748-1.236-2.748-2.952 0-1.656 1.212-2.94 2.796-2.94.84 0 1.632.36 2.004 1.02m-1.896 3.888c.996 0 1.896-.828 1.896-1.968 0-1.152-.972-1.956-1.908-1.956-1.02 0-1.836.9-1.836 1.956 0 1.068.816 1.968 1.848 1.968m6.341-4.764h3.084v5.604h-1.056v-2.04h-1.284l-1.464 2.04h-1.236l1.56-2.076c-1.044-.168-1.5-.912-1.5-1.74 0-.9.576-1.788 1.896-1.788m.204 2.664h1.824v-1.68h-1.932c-.612 0-.936.36-.936.828 0 .48.324.852 1.044.852"/><path fill="#EDEDED" d="M223.57 76.017c1.5 0 2.556.984 2.556 2.508 0 1.596-1.164 2.676-2.772 2.676-1.356 0-2.352-.756-2.844-1.776l.876-.48c.312.72.984 1.272 1.92 1.272 1.02 0 1.776-.684 1.776-1.668s-.78-1.608-1.74-1.608c-.648 0-1.32.276-1.92.72l-.648-.54.684-3.912h4.152v.996h-3.3l-.444 2.352a3.06 3.06 0 0 1 1.704-.54m13.267-.564.768 5.604h-.996l-.516-3.744-1.752 3.108h-.792l-1.752-3.096-.528 3.732h-.984l.756-5.604h.756l2.148 3.864 2.124-3.864zm3.289 4.044 3.252-4.044h.936v5.604h-1.044v-4.068l-3.3 4.068h-.888v-5.604h1.044zm10.115-1.704v-2.34h1.044v5.604h-1.044v-2.328h-3.06v2.328h-1.044v-5.604h1.044v2.34z"/><path fill="#171726" d="m256.713 173.176-4.677-6.128h9.353z"/><path fill="#171726" d="M243.213 154.793c0-7.521 6.044-13.617 13.5-13.617s13.5 6.096 13.5 13.617c0 7.52-6.044 13.617-13.5 13.617s-13.5-6.097-13.5-13.617"/><path fill="#EDEDED" d="m257.143 158.152 1.943-3.206.815 2.182h-.652v.947h3.888v-.947h-.734l-2.805-6.976-2.455 4.287-2.468-4.287-2.793 6.976h-.745v.947h3.899v-.947h-.652l.803-2.182z"/><path fill="#E9D9BD" d="m231.972 180.642 1.02 8.268h-1.068l-.768-6.3-2.628 5.4h-.948l-2.652-5.4-.756 6.3h-1.068l1.008-8.268h.984l2.952 6.132 2.94-6.132zm5.072 8.412c-1.596 0-2.928-1.176-2.928-2.952s1.332-2.94 2.928-2.94 2.94 1.164 2.94 2.94-1.344 2.952-2.94 2.952m0-.984c1.032 0 1.896-.804 1.896-1.968 0-1.152-.864-1.956-1.896-1.956-1.02 0-1.872.804-1.872 1.956 0 1.164.852 1.968 1.872 1.968m7.009.984c-1.608 0-3.012-1.176-3.012-2.952s1.404-2.94 3.012-2.94c.876 0 1.644.348 2.136.888l-.66.684a1.98 1.98 0 0 0-1.44-.588c-1.104 0-1.992.804-1.992 1.956s.888 1.968 1.992 1.968c.588 0 1.092-.228 1.44-.588l.66.684c-.492.552-1.26.888-2.136.888m8.603-.144h-1.284l-1.848-2.34h-.972v2.34h-1.044v-5.604h1.044v2.34h1.044l1.56-2.34h1.164l-1.872 2.808zm3.337.144c-1.596 0-2.928-1.176-2.928-2.952s1.332-2.94 2.928-2.94 2.94 1.164 2.94 2.94-1.344 2.952-2.94 2.952m0-.984c1.032 0 1.896-.804 1.896-1.968 0-1.152-.864-1.956-1.896-1.956-1.02 0-1.872.804-1.872 1.956 0 1.164.852 1.968 1.872 1.968m8.486-2.148c.708.144.996.78.996 1.392 0 .768-.576 1.596-1.824 1.596h-3.264v-5.604h3.072c1.032 0 1.704.6 1.704 1.44 0 .42-.12.972-.684 1.176m-.36-.984c0-.384-.24-.648-.708-.648h-1.98v1.284h2.004c.432 0 .684-.228.684-.636m-2.688 2.988h2.112c.612 0 .888-.324.888-.72 0-.408-.276-.756-.888-.756h-2.112zm8.122 1.128c-1.608 0-3.012-1.176-3.012-2.952s1.404-2.94 3.012-2.94c.876 0 1.644.348 2.136.888l-.66.684a1.98 1.98 0 0 0-1.44-.588c-1.104 0-1.992.804-1.992 1.956s.888 1.968 1.992 1.968c.588 0 1.092-.228 1.44-.588l.66.684c-.492.552-1.26.888-2.136.888m8.603-.144h-1.284l-1.848-2.34h-.972v2.34h-1.044v-5.604h1.044v2.34h1.044l1.56-2.34h1.164l-1.872 2.808zm5.209-4.728v-.876h1.044v5.604h-1.044v-.996c-.372.672-1.152 1.14-2.052 1.14-1.464 0-2.748-1.236-2.748-2.952 0-1.656 1.212-2.94 2.796-2.94.84 0 1.632.36 2.004 1.02m-1.896 3.888c.996 0 1.896-.828 1.896-1.968 0-1.152-.972-1.956-1.908-1.956-1.02 0-1.836.9-1.836 1.956 0 1.068.816 1.968 1.848 1.968m6.341-4.764h3.084v5.604h-1.056v-2.04h-1.284l-1.464 2.04h-1.236l1.56-2.076c-1.044-.168-1.5-.912-1.5-1.74 0-.9.576-1.788 1.896-1.788m.204 2.664h1.824v-1.68h-1.932c-.612 0-.936.36-.936.828 0 .48.324.852 1.044.852"/><path fill="#EDEDED" d="M244.57 201.899c1.5 0 2.556.984 2.556 2.508 0 1.596-1.164 2.676-2.772 2.676-1.356 0-2.352-.756-2.844-1.776l.876-.48c.312.72.984 1.272 1.92 1.272 1.02 0 1.776-.684 1.776-1.668s-.78-1.608-1.74-1.608c-.648 0-1.32.276-1.92.72l-.648-.54.684-3.912h4.152v.996h-3.3l-.444 2.352a3.06 3.06 0 0 1 1.704-.54m13.267-.564.768 5.604h-.996l-.516-3.744-1.752 3.108h-.792l-1.752-3.096-.528 3.732h-.984l.756-5.604h.756l2.148 3.864 2.124-3.864zm3.289 4.044 3.252-4.044h.936v5.604h-1.044v-4.068l-3.3 4.068h-.888v-5.604h1.044zm10.115-1.704v-2.34h1.044v5.604h-1.044v-2.328h-3.06v2.328h-1.044v-5.604h1.044v2.34z"/><path fill="#171726" d="m302.213 217.135-4.677-6.128h9.353z"/><path fill="#171726" d="M288.713 198.752c0-7.521 6.044-13.617 13.5-13.617s13.5 6.096 13.5 13.617c0 7.52-6.044 13.617-13.5 13.617s-13.5-6.097-13.5-13.617"/><path fill="#EDEDED" d="m302.643 202.111 1.943-3.206.815 2.182h-.652v.947h3.888v-.947h-.734l-2.805-6.976-2.455 4.287-2.468-4.287-2.793 6.976h-.745v.947h3.899v-.947h-.652l.803-2.182z"/><path fill="#E9D9BD" d="M276.931 224.601h6.132v1.008h-2.52v7.26h-1.092v-7.26h-2.52zm10.261 5.28c.708.144.996.78.996 1.392 0 .768-.576 1.596-1.824 1.596H283.1v-5.604h3.072c1.032 0 1.704.6 1.704 1.44 0 .42-.12.972-.684 1.176m-.36-.984c0-.384-.24-.648-.708-.648h-1.98v1.284h2.004c.432 0 .684-.228.684-.636m-2.688 2.988h2.112c.612 0 .888-.324.888-.72 0-.408-.276-.756-.888-.756h-2.112zm10.798-1.836c0 .156-.012.312-.024.468h-4.56c.156.996.876 1.512 1.836 1.512.684 0 1.308-.312 1.632-.876l.9.36c-.48.972-1.488 1.5-2.568 1.5-1.596 0-2.88-1.188-2.88-2.964s1.284-2.928 2.88-2.928 2.784 1.152 2.784 2.928m-4.572-.432h3.528c-.132-.96-.816-1.512-1.74-1.512-.948 0-1.62.504-1.788 1.512m9.031-2.496c1.536 0 2.808 1.188 2.808 2.952 0 1.776-1.26 2.94-2.796 2.94-.84 0-1.632-.36-2.004-1.02v3.6h-1.044v-8.328h1.044v.876c.372-.636 1.188-1.02 1.992-1.02m-.096 4.908c1.032 0 1.848-.816 1.848-1.944 0-1.116-.816-1.98-1.848-1.98-.996 0-1.896.78-1.896 1.98 0 1.212.984 1.944 1.896 1.944m6.977.984c-1.608 0-3.012-1.176-3.012-2.952s1.404-2.94 3.012-2.94c.876 0 1.644.348 2.136.888l-.66.684a1.98 1.98 0 0 0-1.44-.588c-1.104 0-1.992.804-1.992 1.956s.888 1.968 1.992 1.968c.588 0 1.092-.228 1.44-.588l.66.684c-.492.552-1.26.888-2.136.888m8.602-.144H313.6l-1.848-2.34h-.972v2.34h-1.044v-5.604h1.044v2.34h1.044l1.56-2.34h1.164l-1.872 2.808zm5.21-4.728v-.876h1.044v5.604h-1.044v-.996c-.372.672-1.152 1.14-2.052 1.14-1.464 0-2.748-1.236-2.748-2.952 0-1.656 1.212-2.94 2.796-2.94.84 0 1.632.36 2.004 1.02m-1.896 3.888c.996 0 1.896-.828 1.896-1.968 0-1.152-.972-1.956-1.908-1.956-1.02 0-1.836.9-1.836 1.956 0 1.068.816 1.968 1.848 1.968m6.341-4.764h3.084v5.604h-1.056v-2.04h-1.284l-1.464 2.04h-1.236l1.56-2.076c-1.044-.168-1.5-.912-1.5-1.74 0-.9.576-1.788 1.896-1.788m.204 2.664h1.824v-1.68h-1.932c-.612 0-.936.36-.936.828 0 .48.324.852 1.044.852"/><path fill="#EDEDED" d="M290.07 245.858c1.5 0 2.556.984 2.556 2.508 0 1.596-1.164 2.676-2.772 2.676-1.356 0-2.352-.756-2.844-1.776l.876-.48c.312.72.984 1.272 1.92 1.272 1.02 0 1.776-.684 1.776-1.668s-.78-1.608-1.74-1.608c-.648 0-1.32.276-1.92.72l-.648-.54.684-3.912h4.152v.996h-3.3l-.444 2.352a3.06 3.06 0 0 1 1.704-.54m13.267-.564.768 5.604h-.996l-.516-3.744-1.752 3.108h-.792l-1.752-3.096-.528 3.732h-.984l.756-5.604h.756l2.148 3.864 2.124-3.864zm3.289 4.044 3.252-4.044h.936v5.604h-1.044v-4.068l-3.3 4.068h-.888v-5.604h1.044zm10.115-1.704v-2.34h1.044v5.604h-1.044v-2.328h-3.06v2.328h-1.044v-5.604h1.044v2.34z"/><defs><clipPath id="a"><path fill="#fff" d="M0 0h355v456H0z"/></clipPath></defs></svg>